IBMTifinaghSerif-Regular.ufo
<glyph name="exclam" format="2">
  <advance width="280"/>
  <unicode hex="0021"/>
  <note>
exclam
</note>
  <outline>
    <contour>
      <point x="169" y="-12"/>
      <point x="202" y="23"/>
      <point x="202" y="48" type="qcurve" smooth="yes"/>
      <point x="202" y="54" type="line" smooth="yes"/>
      <point x="202" y="79"/>
      <point x="169" y="114"/>
      <point x="140" y="114" type="qcurve" smooth="yes"/>
      <point x="111" y="114"/>
      <point x="78" y="79"/>
      <point x="78" y="54" type="qcurve" smooth="yes"/>
      <point x="78" y="48" type="line" smooth="yes"/>
      <point x="78" y="23"/>
      <point x="111" y="-12"/>
      <point x="140" y="-12" type="qcurve" smooth="yes"/>
    </contour>
    <contour>
      <point x="123" y="184" type="line"/>
      <point x="157" y="184" type="line"/>
      <point x="181" y="487" type="line"/>
      <point x="181" y="698" type="line"/>
      <point x="99" y="698" type="line"/>
      <point x="99" y="487" type="line"/>
    </contour>
  </outline>
</glyph>
<glyph name="numbersign" format="2">
  <advance width="695"/>
  <unicode hex="0023"/>
  <note>
numbersign
</note>
  <outline>
    <contour>
      <point x="154" y="0" type="line"/>
      <point x="210" y="0" type="line"/>
      <point x="245" y="210" type="line"/>
      <point x="402" y="210" type="line"/>
      <point x="367" y="0" type="line"/>
      <point x="422" y="0" type="line"/>
      <point x="458" y="210" type="line"/>
      <point x="596" y="210" type="line"/>
      <point x="596" y="259" type="line"/>
      <point x="466" y="259" type="line"/>
      <point x="497" y="439" type="line"/>
      <point x="635" y="439" type="line"/>
      <point x="635" y="488" type="line"/>
      <point x="505" y="488" type="line"/>
      <point x="540" y="698" type="line"/>
      <point x="484" y="698" type="line"/>
      <point x="449" y="488" type="line"/>
      <point x="292" y="488" type="line"/>
      <point x="327" y="698" type="line"/>
      <point x="272" y="698" type="line"/>
      <point x="236" y="488" type="line"/>
      <point x="98" y="488" type="line"/>
      <point x="98" y="439" type="line"/>
      <point x="228" y="439" type="line"/>
      <point x="198" y="259" type="line"/>
      <point x="59" y="259" type="line"/>
      <point x="59" y="210" type="line"/>
      <point x="189" y="210" type="line"/>
    </contour>
    <contour>
      <point x="284" y="439" type="line"/>
      <point x="441" y="439" type="line"/>
      <point x="410" y="259" type="line"/>
      <point x="253" y="259" type="line"/>
    </contour>
  </outline>
</glyph>
<glyph name="quotesingle" format="2">
  <advance width="241"/>
  <unicode hex="0027"/>
  <note>
quotesingle
</note>
  <outline>
    <contour>
      <point x="105" y="471" type="line"/>
      <point x="136" y="471" type="line"/>
      <point x="157" y="657" type="line"/>
      <point x="157" y="748" type="line"/>
      <point x="84" y="748" type="line"/>
      <point x="84" y="657" type="line"/>
    </contour>
  </outline>
</glyph>
<glyph name="parenright" format="2">
  <advance width="329"/>
  <unicode hex="0029"/>
  <note>
parenright
</note>
  <outline>
    <contour>
      <point x="23" y="-155" type="line"/>
      <point x="66" y="-127"/>
      <point x="152" y="-36"/>
      <point x="221" y="84"/>
      <point x="264" y="229"/>
      <point x="264" y="312" type="qcurve" smooth="yes"/>
      <point x="264" y="394"/>
      <point x="221" y="540"/>
      <point x="152" y="660"/>
      <point x="66" y="750"/>
      <point x="23" y="778" type="qcurve"/>
      <point x="-2" y="748" type="line"/>
      <point x="39" y="717"/>
      <point x="105" y="631"/>
      <point x="151" y="527"/>
      <point x="175" y="411"/>
      <point x="175" y="350" type="qcurve" smooth="yes"/>
      <point x="175" y="273" type="line" smooth="yes"/>
      <point x="175" y="213"/>
      <point x="151" y="96"/>
      <point x="105" y="-7"/>
      <point x="39" y="-94"/>
      <point x="-2" y="-125" type="qcurve"/>
    </contour>
  </outline>
</glyph>
<glyph name="plus" format="2">
  <advance width="600"/>
  <unicode hex="002B"/>
  <note>
plus
</note>
  <outline>
    <contour>
      <point x="272" y="76" type="line"/>
      <point x="328" y="76" type="line"/>
      <point x="328" y="279" type="line"/>
      <point x="534" y="279" type="line"/>
      <point x="534" y="331" type="line"/>
      <point x="328" y="331" type="line"/>
      <point x="328" y="534" type="line"/>
      <point x="272" y="534" type="line"/>
      <point x="272" y="331" type="line"/>
      <point x="66" y="331" type="line"/>
      <point x="66" y="279" type="line"/>
      <point x="272" y="279" type="line"/>
    </contour>
  </outline>
</glyph>
<glyph name="slash" format="2">
  <advance width="366"/>
  <unicode hex="002F"/>
  <note>
slash
</note>
  <outline>
    <contour>
      <point x="9" y="-143" type="line"/>
      <point x="66" y="-143" type="line"/>
      <point x="325" y="748" type="line"/>
      <point x="268" y="748" type="line"/>
    </contour>
  </outline>
</glyph>
<glyph name="two" format="2">
  <advance width="600"/>
  <unicode hex="0032"/>
  <note>
two
</note>
  <outline>
    <contour>
      <point x="61" y="0" type="line"/>
      <point x="515" y="0" type="line"/>
      <point x="515" y="174" type="line"/>
      <point x="465" y="174" type="line"/>
      <point x="465" y="77" type="line"/>
      <point x="135" y="77" type="line"/>
      <point x="135" y="81" type="line"/>
      <point x="324" y="248" type="line" smooth="yes"/>
      <point x="357" y="277"/>
      <point x="416" y="335"/>
      <point x="460" y="400"/>
      <point x="486" y="474"/>
      <point x="486" y="519" type="qcurve" smooth="yes"/>
      <point x="486" y="609"/>
      <point x="369" y="710"/>
      <point x="268" y="710" type="qcurve" smooth="yes"/>
      <point x="226" y="710"/>
      <point x="153" y="689"/>
      <point x="100" y="655"/>
      <point x="69" y="609"/>
      <point x="69" y="584" type="qcurve" smooth="yes"/>
      <point x="69" y="554"/>
      <point x="101" y="518"/>
      <point x="129" y="518" type="qcurve" smooth="yes"/>
      <point x="155" y="518"/>
      <point x="189" y="553"/>
      <point x="189" y="579" type="qcurve" smooth="yes"/>
      <point x="189" y="601"/>
      <point x="166" y="632"/>
      <point x="153" y="637" type="qcurve"/>
      <point x="153" y="639" type="line"/>
      <point x="168" y="648"/>
      <point x="219" y="662"/>
      <point x="254" y="662" type="qcurve" smooth="yes"/>
      <point x="319" y="662"/>
      <point x="392" y="589"/>
      <point x="392" y="526" type="qcurve" smooth="yes"/>
      <point x="392" y="504" type="line" smooth="yes"/>
      <point x="392" y="444"/>
      <point x="338" y="344"/>
      <point x="288" y="294" type="qcurve" smooth="yes"/>
      <point x="61" y="65" type="line"/>
    </contour>
  </outline>
</glyph>
<glyph name="three" format="2">
  <advance width="600"/>
  <unicode hex="0033"/>
  <note>
three
</note>
  <outline>
    <contour>
      <point x="326" y="-12"/>
      <point x="418" y="16"/>
      <point x="484" y="68"/>
      <point x="520" y="143"/>
      <point x="520" y="190" type="qcurve" smooth="yes"/>
      <point x="520" y="229"/>
      <point x="491" y="290"/>
      <point x="445" y="334"/>
      <point x="387" y="361"/>
      <point x="357" y="367" type="qcurve"/>
      <point x="357" y="371" type="line"/>
      <point x="386" y="378"/>
      <point x="439" y="405"/>
      <point x="480" y="445"/>
      <point x="505" y="500"/>
      <point x="505" y="534" type="qcurve" smooth="yes"/>
      <point x="505" y="578"/>
      <point x="470" y="644"/>
      <point x="409" y="688"/>
      <point x="328" y="710"/>
      <point x="282" y="710" type="qcurve" smooth="yes"/>
      <point x="237" y="710"/>
      <point x="164" y="688"/>
      <point x="113" y="652"/>
      <point x="85" y="607"/>
      <point x="85" y="584" type="qcurve" smooth="yes"/>
      <point x="85" y="554"/>
      <point x="117" y="518"/>
      <point x="144" y="518" type="qcurve" smooth="yes"/>
      <point x="171" y="518"/>
      <point x="205" y="553"/>
      <point x="205" y="579" type="qcurve" smooth="yes"/>
      <point x="205" y="599"/>
      <point x="183" y="631"/>
      <point x="169" y="637" type="qcurve"/>
      <point x="169" y="639" type="line"/>
      <point x="185" y="649"/>
      <point x="240" y="661"/>
      <point x="277" y="661" type="qcurve" smooth="yes"/>
      <point x="338" y="661"/>
      <point x="411" y="605"/>
      <point x="411" y="548" type="qcurve" smooth="yes"/>
      <point x="411" y="510" type="line" smooth="yes"/>
      <point x="411" y="458"/>
      <point x="335" y="389"/>
      <point x="262" y="389" type="qcurve" smooth="yes"/>
      <point x="187" y="389" type="line"/>
      <point x="187" y="340" type="line"/>
      <point x="268" y="340" type="line" smooth="yes"/>
      <point x="345" y="340"/>
      <point x="426" y="269"/>
      <point x="426" y="206" type="qcurve" smooth="yes"/>
      <point x="426" y="172" type="line" smooth="yes"/>
      <point x="426" y="106"/>
      <point x="337" y="37"/>
      <point x="259" y="37" type="qcurve" smooth="yes"/>
      <point x="221" y="37"/>
      <point x="166" y="49"/>
      <point x="149" y="59" type="qcurve"/>
      <point x="149" y="61" type="line"/>
      <point x="162" y="66"/>
      <point x="185" y="98"/>
      <point x="185" y="118" type="qcurve" smooth="yes"/>
      <point x="185" y="145"/>
      <point x="152" y="180"/>
      <point x="125" y="180" type="qcurve" smooth="yes"/>
      <point x="99" y="180"/>
      <point x="65" y="144"/>
      <point x="65" y="114" type="qcurve" smooth="yes"/>
      <point x="65" y="91"/>
      <point x="94" y="46"/>
      <point x="148" y="10"/>
      <point x="224" y="-12"/>
      <point x="271" y="-12" type="qcurve" smooth="yes"/>
    </contour>
  </outline>
</glyph>
<glyph name="four" format="2">
  <advance width="600"/>
  <unicode hex="0034"/>
  <note>
four
</note>
  <outline>
    <contour>
      <point x="369" y="0" type="line"/>
      <point x="451" y="0" type="line"/>
      <point x="451" y="161" type="line"/>
      <point x="552" y="161" type="line"/>
      <point x="552" y="225" type="line"/>
      <point x="451" y="225" type="line"/>
      <point x="451" y="698" type="line"/>
      <point x="374" y="698" type="line"/>
      <point x="41" y="219" type="line"/>
      <point x="41" y="161" type="line"/>
      <point x="369" y="161" type="line"/>
    </contour>
    <contour>
      <point x="365" y="604" type="line"/>
      <point x="369" y="604" type="line"/>
      <point x="369" y="225" type="line"/>
      <point x="100" y="225" type="line"/>
    </contour>
  </outline>
</glyph>
<glyph name="five" format="2">
  <advance width="600"/>
  <unicode hex="0035"/>
  <note>
five
</note>
  <outline>
    <contour>
      <point x="327" y="-12"/>
      <point x="420" y="20"/>
      <point x="488" y="78"/>
      <point x="525" y="159"/>
      <point x="525" y="207" type="qcurve" smooth="yes"/>
      <point x="525" y="263"/>
      <point x="491" y="346"/>
      <point x="432" y="402"/>
      <point x="353" y="429"/>
      <point x="307" y="429" type="qcurve" smooth="yes"/>
      <point x="250" y="429"/>
      <point x="172" y="377"/>
      <point x="152" y="341" type="qcurve"/>
      <point x="148" y="342" type="line"/>
      <point x="167" y="615" type="line"/>
      <point x="493" y="615" type="line"/>
      <point x="493" y="698" type="line"/>
      <point x="126" y="698" type="line"/>
      <point x="101" y="315" type="line"/>
      <point x="155" y="304" type="line"/>
      <point x="172" y="330"/>
      <point x="233" y="370"/>
      <point x="281" y="370" type="qcurve" smooth="yes"/>
      <point x="354" y="370"/>
      <point x="431" y="286"/>
      <point x="431" y="213" type="qcurve" smooth="yes"/>
      <point x="431" y="190" type="line" smooth="yes"/>
      <point x="431" y="119"/>
      <point x="349" y="37"/>
      <point x="265" y="37" type="qcurve" smooth="yes"/>
      <point x="227" y="37"/>
      <point x="172" y="49"/>
      <point x="155" y="59" type="qcurve"/>
      <point x="155" y="63" type="line"/>
      <point x="171" y="69"/>
      <point x="191" y="99"/>
      <point x="191" y="119" type="qcurve" smooth="yes"/>
      <point x="191" y="145"/>
      <point x="159" y="180"/>
      <point x="132" y="180" type="qcurve" smooth="yes"/>
      <point x="105" y="180"/>
      <point x="71" y="144"/>
      <point x="71" y="114" type="qcurve" smooth="yes"/>
      <point x="71" y="91"/>
      <point x="99" y="46"/>
      <point x="151" y="10"/>
      <point x="225" y="-12"/>
      <point x="270" y="-12" type="qcurve" smooth="yes"/>
    </contour>
  </outline>
</glyph>
<glyph name="six" format="2">
  <advance width="600"/>
  <unicode hex="0036"/>
  <note>
six
</note>
  <outline>
    <contour>
      <point x="351" y="-12"/>
      <point x="436" y="21"/>
      <point x="499" y="80"/>
      <point x="534" y="163"/>
      <point x="534" y="213" type="qcurve" smooth="yes"/>
      <point x="534" y="262"/>
      <point x="505" y="343"/>
      <point x="451" y="401"/>
      <point x="375" y="432"/>
      <point x="327" y="432" type="qcurve" smooth="yes"/>
      <point x="293" y="432"/>
      <point x="239" y="414"/>
      <point x="198" y="386"/>
      <point x="170" y="350"/>
      <point x="162" y="332" type="qcurve"/>
      <point x="156" y="333" type="line"/>
      <point x="162" y="397"/>
      <point x="208" y="509"/>
      <point x="284" y="597"/>
      <point x="389" y="657"/>
      <point x="453" y="669" type="qcurve"/>
      <point x="440" y="710" type="line"/>
      <point x="362" y="698"/>
      <point x="225" y="627"/>
      <point x="123" y="514"/>
      <point x="65" y="361"/>
      <point x="65" y="266" type="qcurve" smooth="yes"/>
      <point x="65" y="135"/>
      <point x="186" y="-12"/>
      <point x="301" y="-12" type="qcurve" smooth="yes"/>
    </contour>
    <contour>
      <point x="262" y="37"/>
      <point x="208" y="62"/>
      <point x="173" y="105"/>
      <point x="157" y="164"/>
      <point x="157" y="199" type="qcurve" smooth="yes"/>
      <point x="157" y="217" type="line" smooth="yes"/>
      <point x="157" y="251"/>
      <point x="173" y="311"/>
      <point x="208" y="354"/>
      <point x="262" y="379"/>
      <point x="300" y="379" type="qcurve" smooth="yes"/>
      <point x="338" y="379"/>
      <point x="392" y="354"/>
      <point x="427" y="311"/>
      <point x="443" y="251"/>
      <point x="443" y="217" type="qcurve" smooth="yes"/>
      <point x="443" y="199" type="line" smooth="yes"/>
      <point x="443" y="164"/>
      <point x="427" y="105"/>
      <point x="392" y="62"/>
      <point x="338" y="37"/>
      <point x="300" y="37" type="qcurve" smooth="yes"/>
    </contour>
  </outline>
</glyph>
<glyph name="seven" format="2">
  <advance width="600"/>
  <unicode hex="0037"/>
  <note>
seven
</note>
  <outline>
    <contour>
      <point x="188" y="0" type="line"/>
      <point x="259" y="0" type="line"/>
      <point x="528" y="638" type="line"/>
      <point x="528" y="698" type="line"/>
      <point x="69" y="698" type="line"/>
      <point x="69" y="499" type="line"/>
      <point x="119" y="499" type="line"/>
      <point x="119" y="615" type="line"/>
      <point x="468" y="615" type="line"/>
    </contour>
  </outline>
</glyph>
<glyph name="nine" format="2">
  <advance width="600"/>
  <unicode hex="0039"/>
  <note>
nine
</note>
  <outline>
    <contour>
      <point x="160" y="-12" type="line"/>
      <point x="238" y="0"/>
      <point x="375" y="71"/>
      <point x="477" y="184"/>
      <point x="535" y="337"/>
      <point x="535" y="432" type="qcurve" smooth="yes"/>
      <point x="535" y="563"/>
      <point x="414" y="710"/>
      <point x="299" y="710" type="qcurve" smooth="yes"/>
      <point x="249" y="710"/>
      <point x="164" y="677"/>
      <point x="101" y="618"/>
      <point x="66" y="535"/>
      <point x="66" y="485" type="qcurve" smooth="yes"/>
      <point x="66" y="435"/>
      <point x="95" y="355"/>
      <point x="149" y="297"/>
      <point x="225" y="266"/>
      <point x="273" y="266" type="qcurve" smooth="yes"/>
      <point x="307" y="266"/>
      <point x="361" y="284"/>
      <point x="402" y="312"/>
      <point x="430" y="348"/>
      <point x="438" y="366" type="qcurve"/>
      <point x="444" y="365" type="line"/>
      <point x="438" y="301"/>
      <point x="392" y="189"/>
      <point x="316" y="101"/>
      <point x="211" y="41"/>
      <point x="147" y="29" type="qcurve"/>
    </contour>
    <contour>
      <point x="262" y="319"/>
      <point x="208" y="344"/>
      <point x="173" y="387"/>
      <point x="157" y="446"/>
      <point x="157" y="481" type="qcurve" smooth="yes"/>
      <point x="157" y="499" type="line" smooth="yes"/>
      <point x="157" y="533"/>
      <point x="173" y="593"/>
      <point x="208" y="636"/>
      <point x="262" y="661"/>
      <point x="300" y="661" type="qcurve" smooth="yes"/>
      <point x="338" y="661"/>
      <point x="392" y="636"/>
      <point x="427" y="593"/>
      <point x="443" y="533"/>
      <point x="443" y="499" type="qcurve" smooth="yes"/>
      <point x="443" y="481" type="line" smooth="yes"/>
      <point x="443" y="446"/>
      <point x="427" y="387"/>
      <point x="392" y="344"/>
      <point x="338" y="319"/>
      <point x="300" y="319" type="qcurve" smooth="yes"/>
    </contour>
  </outline>
</glyph>
<glyph name="at" format="2">
  <advance width="923"/>
  <unicode hex="0040"/>
  <note>
at
</note>
  <outline>
    <contour>
      <point x="518" y="-121"/>
      <point x="628" y="-111"/>
      <point x="679" y="-104" type="qcurve"/>
      <point x="679" y="-74" type="line"/>
      <point x="454" y="-74" type="line" smooth="yes"/>
      <point x="381" y="-74"/>
      <point x="265" y="-24"/>
      <point x="183" y="65"/>
      <point x="139" y="189"/>
      <point x="139" y="263" type="qcurve" smooth="yes"/>
      <point x="139" y="322" type="line" smooth="yes"/>
      <point x="139" y="395"/>
      <point x="182" y="521"/>
      <point x="264" y="614"/>
      <point x="383" y="668"/>
      <point x="460" y="668" type="qcurve" smooth="yes"/>
      <point x="537" y="668"/>
      <point x="657" y="619"/>
      <point x="740" y="534"/>
      <point x="783" y="418"/>
      <point x="783" y="351" type="qcurve" smooth="yes"/>
      <point x="783" y="305" type="line" smooth="yes"/>
      <point x="783" y="204"/>
      <point x="732" y="108"/>
      <point x="681" y="108" type="qcurve" smooth="yes"/>
      <point x="622" y="108"/>
      <point x="622" y="184" type="qcurve" smooth="yes"/>
      <point x="622" y="500" type="line"/>
      <point x="585" y="500" type="line"/>
      <point x="557" y="431" type="line"/>
      <point x="554" y="431" type="line"/>
      <point x="540" y="463"/>
      <point x="486" y="509"/>
      <point x="440" y="509" type="qcurve" smooth="yes"/>
      <point x="406" y="509"/>
      <point x="346" y="482"/>
      <point x="300" y="428"/>
      <point x="273" y="345"/>
      <point x="273" y="289" type="qcurve" smooth="yes"/>
      <point x="273" y="233"/>
      <point x="300" y="150"/>
      <point x="346" y="96"/>
      <point x="406" y="69"/>
      <point x="440" y="69" type="qcurve" smooth="yes"/>
      <point x="486" y="69"/>
      <point x="544" y="117"/>
      <point x="563" y="156" type="qcurve"/>
      <point x="566" y="156" type="line"/>
      <point x="571" y="117"/>
      <point x="625" y="69"/>
      <point x="677" y="69" type="qcurve" smooth="yes"/>
      <point x="722" y="69"/>
      <point x="785" y="109"/>
      <point x="825" y="177"/>
      <point x="843" y="268"/>
      <point x="843" y="319" type="qcurve" smooth="yes"/>
      <point x="843" y="406"/>
      <point x="787" y="549"/>
      <point x="686" y="653"/>
      <point x="545" y="710"/>
      <point x="460" y="710" type="qcurve" smooth="yes"/>
      <point x="374" y="710"/>
      <point x="234" y="648"/>
      <point x="135" y="537"/>
      <point x="80" y="382"/>
      <point x="80" y="289" type="qcurve" smooth="yes"/>
      <point x="80" y="196"/>
      <point x="134" y="44"/>
      <point x="232" y="-63"/>
      <point x="369" y="-121"/>
      <point x="453" y="-121" type="qcurve" smooth="yes"/>
    </contour>
    <contour>
      <point x="397" y="120"/>
      <point x="346" y="185"/>
      <point x="346" y="239" type="qcurve" smooth="yes"/>
      <point x="346" y="339" type="line" smooth="yes"/>
      <point x="346" y="393"/>
      <point x="397" y="458"/>
      <point x="451" y="458" type="qcurve" smooth="yes"/>
      <point x="504" y="458"/>
      <point x="557" y="407"/>
      <point x="557" y="359" type="qcurve" smooth="yes"/>
      <point x="557" y="219" type="line" smooth="yes"/>
      <point x="557" y="171"/>
      <point x="504" y="120"/>
      <point x="451" y="120" type="qcurve" smooth="yes"/>
    </contour>
  </outline>
</glyph>
<glyph name="J" format="2">
  <advance width="457"/>
  <unicode hex="004A"/>
  <note>
J
</note>
  <anchor x="163" y="0" name="bottom"/>
  <anchor x="284" y="698" name="top"/>
  <outline>
    <contour>
      <point x="240" y="-12"/>
      <point x="337" y="73"/>
      <point x="337" y="159" type="qcurve" smooth="yes"/>
      <point x="337" y="652" type="line"/>
      <point x="412" y="652" type="line"/>
      <point x="412" y="698" type="line"/>
      <point x="156" y="698" type="line"/>
      <point x="156" y="652" type="line"/>
      <point x="251" y="652" type="line"/>
      <point x="251" y="151" type="line" smooth="yes"/>
      <point x="251" y="32"/>
      <point x="153" y="32" type="qcurve" smooth="yes"/>
      <point x="136" y="32"/>
      <point x="108" y="36"/>
      <point x="98" y="39" type="qcurve"/>
      <point x="98" y="42" type="line"/>
      <point x="109" y="46"/>
      <point x="129" y="71"/>
      <point x="129" y="91" type="qcurve" smooth="yes"/>
      <point x="129" y="117"/>
      <point x="101" y="149"/>
      <point x="76" y="149" type="qcurve" smooth="yes"/>
      <point x="47" y="149"/>
      <point x="15" y="112"/>
      <point x="15" y="84" type="qcurve" smooth="yes"/>
      <point x="15" y="42"/>
      <point x="84" y="-12"/>
      <point x="153" y="-12" type="qcurve" smooth="yes"/>
    </contour>
  </outline>
</glyph>
<glyph name="K" format="2">
  <advance width="707"/>
  <unicode hex="004B"/>
  <note>
K
</note>
  <anchor x="358" y="0" name="bottom"/>
  <anchor x="368" y="698" name="top"/>
  <outline>
    <contour>
      <point x="55" y="0" type="line"/>
      <point x="291" y="0" type="line"/>
      <point x="291" y="46" type="line"/>
      <point x="216" y="46" type="line"/>
      <point x="216" y="250" type="line"/>
      <point x="315" y="357" type="line"/>
      <point x="517" y="46" type="line"/>
      <point x="446" y="46" type="line"/>
      <point x="446" y="0" type="line"/>
      <point x="685" y="0" type="line"/>
      <point x="685" y="46" type="line"/>
      <point x="616" y="46" type="line"/>
      <point x="375" y="419" type="line"/>
      <point x="591" y="652" type="line"/>
      <point x="658" y="652" type="line"/>
      <point x="658" y="698" type="line"/>
      <point x="443" y="698" type="line"/>
      <point x="443" y="652" type="line"/>
      <point x="523" y="652" type="line"/>
      <point x="313" y="423" type="line"/>
      <point x="220" y="318" type="line"/>
      <point x="216" y="318" type="line"/>
      <point x="216" y="652" type="line"/>
      <point x="291" y="652" type="line"/>
      <point x="291" y="698" type="line"/>
      <point x="55" y="698" type="line"/>
      <point x="55" y="652" type="line"/>
      <point x="130" y="652" type="line"/>
      <point x="130" y="46" type="line"/>
      <point x="55" y="46" type="line"/>
    </contour>
  </outline>
</glyph>
<glyph name="M" format="2">
  <advance width="872"/>
  <unicode hex="004D"/>
  <note>
M
</note>
  <anchor x="416" y="0" name="bottom"/>
  <anchor x="440" y="698" name="top"/>
  <outline>
    <contour>
      <point x="55" y="0" type="line"/>
      <point x="260" y="0" type="line"/>
      <point x="260" y="46" type="line"/>
      <point x="185" y="46" type="line"/>
      <point x="185" y="597" type="line"/>
      <point x="189" y="597" type="line"/>
      <point x="245" y="475" type="line"/>
      <point x="416" y="117" type="line"/>
      <point x="608" y="500" type="line"/>
      <point x="652" y="597" type="line"/>
      <point x="656" y="597" type="line"/>
      <point x="656" y="46" type="line"/>
      <point x="581" y="46" type="line"/>
      <point x="581" y="0" type="line"/>
      <point x="817" y="0" type="line"/>
      <point x="817" y="46" type="line"/>
      <point x="742" y="46" type="line"/>
      <point x="742" y="652" type="line"/>
      <point x="817" y="652" type="line"/>
      <point x="817" y="698" type="line"/>
      <point x="652" y="698" type="line"/>
      <point x="438" y="266" type="line"/>
      <point x="435" y="266" type="line"/>
      <point x="231" y="698" type="line"/>
      <point x="55" y="698" type="line"/>
      <point x="55" y="652" type="line"/>
      <point x="130" y="652" type="line"/>
      <point x="130" y="46" type="line"/>
      <point x="55" y="46" type="line"/>
    </contour>
  </outline>
</glyph>
<glyph name="N" format="2">
  <advance width="778"/>
  <unicode hex="004E"/>
  <note>
N
</note>
  <anchor x="393" y="0" name="bottom"/>
  <anchor x="392" y="698" name="top"/>
  <outline>
    <contour>
      <point x="55" y="0" type="line"/>
      <point x="260" y="0" type="line"/>
      <point x="260" y="46" type="line"/>
      <point x="185" y="46" type="line"/>
      <point x="185" y="601" type="line"/>
      <point x="189" y="601" type="line"/>
      <point x="591" y="0" type="line"/>
      <point x="658" y="0" type="line"/>
      <point x="658" y="652" type="line"/>
      <point x="733" y="652" type="line"/>
      <point x="733" y="698" type="line"/>
      <point x="528" y="698" type="line"/>
      <point x="528" y="652" type="line"/>
      <point x="603" y="652" type="line"/>
      <point x="603" y="138" type="line"/>
      <point x="599" y="138" type="line"/>
      <point x="224" y="698" type="line"/>
      <point x="55" y="698" type="line"/>
      <point x="55" y="652" type="line"/>
      <point x="130" y="652" type="line"/>
      <point x="130" y="46" type="line"/>
      <point x="55" y="46" type="line"/>
    </contour>
  </outline>
</glyph>
<glyph name="P" format="2">
  <advance width="625"/>
  <unicode hex="0050"/>
  <note>
P
</note>
  <anchor x="173" y="0" name="bottom"/>
  <anchor x="300" y="698" name="top"/>
  <outline>
    <contour>
      <point x="55" y="0" type="line"/>
      <point x="311" y="0" type="line"/>
      <point x="311" y="46" type="line"/>
      <point x="216" y="46" type="line"/>
      <point x="216" y="320" type="line"/>
      <point x="379" y="320" type="line" smooth="yes"/>
      <point x="473" y="320"/>
      <point x="577" y="420"/>
      <point x="577" y="511" type="qcurve" smooth="yes"/>
      <point x="577" y="603"/>
      <point x="476" y="698"/>
      <point x="381" y="698" type="qcurve" smooth="yes"/>
      <point x="55" y="698" type="line"/>
      <point x="55" y="652" type="line"/>
      <point x="130" y="652" type="line"/>
      <point x="130" y="46" type="line"/>
      <point x="55" y="46" type="line"/>
    </contour>
    <contour>
      <point x="216" y="649" type="line"/>
      <point x="374" y="649" type="line" smooth="yes"/>
      <point x="428" y="649"/>
      <point x="485" y="581"/>
      <point x="485" y="532" type="qcurve" smooth="yes"/>
      <point x="485" y="486" type="line" smooth="yes"/>
      <point x="485" y="437"/>
      <point x="428" y="369"/>
      <point x="374" y="369" type="qcurve" smooth="yes"/>
      <point x="216" y="369" type="line"/>
    </contour>
  </outline>
</glyph>
<glyph name="R" format="2">
  <advance width="672"/>
  <unicode hex="0052"/>
  <note>
R
</note>
  <anchor x="381" y="0" name="bottom"/>
  <anchor x="310" y="698" name="top"/>
  <outline>
    <contour>
      <point x="55" y="0" type="line"/>
      <point x="291" y="0" type="line"/>
      <point x="291" y="46" type="line"/>
      <point x="216" y="46" type="line"/>
      <point x="216" y="321" type="line"/>
      <point x="334" y="321" type="line"/>
      <point x="458" y="90" type="line" smooth="yes"/>
      <point x="470" y="68"/>
      <point x="493" y="34"/>
      <point x="523" y="12"/>
      <point x="562" y="0"/>
      <point x="591" y="0" type="qcurve" smooth="yes"/>
      <point x="655" y="0" type="line"/>
      <point x="655" y="46" type="line"/>
      <point x="646" y="46" type="line" smooth="yes"/>
      <point x="609" y="46"/>
      <point x="559" y="80"/>
      <point x="539" y="116" type="qcurve" smooth="yes"/>
      <point x="422" y="333" type="line"/>
      <point x="498" y="347"/>
      <point x="577" y="442"/>
      <point x="577" y="513" type="qcurve" smooth="yes"/>
      <point x="577" y="605"/>
      <point x="474" y="698"/>
      <point x="381" y="698" type="qcurve" smooth="yes"/>
      <point x="55" y="698" type="line"/>
      <point x="55" y="652" type="line"/>
      <point x="130" y="652" type="line"/>
      <point x="130" y="46" type="line"/>
      <point x="55" y="46" type="line"/>
    </contour>
    <contour>
      <point x="216" y="649" type="line"/>
      <point x="373" y="649" type="line" smooth="yes"/>
      <point x="427" y="649"/>
      <point x="485" y="581"/>
      <point x="485" y="532" type="qcurve" smooth="yes"/>
      <point x="485" y="486" type="line" smooth="yes"/>
      <point x="485" y="437"/>
      <point x="427" y="370"/>
      <point x="373" y="370" type="qcurve" smooth="yes"/>
      <point x="216" y="370" type="line"/>
    </contour>
  </outline>
</glyph>
<glyph name="S" format="2">
  <advance width="588"/>
  <unicode hex="0053"/>
  <note>
S
</note>
  <anchor x="294" y="0" name="bottom"/>
  <anchor x="291" y="698" name="top"/>
  <outline>
    <contour>
      <point x="350" y="-12"/>
      <point x="435" y="19"/>
      <point x="493" y="75"/>
      <point x="523" y="152"/>
      <point x="523" y="197" type="qcurve" smooth="yes"/>
      <point x="523" y="275"/>
      <point x="425" y="371"/>
      <point x="334" y="395" type="qcurve" smooth="yes"/>
      <point x="283" y="408" type="line" smooth="yes"/>
      <point x="215" y="426"/>
      <point x="152" y="487"/>
      <point x="152" y="541" type="qcurve" smooth="yes"/>
      <point x="152" y="593"/>
      <point x="222" y="657"/>
      <point x="292" y="657" type="qcurve" smooth="yes"/>
      <point x="334" y="657"/>
      <point x="392" y="642"/>
      <point x="428" y="614"/>
      <point x="443" y="574"/>
      <point x="443" y="549" type="qcurve" smooth="yes"/>
      <point x="443" y="503" type="line"/>
      <point x="515" y="503" type="line"/>
      <point x="515" y="698" type="line"/>
      <point x="443" y="698" type="line"/>
      <point x="443" y="644" type="line"/>
      <point x="437" y="644" type="line"/>
      <point x="422" y="675"/>
      <point x="349" y="710"/>
      <point x="292" y="710" type="qcurve" smooth="yes"/>
      <point x="243" y="710"/>
      <point x="162" y="684"/>
      <point x="104" y="636"/>
      <point x="72" y="567"/>
      <point x="72" y="525" type="qcurve" smooth="yes"/>
      <point x="72" y="441"/>
      <point x="174" y="345"/>
      <point x="267" y="321" type="qcurve" smooth="yes"/>
      <point x="322" y="307" type="line" smooth="yes"/>
      <point x="385" y="290"/>
      <point x="444" y="230"/>
      <point x="444" y="177" type="qcurve" smooth="yes"/>
      <point x="444" y="115"/>
      <point x="367" y="41"/>
      <point x="280" y="41" type="qcurve" smooth="yes"/>
      <point x="239" y="41"/>
      <point x="182" y="59"/>
      <point x="147" y="91"/>
      <point x="132" y="134"/>
      <point x="132" y="159" type="qcurve" smooth="yes"/>
      <point x="132" y="205" type="line"/>
      <point x="60" y="205" type="line"/>
      <point x="60" y="0" type="line"/>
      <point x="132" y="0" type="line"/>
      <point x="132" y="60" type="line"/>
      <point x="137" y="60" type="line"/>
      <point x="153" y="27"/>
      <point x="232" y="-12"/>
      <point x="295" y="-12" type="qcurve" smooth="yes"/>
    </contour>
  </outline>
</glyph>
<glyph name="V" format="2">
  <advance width="664"/>
  <unicode hex="0056"/>
  <note>
V
</note>
  <anchor x="336" y="0" name="bottom"/>
  <anchor x="349" y="698" name="top"/>
  <outline>
    <contour>
      <point x="289" y="0" type="line"/>
      <point x="375" y="0" type="line"/>
      <point x="590" y="652" type="line"/>
      <point x="643" y="652" type="line"/>
      <point x="643" y="698" type="line"/>
      <point x="440" y="698" type="line"/>
      <point x="440" y="652" type="line"/>
      <point x="530" y="652" type="line"/>
      <point x="432" y="343" type="line"/>
      <point x="351" y="86" type="line"/>
      <point x="347" y="86" type="line"/>
      <point x="268" y="342" type="line"/>
      <point x="165" y="652" type="line"/>
      <point x="255" y="652" type="line"/>
      <point x="255" y="698" type="line"/>
      <point x="21" y="698" type="line"/>
      <point x="21" y="652" type="line"/>
      <point x="74" y="652" type="line"/>
    </contour>
  </outline>
</glyph>
<glyph name="X" format="2">
  <advance width="669"/>
  <unicode hex="0058"/>
  <note>
X
</note>
  <anchor x="313" y="0" name="bottom"/>
  <anchor x="356" y="698" name="top"/>
  <outline>
    <contour>
      <point x="18" y="0" type="line"/>
      <point x="214" y="0" type="line"/>
      <point x="214" y="46" type="line"/>
      <point x="148" y="46" type="line"/>
      <point x="318" y="297" type="line"/>
      <point x="322" y="297" type="line"/>
      <point x="484" y="46" type="line"/>
      <point x="410" y="46" type="line"/>
      <point x="410" y="0" type="line"/>
      <point x="649" y="0" type="line"/>
      <point x="649" y="46" type="line"/>
      <point x="589" y="46" type="line"/>
      <point x="378" y="363" type="line"/>
      <point x="584" y="652" type="line"/>
      <point x="644" y="652" type="line"/>
      <point x="644" y="698" type="line"/>
      <point x="450" y="698" type="line"/>
      <point x="450" y="652" type="line"/>
      <point x="516" y="652" type="line"/>
      <point x="350" y="405" type="line"/>
      <point x="346" y="405" type="line"/>
      <point x="187" y="652" type="line"/>
      <point x="261" y="652" type="line"/>
      <point x="261" y="698" type="line"/>
      <point x="23" y="698" type="line"/>
      <point x="23" y="652" type="line"/>
      <point x="83" y="652" type="line"/>
      <point x="289" y="340" type="line"/>
      <point x="78" y="46" type="line"/>
      <point x="18" y="46" type="line"/>
    </contour>
  </outline>
</glyph>
<glyph name="Y" format="2">
  <advance width="634"/>
  <unicode hex="0059"/>
  <note>
Y
</note>
  <anchor x="318" y="0" name="bottom"/>
  <anchor x="336" y="698" name="top"/>
  <outline>
    <contour>
      <point x="179" y="0" type="line"/>
      <point x="455" y="0" type="line"/>
      <point x="455" y="46" type="line"/>
      <point x="360" y="46" type="line"/>
      <point x="360" y="286" type="line"/>
      <point x="561" y="652" type="line"/>
      <point x="614" y="652" type="line"/>
      <point x="614" y="698" type="line"/>
      <point x="411" y="698" type="line"/>
      <point x="411" y="652" type="line"/>
      <point x="501" y="652" type="line"/>
      <point x="336" y="342" type="line"/>
      <point x="332" y="342" type="line"/>
      <point x="171" y="652" type="line"/>
      <point x="261" y="652" type="line"/>
      <point x="261" y="698" type="line"/>
      <point x="20" y="698" type="line"/>
      <point x="20" y="652" type="line"/>
      <point x="73" y="652" type="line"/>
      <point x="274" y="281" type="line"/>
      <point x="274" y="46" type="line"/>
      <point x="179" y="46" type="line"/>
    </contour>
  </outline>
</glyph>
<glyph name="bracketleft" format="2">
  <advance width="284"/>
  <unicode hex="005B"/>
  <note>
bracketleft
</note>
  <outline>
    <contour>
      <point x="61" y="-138" type="line"/>
      <point x="255" y="-138" type="line"/>
      <point x="255" y="-93" type="line"/>
      <point x="137" y="-93" type="line"/>
      <point x="137" y="715" type="line"/>
      <point x="255" y="715" type="line"/>
      <point x="255" y="760" type="line"/>
      <point x="61" y="760" type="line"/>
    </contour>
  </outline>
</glyph>
<glyph name="backslash" format="2">
  <advance width="365"/>
  <unicode hex="005C"/>
  <note>
backslash
</note>
  <outline>
    <contour>
      <point x="300" y="-143" type="line"/>
      <point x="357" y="-143" type="line"/>
      <point x="98" y="748" type="line"/>
      <point x="41" y="748" type="line"/>
    </contour>
  </outline>
</glyph>
<glyph name="c" format="2">
  <advance width="516"/>
  <unicode hex="0063"/>
  <note>
c
</note>
  <anchor x="289" y="0" name="bottom"/>
  <anchor x="280" y="540" name="top"/>
  <outline>
    <contour>
      <point x="320" y="-12"/>
      <point x="385" y="11"/>
      <point x="433" y="48"/>
      <point x="467" y="97"/>
      <point x="476" y="123" type="qcurve"/>
      <point x="444" y="144" type="line"/>
      <point x="423" y="103"/>
      <point x="353" y="52"/>
      <point x="292" y="52" type="qcurve" smooth="yes"/>
      <point x="256" y="52"/>
      <point x="199" y="78"/>
      <point x="158" y="126"/>
      <point x="136" y="193"/>
      <point x="136" y="234" type="qcurve" smooth="yes"/>
      <point x="136" y="308" type="line" smooth="yes"/>
      <point x="136" y="345"/>
      <point x="160" y="408"/>
      <point x="202" y="455"/>
      <point x="261" y="481"/>
      <point x="296" y="481" type="qcurve" smooth="yes"/>
      <point x="328" y="481"/>
      <point x="369" y="473"/>
      <point x="382" y="465" type="qcurve"/>
      <point x="382" y="462" type="line"/>
      <point x="362" y="453"/>
      <point x="340" y="421"/>
      <point x="340" y="399" type="qcurve" smooth="yes"/>
      <point x="340" y="374"/>
      <point x="370" y="338"/>
      <point x="401" y="338" type="qcurve" smooth="yes"/>
      <point x="430" y="338"/>
      <point x="463" y="374"/>
      <point x="463" y="406" type="qcurve" smooth="yes"/>
      <point x="463" y="459"/>
      <point x="368" y="528"/>
      <point x="287" y="528" type="qcurve" smooth="yes"/>
      <point x="233" y="528"/>
      <point x="144" y="490"/>
      <point x="80" y="420"/>
      <point x="45" y="320"/>
      <point x="45" y="258" type="qcurve" smooth="yes"/>
      <point x="45" y="197"/>
      <point x="77" y="98"/>
      <point x="137" y="27"/>
      <point x="224" y="-12"/>
      <point x="280" y="-12" type="qcurve" smooth="yes"/>
    </contour>
  </outline>
</glyph>
<glyph name="d" format="2">
  <advance width="608"/>
  <unicode hex="0064"/>
  <note>
d
</note>
  <anchor x="268" y="0" name="bottom"/>
  <anchor x="545" y="758" name="topright"/>
  <outline>
    <contour>
      <point x="322" y="-12"/>
      <point x="396" y="41"/>
      <point x="413" y="78" type="qcurve"/>
      <point x="417" y="78" type="line"/>
      <point x="417" y="-12" type="line"/>
      <point x="573" y="18" type="line"/>
      <point x="573" y="52" type="line"/>
      <point x="499" y="65" type="line"/>
      <point x="499" y="760" type="line"/>
      <point x="342" y="731" type="line"/>
      <point x="342" y="696" type="line"/>
      <point x="417" y="683" type="line"/>
      <point x="417" y="439" type="line"/>
      <point x="413" y="439" type="line"/>
      <point x="396" y="476"/>
      <point x="321" y="528"/>
      <point x="261" y="528" type="qcurve" smooth="yes"/>
      <point x="165" y="528"/>
      <point x="50" y="389"/>
      <point x="50" y="258" type="qcurve" smooth="yes"/>
      <point x="50" y="127"/>
      <point x="165" y="-12"/>
      <point x="261" y="-12" type="qcurve" smooth="yes"/>
    </contour>
    <contour>
      <point x="216" y="45"/>
      <point x="139" y="138"/>
      <point x="139" y="216" type="qcurve" smooth="yes"/>
      <point x="139" y="300" type="line" smooth="yes"/>
      <point x="139" y="378"/>
      <point x="216" y="471"/>
      <point x="285" y="471" type="qcurve" smooth="yes"/>
      <point x="309" y="471"/>
      <point x="357" y="457"/>
      <point x="394" y="431"/>
      <point x="417" y="392"/>
      <point x="417" y="368" type="qcurve" smooth="yes"/>
      <point x="417" y="148" type="line" smooth="yes"/>
      <point x="417" y="124"/>
      <point x="394" y="85"/>
      <point x="357" y="59"/>
      <point x="309" y="45"/>
      <point x="285" y="45" type="qcurve" smooth="yes"/>
    </contour>
  </outline>
</glyph>
<glyph name="e" format="2">
  <advance width="536"/>
  <unicode hex="0065"/>
  <note>
e
</note>
  <anchor x="277" y="0" name="bottom"/>
  <anchor x="355" y="0" name="ogonek"/>
  <anchor x="273" y="540" name="top"/>
  <outline>
    <contour>
      <point x="320" y="-12"/>
      <point x="386" y="11"/>
      <point x="436" y="48"/>
      <point x="471" y="97"/>
      <point x="481" y="123" type="qcurve"/>
      <point x="448" y="144" type="line"/>
      <point x="427" y="103"/>
      <point x="354" y="52"/>
      <point x="292" y="52" type="qcurve" smooth="yes"/>
      <point x="221" y="52"/>
      <point x="136" y="150"/>
      <point x="136" y="235" type="qcurve" smooth="yes"/>
      <point x="136" y="261" type="line"/>
      <point x="491" y="261" type="line"/>
      <point x="491" y="284" type="line" smooth="yes"/>
      <point x="491" y="337"/>
      <point x="461" y="427"/>
      <point x="406" y="492"/>
      <point x="326" y="528"/>
      <point x="275" y="528" type="qcurve" smooth="yes"/>
      <point x="225" y="528"/>
      <point x="141" y="489"/>
      <point x="80" y="417"/>
      <point x="45" y="318"/>
      <point x="45" y="258" type="qcurve" smooth="yes"/>
      <point x="45" y="197"/>
      <point x="77" y="97"/>
      <point x="137" y="27"/>
      <point x="224" y="-12"/>
      <point x="279" y="-12" type="qcurve" smooth="yes"/>
    </contour>
    <contour>
      <point x="136" y="319" type="line" smooth="yes"/>
      <point x="136" y="354"/>
      <point x="154" y="413"/>
      <point x="189" y="457"/>
      <point x="241" y="481"/>
      <point x="275" y="481" type="qcurve" smooth="yes"/>
      <point x="309" y="481"/>
      <point x="358" y="456"/>
      <point x="390" y="412"/>
      <point x="405" y="352"/>
      <point x="405" y="317" type="qcurve" smooth="yes"/>
      <point x="405" y="307" type="line"/>
      <point x="136" y="307" type="line"/>
    </contour>
  </outline>
</glyph>
<glyph name="i" format="2">
  <advance width="315"/>
  <unicode hex="0069"/>
  <note>
i
</note>
  <anchor x="166" y="0" name="bottom"/>
  <anchor x="281" y="0" name="ogonek"/>
  <outline>
    <contour>
      <point x="191" y="635"/>
      <point x="219" y="666"/>
      <point x="219" y="688" type="qcurve" smooth="yes"/>
      <point x="219" y="693" type="line" smooth="yes"/>
      <point x="219" y="715"/>
      <point x="191" y="746"/>
      <point x="165" y="746" type="qcurve" smooth="yes"/>
      <point x="139" y="746"/>
      <point x="112" y="715"/>
      <point x="112" y="693" type="qcurve" smooth="yes"/>
      <point x="112" y="688" type="line" smooth="yes"/>
      <point x="112" y="666"/>
      <point x="139" y="635"/>
      <point x="165" y="635" type="qcurve" smooth="yes"/>
    </contour>
    <contour>
      <point x="50" y="0" type="line"/>
      <point x="280" y="0" type="line"/>
      <point x="280" y="46" type="line"/>
      <point x="206" y="46" type="line"/>
      <point x="206" y="528" type="line"/>
      <point x="50" y="498" type="line"/>
      <point x="50" y="464" type="line"/>
      <point x="124" y="451" type="line"/>
      <point x="124" y="46" type="line"/>
      <point x="50" y="46" type="line"/>
    </contour>
  </outline>
</glyph>
<glyph name="l" format="2">
  <advance width="300"/>
  <unicode hex="006C"/>
  <note>
l
</note>
  <anchor x="151" y="0" name="bottom"/>
  <anchor x="150" y="742" name="top"/>
  <anchor x="238" y="758" name="topright"/>
  <outline>
    <contour>
      <point x="35" y="0" type="line"/>
      <point x="265" y="0" type="line"/>
      <point x="265" y="46" type="line"/>
      <point x="191" y="46" type="line"/>
      <point x="191" y="760" type="line"/>
      <point x="35" y="731" type="line"/>
      <point x="35" y="696" type="line"/>
      <point x="109" y="683" type="line"/>
      <point x="109" y="46" type="line"/>
      <point x="35" y="46" type="line"/>
    </contour>
  </outline>
</glyph>
<glyph name="n" format="2">
  <advance width="639"/>
  <unicode hex="006E"/>
  <note>
n
</note>
  <anchor x="328" y="0" name="bottom"/>
  <anchor x="336" y="540" name="top"/>
  <outline>
    <contour>
      <point x="50" y="0" type="line"/>
      <point x="280" y="0" type="line"/>
      <point x="280" y="46" type="line"/>
      <point x="206" y="46" type="line"/>
      <point x="206" y="369" type="line" smooth="yes"/>
      <point x="206" y="395"/>
      <point x="227" y="433"/>
      <point x="262" y="459"/>
      <point x="305" y="471"/>
      <point x="327" y="471" type="qcurve" smooth="yes"/>
      <point x="448" y="471"/>
      <point x="448" y="327" type="qcurve" smooth="yes"/>
      <point x="448" y="46" type="line"/>
      <point x="374" y="46" type="line"/>
      <point x="374" y="0" type="line"/>
      <point x="604" y="0" type="line"/>
      <point x="604" y="46" type="line"/>
      <point x="530" y="46" type="line"/>
      <point x="530" y="334" type="line" smooth="yes"/>
      <point x="530" y="431"/>
      <point x="449" y="528"/>
      <point x="356" y="528" type="qcurve" smooth="yes"/>
      <point x="326" y="528"/>
      <point x="276" y="511"/>
      <point x="239" y="485"/>
      <point x="214" y="453"/>
      <point x="208" y="438" type="qcurve"/>
      <point x="204" y="438" type="line"/>
      <point x="204" y="528" type="line"/>
      <point x="50" y="498" type="line"/>
      <point x="50" y="464" type="line"/>
      <point x="124" y="451" type="line"/>
      <point x="124" y="46" type="line"/>
      <point x="50" y="46" type="line"/>
    </contour>
  </outline>
</glyph>
<glyph name="o" format="2">
  <advance width="564"/>
  <unicode hex="006F"/>
  <note>
o
</note>
  <anchor x="282" y="0" name="bottom"/>
  <anchor x="282" y="540" name="top"/>
  <outline>
    <contour>
      <point x="244" y="37"/>
      <point x="190" y="62"/>
      <point x="155" y="107"/>
      <point x="138" y="168"/>
      <point x="138" y="204" type="qcurve" smooth="yes"/>
      <point x="138" y="312" type="line" smooth="yes"/>
      <point x="138" y="348"/>
      <point x="155" y="409"/>
      <point x="190" y="454"/>
      <point x="244" y="479"/>
      <point x="282" y="479" type="qcurve" smooth="yes"/>
      <point x="319" y="479"/>
      <point x="374" y="454"/>
      <point x="409" y="409"/>
      <point x="426" y="348"/>
      <point x="426" y="312" type="qcurve" smooth="yes"/>
      <point x="426" y="204" type="line" smooth="yes"/>
      <point x="426" y="168"/>
      <point x="409" y="107"/>
      <point x="374" y="62"/>
      <point x="319" y="37"/>
      <point x="282" y="37" type="qcurve" smooth="yes"/>
    </contour>
    <contour>
      <point x="335" y="-12"/>
      <point x="423" y="26"/>
      <point x="485" y="97"/>
      <point x="519" y="196"/>
      <point x="519" y="258" type="qcurve" smooth="yes"/>
      <point x="519" y="319"/>
      <point x="485" y="419"/>
      <point x="423" y="490"/>
      <point x="335" y="528"/>
      <point x="282" y="528" type="qcurve" smooth="yes"/>
      <point x="229" y="528"/>
      <point x="141" y="490"/>
      <point x="79" y="419"/>
      <point x="45" y="319"/>
      <point x="45" y="258" type="qcurve" smooth="yes"/>
      <point x="45" y="196"/>
      <point x="79" y="97"/>
      <point x="141" y="26"/>
      <point x="229" y="-12"/>
      <point x="282" y="-12" type="qcurve" smooth="yes"/>
    </contour>
  </outline>
</glyph>
<glyph name="p" format="2">
  <advance width="613"/>
  <unicode hex="0070"/>
  <note>
p
</note>
  <anchor x="339" y="540" name="top"/>
  <outline>
    <contour>
      <point x="40" y="-200" type="line"/>
      <point x="290" y="-200" type="line"/>
      <point x="290" y="-154" type="line"/>
      <point x="196" y="-154" type="line"/>
      <point x="196" y="77" type="line"/>
      <point x="200" y="77" type="line"/>
      <point x="217" y="40"/>
      <point x="292" y="-12"/>
      <point x="352" y="-12" type="qcurve" smooth="yes"/>
      <point x="448" y="-12"/>
      <point x="563" y="127"/>
      <point x="563" y="258" type="qcurve" smooth="yes"/>
      <point x="563" y="389"/>
      <point x="448" y="528"/>
      <point x="352" y="528" type="qcurve" smooth="yes"/>
      <point x="291" y="528"/>
      <point x="217" y="475"/>
      <point x="200" y="438" type="qcurve"/>
      <point x="196" y="438" type="line"/>
      <point x="196" y="528" type="line"/>
      <point x="40" y="498" type="line"/>
      <point x="40" y="464" type="line"/>
      <point x="114" y="451" type="line"/>
      <point x="114" y="-154" type="line"/>
      <point x="40" y="-154" type="line"/>
    </contour>
    <contour>
      <point x="304" y="45"/>
      <point x="256" y="59"/>
      <point x="219" y="85"/>
      <point x="196" y="124"/>
      <point x="196" y="148" type="qcurve" smooth="yes"/>
      <point x="196" y="368" type="line" smooth="yes"/>
      <point x="196" y="392"/>
      <point x="219" y="431"/>
      <point x="256" y="457"/>
      <point x="304" y="471"/>
      <point x="328" y="471" type="qcurve" smooth="yes"/>
      <point x="397" y="471"/>
      <point x="474" y="378"/>
      <point x="474" y="300" type="qcurve" smooth="yes"/>
      <point x="474" y="216" type="line" smooth="yes"/>
      <point x="474" y="138"/>
      <point x="397" y="45"/>
      <point x="328" y="45" type="qcurve" smooth="yes"/>
    </contour>
  </outline>
</glyph>
<glyph name="r" format="2">
  <advance width="443"/>
  <unicode hex="0072"/>
  <note>
r
</note>
  <anchor x="166" y="0" name="bottom"/>
  <anchor x="263" y="540" name="top"/>
  <outline>
    <contour>
      <point x="50" y="0" type="line"/>
      <point x="300" y="0" type="line"/>
      <point x="300" y="46" type="line"/>
      <point x="206" y="46" type="line"/>
      <point x="206" y="368" type="line" smooth="yes"/>
      <point x="206" y="389"/>
      <point x="227" y="431"/>
      <point x="260" y="464"/>
      <point x="302" y="485"/>
      <point x="323" y="485" type="qcurve" smooth="yes"/>
      <point x="332" y="485"/>
      <point x="344" y="484"/>
      <point x="348" y="483" type="qcurve"/>
      <point x="348" y="481" type="line"/>
      <point x="337" y="479"/>
      <point x="320" y="454"/>
      <point x="320" y="434" type="qcurve" smooth="yes"/>
      <point x="320" y="411"/>
      <point x="352" y="382"/>
      <point x="379" y="382" type="qcurve" smooth="yes"/>
      <point x="403" y="382"/>
      <point x="433" y="416"/>
      <point x="433" y="446" type="qcurve" smooth="yes"/>
      <point x="433" y="486"/>
      <point x="380" y="528"/>
      <point x="336" y="528" type="qcurve" smooth="yes"/>
      <point x="309" y="528"/>
      <point x="268" y="512"/>
      <point x="237" y="486"/>
      <point x="216" y="454"/>
      <point x="209" y="438" type="qcurve"/>
      <point x="204" y="438" type="line"/>
      <point x="204" y="528" type="line"/>
      <point x="50" y="498" type="line"/>
      <point x="50" y="464" type="line"/>
      <point x="124" y="451" type="line"/>
      <point x="124" y="46" type="line"/>
      <point x="50" y="46" type="line"/>
    </contour>
  </outline>
</glyph>
<glyph name="t" format="2">
  <advance width="353"/>
  <unicode hex="0074"/>
  <note>
t
</note>
  <anchor x="215" y="0" name="bottom"/>
  <anchor x="243" y="758" name="topright"/>
  <outline>
    <contour>
      <point x="219" y="-6"/>
      <point x="255" y="-3"/>
      <point x="288" y="3"/>
      <point x="315" y="11"/>
      <point x="324" y="16" type="qcurve"/>
      <point x="324" y="49" type="line"/>
      <point x="191" y="49" type="line"/>
      <point x="191" y="467" type="line"/>
      <point x="324" y="467" type="line"/>
      <point x="324" y="516" type="line"/>
      <point x="191" y="516" type="line"/>
      <point x="191" y="650" type="line"/>
      <point x="146" y="650" type="line"/>
      <point x="123" y="561" type="line" smooth="yes"/>
      <point x="120" y="550"/>
      <point x="113" y="533"/>
      <point x="98" y="522"/>
      <point x="73" y="516"/>
      <point x="52" y="516" type="qcurve" smooth="yes"/>
      <point x="43" y="516" type="line"/>
      <point x="43" y="467" type="line"/>
      <point x="109" y="467" type="line"/>
      <point x="109" y="89" type="line" smooth="yes"/>
      <point x="109" y="37"/>
      <point x="149" y="-6"/>
      <point x="202" y="-6" type="qcurve" smooth="yes"/>
    </contour>
  </outline>
</glyph>
<glyph name="v" format="2">
  <advance width="534"/>
  <unicode hex="0076"/>
  <note>
v
</note>
  <anchor x="267" y="0" name="bottom"/>
  <anchor x="282" y="540" name="top"/>
  <outline>
    <contour>
      <point x="236" y="0" type="line"/>
      <point x="299" y="0" type="line"/>
      <point x="480" y="470" type="line"/>
      <point x="532" y="470" type="line"/>
      <point x="532" y="516" type="line"/>
      <point x="350" y="516" type="line"/>
      <point x="350" y="470" type="line"/>
      <point x="422" y="470" type="line"/>
      <point x="287" y="92" type="line"/>
      <point x="283" y="92" type="line"/>
      <point x="144" y="470" type="line"/>
      <point x="216" y="470" type="line"/>
      <point x="216" y="516" type="line"/>
      <point x="2" y="516" type="line"/>
      <point x="2" y="470" type="line"/>
      <point x="54" y="470" type="line"/>
    </contour>
  </outline>
</glyph>
<glyph name="w" format="2">
  <advance width="777"/>
  <unicode hex="0077"/>
  <note>
w
</note>
  <anchor x="388" y="0" name="bottom"/>
  <anchor x="409" y="540" name="top"/>
  <outline>
    <contour>
      <point x="190" y="0" type="line"/>
      <point x="270" y="0" type="line"/>
      <point x="391" y="405" type="line"/>
      <point x="395" y="405" type="line"/>
      <point x="506" y="0" type="line"/>
      <point x="586" y="0" type="line"/>
      <point x="717" y="470" type="line"/>
      <point x="769" y="470" type="line"/>
      <point x="769" y="516" type="line"/>
      <point x="596" y="516" type="line"/>
      <point x="596" y="470" type="line"/>
      <point x="668" y="470" type="line"/>
      <point x="563" y="80" type="line"/>
      <point x="559" y="80" type="line"/>
      <point x="444" y="516" type="line"/>
      <point x="375" y="516" type="line"/>
      <point x="250" y="80" type="line"/>
      <point x="246" y="80" type="line"/>
      <point x="143" y="470" type="line"/>
      <point x="215" y="470" type="line"/>
      <point x="215" y="516" type="line"/>
      <point x="8" y="516" type="line"/>
      <point x="8" y="470" type="line"/>
      <point x="60" y="470" type="line"/>
    </contour>
  </outline>
</glyph>
<glyph name="x" format="2">
  <advance width="561"/>
  <unicode hex="0078"/>
  <note>
x
</note>
  <anchor x="266" y="0" name="bottom"/>
  <anchor x="295" y="540" name="top"/>
  <outline>
    <contour>
      <point x="31" y="0" type="line"/>
      <point x="212" y="0" type="line"/>
      <point x="212" y="46" type="line"/>
      <point x="150" y="46" type="line"/>
      <point x="264" y="213" type="line"/>
      <point x="268" y="213" type="line"/>
      <point x="379" y="46" type="line"/>
      <point x="320" y="46" type="line"/>
      <point x="320" y="0" type="line"/>
      <point x="531" y="0" type="line"/>
      <point x="531" y="46" type="line"/>
      <point x="479" y="46" type="line"/>
      <point x="326" y="267" type="line"/>
      <point x="469" y="470" type="line"/>
      <point x="526" y="470" type="line"/>
      <point x="526" y="516" type="line"/>
      <point x="345" y="516" type="line"/>
      <point x="345" y="470" type="line"/>
      <point x="407" y="470" type="line"/>
      <point x="301" y="306" type="line"/>
      <point x="297" y="306" type="line"/>
      <point x="185" y="470" type="line"/>
      <point x="244" y="470" type="line"/>
      <point x="244" y="516" type="line"/>
      <point x="34" y="516" type="line"/>
      <point x="34" y="470" type="line"/>
      <point x="86" y="470" type="line"/>
      <point x="239" y="252" type="line"/>
      <point x="88" y="46" type="line"/>
      <point x="31" y="46" type="line"/>
    </contour>
  </outline>
</glyph>
<glyph name="z" format="2">
  <advance width="508"/>
  <unicode hex="007A"/>
  <note>
z
</note>
  <anchor x="256" y="0" name="bottom"/>
  <anchor x="256" y="540" name="top"/>
  <outline>
    <contour>
      <point x="50" y="0" type="line"/>
      <point x="458" y="0" type="line"/>
      <point x="458" y="155" type="line"/>
      <point x="398" y="155" type="line"/>
      <point x="398" y="47" type="line"/>
      <point x="155" y="47" type="line"/>
      <point x="450" y="481" type="line"/>
      <point x="450" y="516" type="line"/>
      <point x="58" y="516" type="line"/>
      <point x="58" y="361" type="line"/>
      <point x="118" y="361" type="line"/>
      <point x="118" y="469" type="line"/>
      <point x="345" y="469" type="line"/>
      <point x="50" y="35" type="line"/>
    </contour>
  </outline>
</glyph>
<glyph name="bar" format="2">
  <advance width="298"/>
  <unicode hex="007C"/>
  <note>
bar
</note>
  <outline>
    <contour>
      <point x="122" y="-138" type="line"/>
      <point x="176" y="-138" type="line"/>
      <point x="176" y="760" type="line"/>
      <point x="122" y="760" type="line"/>
    </contour>
  </outline>
</glyph>
<glyph name="braceright" format="2">
  <advance width="327"/>
  <unicode hex="007D"/>
  <note>
braceright
</note>
  <outline>
    <contour>
      <point x="34" y="-138" type="line"/>
      <point x="132" y="-138" type="line" smooth="yes"/>
      <point x="171" y="-138"/>
      <point x="210" y="-94"/>
      <point x="210" y="-62" type="qcurve" smooth="yes"/>
      <point x="210" y="197" type="line" smooth="yes"/>
      <point x="210" y="241"/>
      <point x="267" y="285"/>
      <point x="311" y="285" type="qcurve"/>
      <point x="311" y="337" type="line"/>
      <point x="267" y="337"/>
      <point x="210" y="381"/>
      <point x="210" y="425" type="qcurve" smooth="yes"/>
      <point x="210" y="684" type="line" smooth="yes"/>
      <point x="210" y="716"/>
      <point x="171" y="760"/>
      <point x="132" y="760" type="qcurve" smooth="yes"/>
      <point x="34" y="760" type="line"/>
      <point x="34" y="715" type="line"/>
      <point x="134" y="715" type="line"/>
      <point x="134" y="442" type="line" smooth="yes"/>
      <point x="134" y="418"/>
      <point x="152" y="376"/>
      <point x="182" y="342"/>
      <point x="222" y="320"/>
      <point x="245" y="316" type="qcurve"/>
      <point x="245" y="306" type="line"/>
      <point x="222" y="302"/>
      <point x="182" y="280"/>
      <point x="152" y="246"/>
      <point x="134" y="204"/>
      <point x="134" y="180" type="qcurve" smooth="yes"/>
      <point x="134" y="-93" type="line"/>
      <point x="34" y="-93" type="line"/>
    </contour>
  </outline>
</glyph>
<glyph name="asciitilde" format="2">
  <advance width="600"/>
  <unicode hex="007E"/>
  <note>
asciitilde
</note>
  <outline>
    <contour>
      <point x="464" y="244"/>
      <point x="515" y="273"/>
      <point x="536" y="298" type="qcurve"/>
      <point x="511" y="330" type="line"/>
      <point x="488" y="313"/>
      <point x="449" y="298"/>
      <point x="423" y="298" type="qcurve" smooth="yes"/>
      <point x="393" y="298"/>
      <point x="339" y="318"/>
      <point x="309" y="332" type="qcurve" smooth="yes"/>
      <point x="274" y="349"/>
      <point x="216" y="369"/>
      <point x="180" y="369" type="qcurve" smooth="yes"/>
      <point x="136" y="369"/>
      <point x="85" y="340"/>
      <point x="64" y="315" type="qcurve"/>
      <point x="89" y="282" type="line"/>
      <point x="112" y="299"/>
      <point x="151" y="315"/>
      <point x="177" y="315" type="qcurve" smooth="yes"/>
      <point x="207" y="315"/>
      <point x="261" y="295"/>
      <point x="291" y="281" type="qcurve" smooth="yes"/>
      <point x="326" y="264"/>
      <point x="384" y="244"/>
      <point x="420" y="244" type="qcurve" smooth="yes"/>
    </contour>
  </outline>
</glyph>
<glyph name="sterling" format="2">
  <advance width="587"/>
  <unicode hex="00A3"/>
  <note>
sterling
</note>
  <outline>
    <contour>
      <point x="67" y="0" type="line"/>
      <point x="525" y="0" type="line"/>
      <point x="525" y="171" type="line"/>
      <point x="475" y="171" type="line"/>
      <point x="475" y="71" type="line"/>
      <point x="130" y="71" type="line"/>
      <point x="130" y="75" type="line"/>
      <point x="148" y="85"/>
      <point x="185" y="120"/>
      <point x="215" y="166"/>
      <point x="234" y="222"/>
      <point x="234" y="254" type="qcurve" smooth="yes"/>
      <point x="234" y="268"/>
      <point x="231" y="292"/>
      <point x="229" y="304" type="qcurve"/>
      <point x="403" y="304" type="line"/>
      <point x="403" y="351" type="line"/>
      <point x="219" y="351" type="line"/>
      <point x="207" y="392"/>
      <point x="181" y="475"/>
      <point x="181" y="527" type="qcurve" smooth="yes"/>
      <point x="181" y="583"/>
      <point x="252" y="657"/>
      <point x="331" y="657" type="qcurve" smooth="yes"/>
      <point x="363" y="657"/>
      <point x="420" y="646"/>
      <point x="435" y="637" type="qcurve"/>
      <point x="435" y="634" type="line"/>
      <point x="392" y="615"/>
      <point x="392" y="571" type="qcurve" smooth="yes"/>
      <point x="392" y="548"/>
      <point x="423" y="511"/>
      <point x="452" y="511" type="qcurve" smooth="yes"/>
      <point x="482" y="511"/>
      <point x="516" y="548"/>
      <point x="516" y="580" type="qcurve" smooth="yes"/>
      <point x="516" y="608"/>
      <point x="487" y="655"/>
      <point x="434" y="690"/>
      <point x="360" y="710"/>
      <point x="314" y="710" type="qcurve" smooth="yes"/>
      <point x="265" y="710"/>
      <point x="186" y="681"/>
      <point x="130" y="630"/>
      <point x="99" y="558"/>
      <point x="99" y="516" type="qcurve" smooth="yes"/>
      <point x="99" y="471"/>
      <point x="123" y="391"/>
      <point x="136" y="351" type="qcurve"/>
      <point x="57" y="351" type="line"/>
      <point x="57" y="304" type="line"/>
      <point x="148" y="304" type="line"/>
      <point x="151" y="289"/>
      <point x="156" y="259"/>
      <point x="156" y="244" type="qcurve" smooth="yes"/>
      <point x="156" y="187"/>
      <point x="110" y="91"/>
      <point x="67" y="71" type="qcurve"/>
    </contour>
  </outline>
</glyph>
<glyph name="currency" format="2">
  <advance width="610"/>
  <unicode hex="00A4"/>
  <note>
currency
</note>
  <outline>
    <contour>
      <point x="384" y="119"/>
      <point x="437" y="163" type="qcurve"/>
      <point x="538" y="62" type="line"/>
      <point x="582" y="106" type="line"/>
      <point x="479" y="209" type="line"/>
      <point x="516" y="266"/>
      <point x="516" y="349" type="qcurve" smooth="yes"/>
      <point x="516" y="432"/>
      <point x="479" y="489" type="qcurve"/>
      <point x="582" y="592" type="line"/>
      <point x="538" y="636" type="line"/>
      <point x="437" y="535" type="line"/>
      <point x="384" y="579"/>
      <point x="305" y="579" type="qcurve" smooth="yes"/>
      <point x="226" y="579"/>
      <point x="173" y="535" type="qcurve"/>
      <point x="72" y="636" type="line"/>
      <point x="28" y="592" type="line"/>
      <point x="131" y="489" type="line"/>
      <point x="94" y="432"/>
      <point x="94" y="349" type="qcurve" smooth="yes"/>
      <point x="94" y="266"/>
      <point x="131" y="209" type="qcurve"/>
      <point x="28" y="106" type="line"/>
      <point x="72" y="62" type="line"/>
      <point x="173" y="163" type="line"/>
      <point x="226" y="119"/>
      <point x="305" y="119" type="qcurve" smooth="yes"/>
    </contour>
    <contour>
      <point x="272" y="168"/>
      <point x="223" y="189"/>
      <point x="191" y="227"/>
      <point x="176" y="277"/>
      <point x="176" y="307" type="qcurve" smooth="yes"/>
      <point x="176" y="391" type="line" smooth="yes"/>
      <point x="176" y="421"/>
      <point x="191" y="471"/>
      <point x="223" y="509"/>
      <point x="272" y="530"/>
      <point x="305" y="530" type="qcurve" smooth="yes"/>
      <point x="338" y="530"/>
      <point x="387" y="509"/>
      <point x="419" y="471"/>
      <point x="434" y="421"/>
      <point x="434" y="391" type="qcurve" smooth="yes"/>
      <point x="434" y="307" type="line" smooth="yes"/>
      <point x="434" y="277"/>
      <point x="419" y="227"/>
      <point x="387" y="189"/>
      <point x="338" y="168"/>
      <point x="305" y="168" type="qcurve" smooth="yes"/>
    </contour>
  </outline>
</glyph>
<glyph name="section" format="2">
  <advance width="596"/>
  <unicode hex="00A7"/>
  <note>
section
</note>
  <outline>
    <contour>
      <point x="367" y="-154"/>
      <point x="463" y="-70"/>
      <point x="463" y="5" type="qcurve" smooth="yes"/>
      <point x="463" y="91"/>
      <point x="397" y="135" type="qcurve"/>
      <point x="397" y="139" type="line"/>
      <point x="451" y="156"/>
      <point x="520" y="232"/>
      <point x="520" y="283" type="qcurve" smooth="yes"/>
      <point x="520" y="317"/>
      <point x="500" y="367"/>
      <point x="460" y="405"/>
      <point x="402" y="432"/>
      <point x="364" y="443" type="qcurve" smooth="yes"/>
      <point x="295" y="463" type="line" smooth="yes"/>
      <point x="256" y="475"/>
      <point x="209" y="526"/>
      <point x="209" y="567" type="qcurve" smooth="yes"/>
      <point x="209" y="616"/>
      <point x="275" y="664"/>
      <point x="336" y="664" type="qcurve" smooth="yes"/>
      <point x="353" y="664"/>
      <point x="385" y="659"/>
      <point x="399" y="654" type="qcurve"/>
      <point x="399" y="652" type="line"/>
      <point x="385" y="646"/>
      <point x="365" y="625"/>
      <point x="365" y="604" type="qcurve" smooth="yes"/>
      <point x="365" y="581"/>
      <point x="395" y="552"/>
      <point x="420" y="552" type="qcurve" smooth="yes"/>
      <point x="446" y="552"/>
      <point x="479" y="586"/>
      <point x="479" y="616" type="qcurve" smooth="yes"/>
      <point x="479" y="661"/>
      <point x="394" y="710"/>
      <point x="322" y="710" type="qcurve" smooth="yes"/>
      <point x="230" y="710"/>
      <point x="133" y="626"/>
      <point x="133" y="551" type="qcurve" smooth="yes"/>
      <point x="133" y="464"/>
      <point x="200" y="421" type="qcurve"/>
      <point x="200" y="417" type="line"/>
      <point x="146" y="400"/>
      <point x="76" y="324"/>
      <point x="76" y="273" type="qcurve" smooth="yes"/>
      <point x="76" y="239"/>
      <point x="96" y="189"/>
      <point x="136" y="151"/>
      <point x="194" y="124"/>
      <point x="232" y="113" type="qcurve" smooth="yes"/>
      <point x="301" y="93" type="line" smooth="yes"/>
      <point x="340" y="81"/>
      <point x="387" y="30"/>
      <point x="387" y="-11" type="qcurve" smooth="yes"/>
      <point x="387" y="-60"/>
      <point x="321" y="-108"/>
      <point x="260" y="-108" type="qcurve" smooth="yes"/>
      <point x="243" y="-108"/>
      <point x="211" y="-103"/>
      <point x="197" y="-98" type="qcurve"/>
      <point x="197" y="-96" type="line"/>
      <point x="211" y="-90"/>
      <point x="231" y="-69"/>
      <point x="231" y="-48" type="qcurve" smooth="yes"/>
      <point x="231" y="-25"/>
      <point x="201" y="4"/>
      <point x="176" y="4" type="qcurve" smooth="yes"/>
      <point x="150" y="4"/>
      <point x="117" y="-30"/>
      <point x="117" y="-60" type="qcurve" smooth="yes"/>
      <point x="117" y="-105"/>
      <point x="203" y="-154"/>
      <point x="274" y="-154" type="qcurve" smooth="yes"/>
    </contour>
    <contour>
      <point x="345" y="161"/>
      <point x="325" y="168"/>
      <point x="314" y="171" type="qcurve" smooth="yes"/>
      <point x="241" y="192" type="line" smooth="yes"/>
      <point x="199" y="204"/>
      <point x="154" y="251"/>
      <point x="154" y="289" type="qcurve" smooth="yes"/>
      <point x="154" y="340"/>
      <point x="200" y="392"/>
      <point x="242" y="399" type="qcurve"/>
      <point x="251" y="395"/>
      <point x="271" y="388"/>
      <point x="282" y="385" type="qcurve" smooth="yes"/>
      <point x="355" y="364" type="line" smooth="yes"/>
      <point x="397" y="352"/>
      <point x="442" y="305"/>
      <point x="442" y="267" type="qcurve" smooth="yes"/>
      <point x="442" y="216"/>
      <point x="397" y="164"/>
      <point x="355" y="157" type="qcurve"/>
    </contour>
  </outline>
</glyph>
<glyph name="copyright" format="2">
  <advance width="778"/>
  <unicode hex="00A9"/>
  <note>
copyright
</note>
  <outline>
    <contour>
      <point x="428" y="155"/>
      <point x="475" y="171"/>
      <point x="510" y="198"/>
      <point x="534" y="233"/>
      <point x="541" y="251" type="qcurve"/>
      <point x="516" y="266" type="line"/>
      <point x="502" y="239"/>
      <point x="452" y="205"/>
      <point x="407" y="205" type="qcurve" smooth="yes"/>
      <point x="354" y="205"/>
      <point x="292" y="274"/>
      <point x="292" y="331" type="qcurve" smooth="yes"/>
      <point x="292" y="385" type="line" smooth="yes"/>
      <point x="292" y="437"/>
      <point x="358" y="505"/>
      <point x="410" y="505" type="qcurve" smooth="yes"/>
      <point x="433" y="505"/>
      <point x="464" y="498"/>
      <point x="475" y="493" type="qcurve"/>
      <point x="475" y="491" type="line"/>
      <point x="443" y="477"/>
      <point x="443" y="448" type="qcurve" smooth="yes"/>
      <point x="443" y="429"/>
      <point x="465" y="403"/>
      <point x="485" y="403" type="qcurve" smooth="yes"/>
      <point x="507" y="403"/>
      <point x="532" y="429"/>
      <point x="532" y="451" type="qcurve" smooth="yes"/>
      <point x="532" y="491"/>
      <point x="462" y="543"/>
      <point x="403" y="543" type="qcurve" smooth="yes"/>
      <point x="364" y="543"/>
      <point x="298" y="516"/>
      <point x="251" y="465"/>
      <point x="225" y="393"/>
      <point x="225" y="348" type="qcurve" smooth="yes"/>
      <point x="225" y="261"/>
      <point x="315" y="155"/>
      <point x="398" y="155" type="qcurve" smooth="yes"/>
    </contour>
    <contour>
      <point x="327" y="35"/>
      <point x="225" y="78"/>
      <point x="150" y="154"/>
      <point x="109" y="258"/>
      <point x="109" y="319" type="qcurve" smooth="yes"/>
      <point x="109" y="379" type="line" smooth="yes"/>
      <point x="109" y="440"/>
      <point x="150" y="544"/>
      <point x="225" y="620"/>
      <point x="327" y="663"/>
      <point x="389" y="663" type="qcurve" smooth="yes"/>
      <point x="450" y="663"/>
      <point x="553" y="620"/>
      <point x="628" y="544"/>
      <point x="669" y="440"/>
      <point x="669" y="379" type="qcurve" smooth="yes"/>
      <point x="669" y="319" type="line" smooth="yes"/>
      <point x="669" y="258"/>
      <point x="628" y="154"/>
      <point x="553" y="78"/>
      <point x="450" y="35"/>
      <point x="389" y="35" type="qcurve" smooth="yes"/>
    </contour>
    <contour>
      <point x="459" y="-12"/>
      <point x="581" y="38"/>
      <point x="671" y="132"/>
      <point x="722" y="266"/>
      <point x="722" y="349" type="qcurve" smooth="yes"/>
      <point x="722" y="432"/>
      <point x="671" y="566"/>
      <point x="581" y="660"/>
      <point x="459" y="710"/>
      <point x="389" y="710" type="qcurve" smooth="yes"/>
      <point x="318" y="710"/>
      <point x="197" y="660"/>
      <point x="107" y="566"/>
      <point x="56" y="432"/>
      <point x="56" y="349" type="qcurve" smooth="yes"/>
      <point x="56" y="266"/>
      <point x="107" y="132"/>
      <point x="197" y="38"/>
      <point x="318" y="-12"/>
      <point x="389" y="-12" type="qcurve" smooth="yes"/>
    </contour>
  </outline>
</glyph>
<glyph name="ordfeminine" format="2">
  <advance width="396"/>
  <unicode hex="00AA"/>
  <note>
ordfeminine
</note>
  <outline>
    <contour>
      <point x="191" y="346"/>
      <point x="237" y="380"/>
      <point x="248" y="403" type="qcurve"/>
      <point x="251" y="403" type="line"/>
      <point x="251" y="399" type="line" smooth="yes"/>
      <point x="251" y="346"/>
      <point x="308" y="346" type="qcurve" smooth="yes"/>
      <point x="325" y="346"/>
      <point x="350" y="354"/>
      <point x="358" y="359" type="qcurve"/>
      <point x="358" y="383" type="line"/>
      <point x="308" y="383" type="line"/>
      <point x="308" y="597" type="line" smooth="yes"/>
      <point x="308" y="648"/>
      <point x="244" y="704"/>
      <point x="187" y="704" type="qcurve" smooth="yes"/>
      <point x="124" y="704"/>
      <point x="56" y="657"/>
      <point x="56" y="629" type="qcurve" smooth="yes"/>
      <point x="56" y="609"/>
      <point x="79" y="588"/>
      <point x="97" y="588" type="qcurve" smooth="yes"/>
      <point x="114" y="588"/>
      <point x="137" y="608"/>
      <point x="137" y="625" type="qcurve" smooth="yes"/>
      <point x="137" y="637"/>
      <point x="123" y="656"/>
      <point x="114" y="659" type="qcurve"/>
      <point x="114" y="662" type="line"/>
      <point x="133" y="672"/>
      <point x="169" y="672" type="qcurve" smooth="yes"/>
      <point x="207" y="672"/>
      <point x="246" y="629"/>
      <point x="246" y="589" type="qcurve" smooth="yes"/>
      <point x="246" y="541" type="line"/>
      <point x="197" y="541" type="line" smooth="yes"/>
      <point x="111" y="541"/>
      <point x="40" y="488"/>
      <point x="40" y="438" type="qcurve" smooth="yes"/>
      <point x="40" y="396"/>
      <point x="96" y="346"/>
      <point x="147" y="346" type="qcurve" smooth="yes"/>
    </contour>
    <contour>
      <point x="139" y="384"/>
      <point x="104" y="410"/>
      <point x="104" y="436" type="qcurve" smooth="yes"/>
      <point x="104" y="448" type="line" smooth="yes"/>
      <point x="104" y="480"/>
      <point x="146" y="511"/>
      <point x="202" y="511" type="qcurve" smooth="yes"/>
      <point x="246" y="511" type="line"/>
      <point x="246" y="449" type="line" smooth="yes"/>
      <point x="246" y="416"/>
      <point x="202" y="384"/>
      <point x="170" y="384" type="qcurve" smooth="yes"/>
    </contour>
  </outline>
</glyph>
<glyph name="logicalnot" format="2">
  <advance width="600"/>
  <unicode hex="00AC"/>
  <note>
logicalnot
</note>
  <outline>
    <contour>
      <point x="462" y="81" type="line"/>
      <point x="518" y="81" type="line"/>
      <point x="518" y="331" type="line"/>
      <point x="66" y="331" type="line"/>
      <point x="66" y="279" type="line"/>
      <point x="462" y="279" type="line"/>
    </contour>
  </outline>
</glyph>
<glyph name="macron" format="2">
  <advance width="600"/>
  <unicode hex="00AF"/>
  <note>
macron
</note>
  <outline>
    <contour>
      <point x="161" y="642" type="line"/>
      <point x="439" y="642" type="line"/>
      <point x="439" y="699" type="line"/>
      <point x="161" y="699" type="line"/>
    </contour>
  </outline>
</glyph>
<glyph name="twosuperior" format="2">
  <advance width="346"/>
  <unicode hex="00B2"/>
  <note>
twosuperior
</note>
  <outline>
    <contour>
      <point x="36" y="330" type="line"/>
      <point x="312" y="330" type="line"/>
      <point x="312" y="427" type="line"/>
      <point x="272" y="427" type="line"/>
      <point x="272" y="382" type="line"/>
      <point x="90" y="382" type="line"/>
      <point x="90" y="386" type="line"/>
      <point x="199" y="456" type="line" smooth="yes"/>
      <point x="238" y="481"/>
      <point x="296" y="550"/>
      <point x="296" y="600" type="qcurve" smooth="yes"/>
      <point x="296" y="649"/>
      <point x="226" y="704"/>
      <point x="163" y="704" type="qcurve" smooth="yes"/>
      <point x="109" y="704"/>
      <point x="41" y="658"/>
      <point x="41" y="626" type="qcurve" smooth="yes"/>
      <point x="41" y="605"/>
      <point x="63" y="581"/>
      <point x="83" y="581" type="qcurve" smooth="yes"/>
      <point x="101" y="581"/>
      <point x="122" y="604"/>
      <point x="122" y="622" type="qcurve" smooth="yes"/>
      <point x="122" y="632"/>
      <point x="111" y="652"/>
      <point x="103" y="657" type="qcurve"/>
      <point x="103" y="660" type="line"/>
      <point x="112" y="665"/>
      <point x="135" y="670"/>
      <point x="152" y="670" type="qcurve" smooth="yes"/>
      <point x="185" y="670"/>
      <point x="224" y="631"/>
      <point x="224" y="600" type="qcurve" smooth="yes"/>
      <point x="224" y="589" type="line" smooth="yes"/>
      <point x="224" y="560"/>
      <point x="190" y="510"/>
      <point x="166" y="490" type="qcurve" smooth="yes"/>
      <point x="36" y="382" type="line"/>
    </contour>
  </outline>
</glyph>
<glyph name="periodcentered" format="2">
  <advance width="324"/>
  <unicode hex="00B7"/>
  <note>
periodcentered
</note>
  <outline>
    <contour>
      <point x="191" y="241"/>
      <point x="224" y="276"/>
      <point x="224" y="301" type="qcurve" smooth="yes"/>
      <point x="224" y="307" type="line" smooth="yes"/>
      <point x="224" y="332"/>
      <point x="191" y="367"/>
      <point x="162" y="367" type="qcurve" smooth="yes"/>
      <point x="133" y="367"/>
      <point x="100" y="332"/>
      <point x="100" y="307" type="qcurve" smooth="yes"/>
      <point x="100" y="301" type="line" smooth="yes"/>
      <point x="100" y="276"/>
      <point x="133" y="241"/>
      <point x="162" y="241" type="qcurve" smooth="yes"/>
    </contour>
  </outline>
</glyph>
<glyph name="onesuperior" format="2">
  <advance width="360"/>
  <unicode hex="00B9"/>
  <note>
onesuperior
</note>
  <outline>
    <contour>
      <point x="56" y="330" type="line"/>
      <point x="326" y="330" type="line"/>
      <point x="326" y="368" type="line"/>
      <point x="231" y="368" type="line"/>
      <point x="231" y="698" type="line"/>
      <point x="178" y="698" type="line"/>
      <point x="37" y="634" type="line"/>
      <point x="52" y="602" type="line"/>
      <point x="164" y="644" type="line"/>
      <point x="164" y="368" type="line"/>
      <point x="56" y="368" type="line"/>
    </contour>
  </outline>
</glyph>
<glyph name="questiondown" format="2">
  <advance width="487"/>
  <unicode hex="00BF"/>
  <note>
questiondown
</note>
  <outline>
    <contour>
      <point x="287" y="-194"/>
      <point x="359" y="-173"/>
      <point x="413" y="-138"/>
      <point x="445" y="-93"/>
      <point x="445" y="-68" type="qcurve" smooth="yes"/>
      <point x="445" y="-36"/>
      <point x="412" y="-2"/>
      <point x="384" y="-2" type="qcurve" smooth="yes"/>
      <point x="356" y="-2"/>
      <point x="325" y="-37"/>
      <point x="325" y="-63" type="qcurve" smooth="yes"/>
      <point x="325" y="-85"/>
      <point x="350" y="-116"/>
      <point x="361" y="-120" type="qcurve"/>
      <point x="361" y="-122" type="line"/>
      <point x="344" y="-132"/>
      <point x="296" y="-145"/>
      <point x="259" y="-145" type="qcurve" smooth="yes"/>
      <point x="202" y="-145"/>
      <point x="132" y="-81"/>
      <point x="132" y="-21" type="qcurve" smooth="yes"/>
      <point x="132" y="2" type="line" smooth="yes"/>
      <point x="132" y="69"/>
      <point x="235" y="142"/>
      <point x="317" y="145" type="qcurve"/>
      <point x="317" y="311" type="line"/>
      <point x="262" y="311" type="line"/>
      <point x="262" y="194" type="line"/>
      <point x="216" y="190"/>
      <point x="136" y="158"/>
      <point x="76" y="106"/>
      <point x="42" y="33"/>
      <point x="42" y="-12" type="qcurve" smooth="yes"/>
      <point x="42" y="-53"/>
      <point x="72" y="-120"/>
      <point x="126" y="-168"/>
      <point x="202" y="-194"/>
      <point x="247" y="-194" type="qcurve" smooth="yes"/>
    </contour>
    <contour>
      <point x="318" y="402"/>
      <point x="351" y="437"/>
      <point x="351" y="462" type="qcurve" smooth="yes"/>
      <point x="351" y="468" type="line" smooth="yes"/>
      <point x="351" y="493"/>
      <point x="318" y="528"/>
      <point x="289" y="528" type="qcurve" smooth="yes"/>
      <point x="260" y="528"/>
      <point x="227" y="493"/>
      <point x="227" y="468" type="qcurve" smooth="yes"/>
      <point x="227" y="462" type="line" smooth="yes"/>
      <point x="227" y="437"/>
      <point x="260" y="402"/>
      <point x="289" y="402" type="qcurve" smooth="yes"/>
    </contour>
  </outline>
</glyph>
<glyph name="Thorn" format="2">
  <advance width="625"/>
  <unicode hex="00DE"/>
  <note>
Thorn
</note>
  <outline>
    <contour>
      <point x="55" y="0" type="line"/>
      <point x="292" y="0" type="line"/>
      <point x="292" y="46" type="line"/>
      <point x="216" y="46" type="line"/>
      <point x="216" y="164" type="line"/>
      <point x="381" y="164" type="line" smooth="yes"/>
      <point x="476" y="164"/>
      <point x="577" y="260"/>
      <point x="577" y="351" type="qcurve" smooth="yes"/>
      <point x="577" y="445"/>
      <point x="476" y="542"/>
      <point x="381" y="542" type="qcurve" smooth="yes"/>
      <point x="216" y="542" type="line"/>
      <point x="216" y="652" type="line"/>
      <point x="292" y="652" type="line"/>
      <point x="292" y="698" type="line"/>
      <point x="55" y="698" type="line"/>
      <point x="55" y="652" type="line"/>
      <point x="130" y="652" type="line"/>
      <point x="130" y="46" type="line"/>
      <point x="55" y="46" type="line"/>
    </contour>
    <contour>
      <point x="216" y="493" type="line"/>
      <point x="374" y="493" type="line" smooth="yes"/>
      <point x="428" y="493"/>
      <point x="485" y="426"/>
      <point x="485" y="377" type="qcurve" smooth="yes"/>
      <point x="485" y="329" type="line" smooth="yes"/>
      <point x="485" y="280"/>
      <point x="428" y="213"/>
      <point x="374" y="213" type="qcurve" smooth="yes"/>
      <point x="216" y="213" type="line"/>
    </contour>
  </outline>
</glyph>
<glyph name="ae" format="2">
  <advance width="823"/>
  <unicode hex="00E6"/>
  <note>
ae
</note>
  <anchor x="409" y="540" name="top"/>
  <outline>
    <contour>
      <point x="275" y="-12"/>
      <point x="372" y="44"/>
      <point x="391" y="107" type="qcurve"/>
      <point x="397" y="107" type="line"/>
      <point x="404" y="84"/>
      <point x="436" y="41"/>
      <point x="482" y="8"/>
      <point x="543" y="-12"/>
      <point x="580" y="-12" type="qcurve" smooth="yes"/>
      <point x="621" y="-12"/>
      <point x="682" y="8"/>
      <point x="727" y="42"/>
      <point x="757" y="88"/>
      <point x="767" y="114" type="qcurve"/>
      <point x="734" y="135" type="line"/>
      <point x="723" y="115"/>
      <point x="700" y="84"/>
      <point x="668" y="63"/>
      <point x="624" y="52"/>
      <point x="593" y="52" type="qcurve" smooth="yes"/>
      <point x="522" y="52"/>
      <point x="437" y="150"/>
      <point x="437" y="235" type="qcurve" smooth="yes"/>
      <point x="437" y="249" type="line"/>
      <point x="778" y="249" type="line"/>
      <point x="778" y="277" type="line" smooth="yes"/>
      <point x="778" y="330"/>
      <point x="752" y="422"/>
      <point x="700" y="489"/>
      <point x="623" y="528"/>
      <point x="572" y="528" type="qcurve" smooth="yes"/>
      <point x="511" y="528"/>
      <point x="426" y="466"/>
      <point x="412" y="418" type="qcurve"/>
      <point x="406" y="418" type="line"/>
      <point x="403" y="440"/>
      <point x="382" y="480"/>
      <point x="346" y="510"/>
      <point x="296" y="528"/>
      <point x="264" y="528" type="qcurve" smooth="yes"/>
      <point x="219" y="528"/>
      <point x="148" y="509"/>
      <point x="100" y="477"/>
      <point x="74" y="436"/>
      <point x="74" y="414" type="qcurve" smooth="yes"/>
      <point x="74" y="385"/>
      <point x="105" y="356"/>
      <point x="129" y="356" type="qcurve" smooth="yes"/>
      <point x="154" y="356"/>
      <point x="184" y="385"/>
      <point x="184" y="411" type="qcurve" smooth="yes"/>
      <point x="184" y="433"/>
      <point x="163" y="457"/>
      <point x="152" y="463" type="qcurve"/>
      <point x="152" y="465" type="line"/>
      <point x="166" y="473"/>
      <point x="210" y="482"/>
      <point x="236" y="482" type="qcurve" smooth="yes"/>
      <point x="295" y="482"/>
      <point x="354" y="417"/>
      <point x="354" y="356" type="qcurve" smooth="yes"/>
      <point x="354" y="291" type="line"/>
      <point x="280" y="291" type="line" smooth="yes"/>
      <point x="217" y="291"/>
      <point x="129" y="272"/>
      <point x="74" y="233"/>
      <point x="50" y="173"/>
      <point x="50" y="133" type="qcurve" smooth="yes"/>
      <point x="50" y="68"/>
      <point x="131" y="-12"/>
      <point x="203" y="-12" type="qcurve" smooth="yes"/>
    </contour>
    <contour>
      <point x="191" y="43"/>
      <point x="139" y="83"/>
      <point x="139" y="121" type="qcurve" smooth="yes"/>
      <point x="139" y="152" type="line" smooth="yes"/>
      <point x="139" y="176"/>
      <point x="154" y="212"/>
      <point x="188" y="238"/>
      <point x="246" y="251"/>
      <point x="289" y="251" type="qcurve" smooth="yes"/>
      <point x="354" y="251" type="line"/>
      <point x="354" y="143" type="line" smooth="yes"/>
      <point x="354" y="92"/>
      <point x="286" y="43"/>
      <point x="238" y="43" type="qcurve" smooth="yes"/>
    </contour>
    <contour>
      <point x="437" y="317" type="line" smooth="yes"/>
      <point x="437" y="352"/>
      <point x="454" y="412"/>
      <point x="488" y="456"/>
      <point x="538" y="481"/>
      <point x="572" y="481" type="qcurve" smooth="yes"/>
      <point x="605" y="481"/>
      <point x="652" y="454"/>
      <point x="680" y="407"/>
      <point x="693" y="345"/>
      <point x="693" y="310" type="qcurve" smooth="yes"/>
      <point x="693" y="293" type="line"/>
      <point x="437" y="293" type="line"/>
    </contour>
  </outline>
</glyph>
<glyph name="divide" format="2">
  <advance width="600"/>
  <unicode hex="00F7"/>
  <note>
divide
</note>
  <outline>
    <contour>
      <point x="328" y="61"/>
      <point x="359" y="95"/>
      <point x="359" y="118" type="qcurve" smooth="yes"/>
      <point x="359" y="124" type="line" smooth="yes"/>
      <point x="359" y="147"/>
      <point x="328" y="181"/>
      <point x="300" y="181" type="qcurve" smooth="yes"/>
      <point x="272" y="181"/>
      <point x="241" y="147"/>
      <point x="241" y="124" type="qcurve" smooth="yes"/>
      <point x="241" y="118" type="line" smooth="yes"/>
      <point x="241" y="95"/>
      <point x="272" y="61"/>
      <point x="300" y="61" type="qcurve" smooth="yes"/>
    </contour>
    <contour>
      <point x="328" y="429"/>
      <point x="359" y="463"/>
      <point x="359" y="486" type="qcurve" smooth="yes"/>
      <point x="359" y="492" type="line" smooth="yes"/>
      <point x="359" y="515"/>
      <point x="328" y="549"/>
      <point x="300" y="549" type="qcurve" smooth="yes"/>
      <point x="272" y="549"/>
      <point x="241" y="515"/>
      <point x="241" y="492" type="qcurve" smooth="yes"/>
      <point x="241" y="486" type="line" smooth="yes"/>
      <point x="241" y="463"/>
      <point x="272" y="429"/>
      <point x="300" y="429" type="qcurve" smooth="yes"/>
    </contour>
    <contour>
      <point x="66" y="279" type="line"/>
      <point x="534" y="279" type="line"/>
      <point x="534" y="331" type="line"/>
      <point x="66" y="331" type="line"/>
    </contour>
  </outline>
</glyph>
<glyph name="oslash" format="2">
  <advance width="564"/>
  <unicode hex="00F8"/>
  <note>
oslash
</note>
  <anchor x="282" y="540" name="top"/>
  <outline>
    <contour>
      <point x="83" y="-38" type="line"/>
      <point x="139" y="34" type="line"/>
      <point x="199" y="-12"/>
      <point x="282" y="-12" type="qcurve" smooth="yes"/>
      <point x="335" y="-12"/>
      <point x="423" y="26"/>
      <point x="485" y="97"/>
      <point x="519" y="196"/>
      <point x="519" y="258" type="qcurve" smooth="yes"/>
      <point x="519" y="318"/>
      <point x="487" y="415"/>
      <point x="458" y="450" type="qcurve"/>
      <point x="516" y="527" type="line"/>
      <point x="481" y="554" type="line"/>
      <point x="425" y="482" type="line"/>
      <point x="365" y="528"/>
      <point x="282" y="528" type="qcurve" smooth="yes"/>
      <point x="229" y="528"/>
      <point x="141" y="490"/>
      <point x="79" y="419"/>
      <point x="45" y="319"/>
      <point x="45" y="258" type="qcurve" smooth="yes"/>
      <point x="45" y="198"/>
      <point x="77" y="101"/>
      <point x="106" y="66" type="qcurve"/>
      <point x="48" y="-11" type="line"/>
    </contour>
    <contour>
      <point x="152" y="122" type="line"/>
      <point x="144" y="140"/>
      <point x="138" y="181"/>
      <point x="138" y="204" type="qcurve" smooth="yes"/>
      <point x="138" y="312" type="line" smooth="yes"/>
      <point x="138" y="348"/>
      <point x="155" y="409"/>
      <point x="190" y="454"/>
      <point x="244" y="479"/>
      <point x="282" y="479" type="qcurve" smooth="yes"/>
      <point x="319" y="479"/>
      <point x="372" y="455"/>
      <point x="390" y="434" type="qcurve"/>
    </contour>
    <contour>
      <point x="245" y="37"/>
      <point x="192" y="61"/>
      <point x="174" y="82" type="qcurve"/>
      <point x="412" y="394" type="line"/>
      <point x="420" y="376"/>
      <point x="426" y="335"/>
      <point x="426" y="312" type="qcurve" smooth="yes"/>
      <point x="426" y="204" type="line" smooth="yes"/>
      <point x="426" y="168"/>
      <point x="409" y="107"/>
      <point x="374" y="62"/>
      <point x="319" y="37"/>
      <point x="282" y="37" type="qcurve" smooth="yes"/>
    </contour>
  </outline>
</glyph>
<glyph name="thorn" format="2">
  <advance width="598"/>
  <unicode hex="00FE"/>
  <note>
thorn
</note>
  <outline>
    <contour>
      <point x="25" y="-200" type="line"/>
      <point x="275" y="-200" type="line"/>
      <point x="275" y="-154" type="line"/>
      <point x="181" y="-154" type="line"/>
      <point x="181" y="77" type="line"/>
      <point x="185" y="77" type="line"/>
      <point x="202" y="40"/>
      <point x="277" y="-12"/>
      <point x="337" y="-12" type="qcurve" smooth="yes"/>
      <point x="433" y="-12"/>
      <point x="548" y="127"/>
      <point x="548" y="258" type="qcurve" smooth="yes"/>
      <point x="548" y="389"/>
      <point x="433" y="528"/>
      <point x="337" y="528" type="qcurve" smooth="yes"/>
      <point x="276" y="528"/>
      <point x="202" y="475"/>
      <point x="185" y="438" type="qcurve"/>
      <point x="181" y="438" type="line"/>
      <point x="181" y="760" type="line"/>
      <point x="25" y="731" type="line"/>
      <point x="25" y="696" type="line"/>
      <point x="99" y="683" type="line"/>
      <point x="99" y="-154" type="line"/>
      <point x="25" y="-154" type="line"/>
    </contour>
    <contour>
      <point x="289" y="45"/>
      <point x="241" y="59"/>
      <point x="204" y="85"/>
      <point x="181" y="124"/>
      <point x="181" y="148" type="qcurve" smooth="yes"/>
      <point x="181" y="368" type="line" smooth="yes"/>
      <point x="181" y="392"/>
      <point x="204" y="431"/>
      <point x="241" y="457"/>
      <point x="289" y="471"/>
      <point x="313" y="471" type="qcurve" smooth="yes"/>
      <point x="382" y="471"/>
      <point x="459" y="378"/>
      <point x="459" y="300" type="qcurve" smooth="yes"/>
      <point x="459" y="216" type="line" smooth="yes"/>
      <point x="459" y="138"/>
      <point x="382" y="45"/>
      <point x="313" y="45" type="qcurve" smooth="yes"/>
    </contour>
  </outline>
</glyph>
<glyph name="aogonek" format="2">
  <advance width="545"/>
  <unicode hex="0105"/>
  <note>
aogonek
</note>
  <outline>
    <contour>
      <point x="468" y="-206"/>
      <point x="513" y="-184"/>
      <point x="522" y="-168" type="qcurve"/>
      <point x="501" y="-148" type="line"/>
      <point x="493" y="-158"/>
      <point x="470" y="-170"/>
      <point x="457" y="-170" type="qcurve" smooth="yes"/>
      <point x="436" y="-170"/>
      <point x="411" y="-144"/>
      <point x="411" y="-123" type="qcurve" smooth="yes"/>
      <point x="411" y="-114"/>
      <point x="417" y="-86"/>
      <point x="435" y="-54"/>
      <point x="468" y="-19"/>
      <point x="495" y="-2" type="qcurve" smooth="yes"/>
      <point x="511" y="8" type="line"/>
      <point x="511" y="43" type="line"/>
      <point x="436" y="43" type="line"/>
      <point x="436" y="368" type="line" smooth="yes"/>
      <point x="436" y="444"/>
      <point x="345" y="528"/>
      <point x="264" y="528" type="qcurve" smooth="yes"/>
      <point x="219" y="528"/>
      <point x="148" y="509"/>
      <point x="100" y="477"/>
      <point x="74" y="436"/>
      <point x="74" y="414" type="qcurve" smooth="yes"/>
      <point x="74" y="385"/>
      <point x="105" y="356"/>
      <point x="129" y="356" type="qcurve" smooth="yes"/>
      <point x="154" y="356"/>
      <point x="184" y="385"/>
      <point x="184" y="411" type="qcurve" smooth="yes"/>
      <point x="184" y="433"/>
      <point x="163" y="457"/>
      <point x="152" y="463" type="qcurve"/>
      <point x="152" y="465" type="line"/>
      <point x="166" y="473"/>
      <point x="210" y="482"/>
      <point x="236" y="482" type="qcurve" smooth="yes"/>
      <point x="295" y="482"/>
      <point x="354" y="417"/>
      <point x="354" y="356" type="qcurve" smooth="yes"/>
      <point x="354" y="280" type="line"/>
      <point x="280" y="280" type="line" smooth="yes"/>
      <point x="217" y="280"/>
      <point x="129" y="260"/>
      <point x="74" y="222"/>
      <point x="50" y="165"/>
      <point x="50" y="128" type="qcurve" smooth="yes"/>
      <point x="50" y="63"/>
      <point x="131" y="-12"/>
      <point x="203" y="-12" type="qcurve" smooth="yes"/>
      <point x="237" y="-12"/>
      <point x="288" y="3"/>
      <point x="324" y="27"/>
      <point x="347" y="59"/>
      <point x="354" y="76" type="qcurve"/>
      <point x="359" y="76" type="line"/>
      <point x="359" y="69" type="line" smooth="yes"/>
      <point x="359" y="32"/>
      <point x="401" y="-10"/>
      <point x="440" y="-10" type="qcurve" smooth="yes"/>
      <point x="446" y="-10" type="line"/>
      <point x="446" y="-13" type="line"/>
      <point x="394" y="-45"/>
      <point x="342" y="-98"/>
      <point x="342" y="-132" type="qcurve" smooth="yes"/>
      <point x="342" y="-171"/>
      <point x="397" y="-206"/>
      <point x="435" y="-206" type="qcurve" smooth="yes"/>
    </contour>
    <contour>
      <point x="191" y="43"/>
      <point x="139" y="83"/>
      <point x="139" y="121" type="qcurve" smooth="yes"/>
      <point x="139" y="142" type="line" smooth="yes"/>
      <point x="139" y="166"/>
      <point x="154" y="202"/>
      <point x="188" y="227"/>
      <point x="246" y="240"/>
      <point x="289" y="240" type="qcurve" smooth="yes"/>
      <point x="354" y="240" type="line"/>
      <point x="354" y="143" type="line" smooth="yes"/>
      <point x="354" y="92"/>
      <point x="286" y="43"/>
      <point x="238" y="43" type="qcurve" smooth="yes"/>
    </contour>
  </outline>
</glyph>
<glyph name="Iogonek" format="2">
  <advance width="346"/>
  <unicode hex="012E"/>
  <note>
Iogonek
</note>
  <outline>
    <contour>
      <point x="271" y="-206"/>
      <point x="315" y="-184"/>
      <point x="323" y="-168" type="qcurve"/>
      <point x="302" y="-148" type="line"/>
      <point x="296" y="-158"/>
      <point x="273" y="-170"/>
      <point x="258" y="-170" type="qcurve" smooth="yes"/>
      <point x="238" y="-170"/>
      <point x="212" y="-144"/>
      <point x="212" y="-124" type="qcurve" smooth="yes"/>
      <point x="212" y="-115"/>
      <point x="216" y="-92"/>
      <point x="232" y="-63"/>
      <point x="264" y="-25"/>
      <point x="291" y="0" type="qcurve"/>
      <point x="291" y="46" type="line"/>
      <point x="216" y="46" type="line"/>
      <point x="216" y="652" type="line"/>
      <point x="291" y="652" type="line"/>
      <point x="291" y="698" type="line"/>
      <point x="55" y="698" type="line"/>
      <point x="55" y="652" type="line"/>
      <point x="130" y="652" type="line"/>
      <point x="130" y="46" type="line"/>
      <point x="55" y="46" type="line"/>
      <point x="55" y="0" type="line"/>
      <point x="249" y="0" type="line"/>
      <point x="250" y="-4" type="line"/>
      <point x="226" y="-22"/>
      <point x="187" y="-52"/>
      <point x="159" y="-81"/>
      <point x="143" y="-113"/>
      <point x="143" y="-132" type="qcurve" smooth="yes"/>
      <point x="143" y="-170"/>
      <point x="199" y="-206"/>
      <point x="236" y="-206" type="qcurve" smooth="yes"/>
    </contour>
  </outline>
</glyph>
<glyph name="dotlessi" format="2">
  <advance width="315"/>
  <unicode hex="0131"/>
  <note>
dotlessi
</note>
  <anchor x="165" y="540" name="top"/>
  <outline>
    <contour>
      <point x="50" y="0" type="line"/>
      <point x="280" y="0" type="line"/>
      <point x="280" y="46" type="line"/>
      <point x="206" y="46" type="line"/>
      <point x="206" y="528" type="line"/>
      <point x="50" y="498" type="line"/>
      <point x="50" y="464" type="line"/>
      <point x="124" y="451" type="line"/>
      <point x="124" y="46" type="line"/>
      <point x="50" y="46" type="line"/>
    </contour>
  </outline>
</glyph>
<glyph name="Lslash" format="2">
  <advance width="594"/>
  <unicode hex="0141"/>
  <note>
Lslash
</note>
  <outline>
    <contour>
      <point x="55" y="0" type="line"/>
      <point x="544" y="0" type="line"/>
      <point x="544" y="177" type="line"/>
      <point x="472" y="177" type="line"/>
      <point x="472" y="49" type="line"/>
      <point x="216" y="49" type="line"/>
      <point x="216" y="311" type="line"/>
      <point x="372" y="365" type="line"/>
      <point x="372" y="415" type="line"/>
      <point x="216" y="361" type="line"/>
      <point x="216" y="652" type="line"/>
      <point x="291" y="652" type="line"/>
      <point x="291" y="698" type="line"/>
      <point x="55" y="698" type="line"/>
      <point x="55" y="652" type="line"/>
      <point x="130" y="652" type="line"/>
      <point x="130" y="332" type="line"/>
      <point x="37" y="300" type="line"/>
      <point x="37" y="250" type="line"/>
      <point x="130" y="282" type="line"/>
      <point x="130" y="46" type="line"/>
      <point x="55" y="46" type="line"/>
    </contour>
  </outline>
</glyph>
<glyph name="eng" format="2">
  <advance width="630"/>
  <unicode hex="014B"/>
  <note>
eng
</note>
  <outline>
    <contour>
      <point x="454" y="-212"/>
      <point x="530" y="-133"/>
      <point x="530" y="-52" type="qcurve" smooth="yes"/>
      <point x="530" y="334" type="line" smooth="yes"/>
      <point x="530" y="431"/>
      <point x="449" y="528"/>
      <point x="356" y="528" type="qcurve" smooth="yes"/>
      <point x="326" y="528"/>
      <point x="276" y="511"/>
      <point x="239" y="485"/>
      <point x="214" y="453"/>
      <point x="208" y="438" type="qcurve"/>
      <point x="204" y="438" type="line"/>
      <point x="204" y="528" type="line"/>
      <point x="50" y="498" type="line"/>
      <point x="50" y="464" type="line"/>
      <point x="124" y="451" type="line"/>
      <point x="124" y="46" type="line"/>
      <point x="50" y="46" type="line"/>
      <point x="50" y="0" type="line"/>
      <point x="280" y="0" type="line"/>
      <point x="280" y="46" type="line"/>
      <point x="206" y="46" type="line"/>
      <point x="206" y="369" type="line" smooth="yes"/>
      <point x="206" y="395"/>
      <point x="227" y="433"/>
      <point x="262" y="459"/>
      <point x="305" y="471"/>
      <point x="327" y="471" type="qcurve" smooth="yes"/>
      <point x="448" y="471"/>
      <point x="448" y="327" type="qcurve" smooth="yes"/>
      <point x="448" y="-96" type="line" smooth="yes"/>
      <point x="448" y="-176"/>
      <point x="386" y="-176" type="qcurve" smooth="yes"/>
      <point x="369" y="-176"/>
      <point x="360" y="-172" type="qcurve"/>
      <point x="360" y="-169" type="line"/>
      <point x="369" y="-166"/>
      <point x="382" y="-143"/>
      <point x="382" y="-129" type="qcurve" smooth="yes"/>
      <point x="382" y="-108"/>
      <point x="359" y="-82"/>
      <point x="337" y="-82" type="qcurve" smooth="yes"/>
      <point x="314" y="-82"/>
      <point x="288" y="-112"/>
      <point x="288" y="-134" type="qcurve" smooth="yes"/>
      <point x="288" y="-168"/>
      <point x="336" y="-212"/>
      <point x="386" y="-212" type="qcurve" smooth="yes"/>
    </contour>
  </outline>
</glyph>
<glyph name="OE" format="2">
  <advance width="1011"/>
  <unicode hex="0152"/>
  <note>
OE
</note>
  <outline>
    <contour>
      <point x="420" y="-12"/>
      <point x="462" y="0" type="qcurve"/>
      <point x="951" y="0" type="line"/>
      <point x="951" y="177" type="line"/>
      <point x="879" y="177" type="line"/>
      <point x="879" y="49" type="line"/>
      <point x="586" y="49" type="line"/>
      <point x="586" y="335" type="line"/>
      <point x="784" y="335" type="line"/>
      <point x="784" y="255" type="line"/>
      <point x="844" y="255" type="line"/>
      <point x="844" y="464" type="line"/>
      <point x="784" y="464" type="line"/>
      <point x="784" y="384" type="line"/>
      <point x="586" y="384" type="line"/>
      <point x="586" y="649" type="line"/>
      <point x="869" y="649" type="line"/>
      <point x="869" y="530" type="line"/>
      <point x="941" y="530" type="line"/>
      <point x="941" y="698" type="line"/>
      <point x="462" y="698" type="line"/>
      <point x="420" y="710"/>
      <point x="368" y="710" type="qcurve" smooth="yes"/>
      <point x="293" y="710"/>
      <point x="175" y="660"/>
      <point x="93" y="566"/>
      <point x="50" y="433"/>
      <point x="50" y="349" type="qcurve" smooth="yes"/>
      <point x="50" y="265"/>
      <point x="93" y="132"/>
      <point x="175" y="38"/>
      <point x="293" y="-12"/>
      <point x="368" y="-12" type="qcurve" smooth="yes"/>
    </contour>
    <contour>
      <point x="311" y="41"/>
      <point x="228" y="78"/>
      <point x="173" y="145"/>
      <point x="146" y="237"/>
      <point x="146" y="292" type="qcurve" smooth="yes"/>
      <point x="146" y="406" type="line" smooth="yes"/>
      <point x="146" y="461"/>
      <point x="173" y="553"/>
      <point x="229" y="620"/>
      <point x="312" y="657"/>
      <point x="368" y="657" type="qcurve" smooth="yes"/>
      <point x="410" y="657"/>
      <point x="477" y="639"/>
      <point x="500" y="622" type="qcurve"/>
      <point x="500" y="76" type="line"/>
      <point x="477" y="59"/>
      <point x="410" y="41"/>
      <point x="368" y="41" type="qcurve" smooth="yes"/>
    </contour>
  </outline>
</glyph>
<glyph name="tbar" format="2">
  <advance width="358"/>
  <unicode hex="0167"/>
  <note>
tbar
</note>
  <outline>
    <contour>
      <point x="224" y="-6"/>
      <point x="260" y="-3"/>
      <point x="293" y="3"/>
      <point x="320" y="11"/>
      <point x="329" y="16" type="qcurve"/>
      <point x="329" y="49" type="line"/>
      <point x="196" y="49" type="line"/>
      <point x="196" y="256" type="line"/>
      <point x="314" y="256" type="line"/>
      <point x="314" y="302" type="line"/>
      <point x="196" y="302" type="line"/>
      <point x="196" y="467" type="line"/>
      <point x="329" y="467" type="line"/>
      <point x="329" y="516" type="line"/>
      <point x="196" y="516" type="line"/>
      <point x="196" y="650" type="line"/>
      <point x="151" y="650" type="line"/>
      <point x="128" y="561" type="line" smooth="yes"/>
      <point x="125" y="550"/>
      <point x="118" y="533"/>
      <point x="103" y="522"/>
      <point x="78" y="516"/>
      <point x="57" y="516" type="qcurve" smooth="yes"/>
      <point x="48" y="516" type="line"/>
      <point x="48" y="467" type="line"/>
      <point x="114" y="467" type="line"/>
      <point x="114" y="302" type="line"/>
      <point x="63" y="302" type="line"/>
      <point x="63" y="256" type="line"/>
      <point x="114" y="256" type="line"/>
      <point x="114" y="89" type="line" smooth="yes"/>
      <point x="114" y="37"/>
      <point x="154" y="-6"/>
      <point x="207" y="-6" type="qcurve" smooth="yes"/>
    </contour>
  </outline>
</glyph>
<glyph name="uogonek" format="2">
  <advance width="618"/>
  <unicode hex="0173"/>
  <note>
uogonek
</note>
  <outline>
    <contour>
      <point x="554" y="-206"/>
      <point x="597" y="-184"/>
      <point x="607" y="-168" type="qcurve"/>
      <point x="586" y="-148" type="line"/>
      <point x="578" y="-158"/>
      <point x="556" y="-170"/>
      <point x="543" y="-170" type="qcurve" smooth="yes"/>
      <point x="522" y="-170"/>
      <point x="496" y="-146"/>
      <point x="496" y="-123" type="qcurve" smooth="yes"/>
      <point x="496" y="-113"/>
      <point x="500" y="-88"/>
      <point x="518" y="-55"/>
      <point x="553" y="-11"/>
      <point x="584" y="18" type="qcurve"/>
      <point x="584" y="52" type="line"/>
      <point x="510" y="65" type="line"/>
      <point x="510" y="528" type="line"/>
      <point x="354" y="498" type="line"/>
      <point x="354" y="464" type="line"/>
      <point x="428" y="451" type="line"/>
      <point x="428" y="147" type="line" smooth="yes"/>
      <point x="428" y="121"/>
      <point x="407" y="83"/>
      <point x="372" y="57"/>
      <point x="329" y="45"/>
      <point x="307" y="45" type="qcurve" smooth="yes"/>
      <point x="186" y="45"/>
      <point x="186" y="190" type="qcurve" smooth="yes"/>
      <point x="186" y="528" type="line"/>
      <point x="30" y="498" type="line"/>
      <point x="30" y="464" type="line"/>
      <point x="104" y="451" type="line"/>
      <point x="104" y="183" type="line" smooth="yes"/>
      <point x="104" y="85"/>
      <point x="185" y="-12"/>
      <point x="278" y="-12" type="qcurve" smooth="yes"/>
      <point x="308" y="-12"/>
      <point x="358" y="5"/>
      <point x="395" y="31"/>
      <point x="420" y="63"/>
      <point x="426" y="78" type="qcurve"/>
      <point x="430" y="78" type="line"/>
      <point x="430" y="-12" type="line"/>
      <point x="537" y="9" type="line"/>
      <point x="538" y="5" type="line"/>
      <point x="489" y="-30"/>
      <point x="427" y="-93"/>
      <point x="427" y="-132" type="qcurve" smooth="yes"/>
      <point x="427" y="-152"/>
      <point x="442" y="-180"/>
      <point x="468" y="-198"/>
      <point x="502" y="-206"/>
      <point x="521" y="-206" type="qcurve" smooth="yes"/>
    </contour>
  </outline>
</glyph>
<glyph name="florin" format="2">
  <advance width="465"/>
  <unicode hex="0192"/>
  <note>
florin
</note>
  <outline>
    <contour>
      <point x="208" y="-146"/>
      <point x="228" y="42" type="qcurve" smooth="yes"/>
      <point x="254" y="294" type="line"/>
      <point x="431" y="294" type="line"/>
      <point x="437" y="341" type="line"/>
      <point x="258" y="341" type="line"/>
      <point x="277" y="533" type="line" smooth="yes"/>
      <point x="281" y="573"/>
      <point x="299" y="627"/>
      <point x="326" y="659"/>
      <point x="360" y="672"/>
      <point x="380" y="672" type="qcurve" smooth="yes"/>
      <point x="391" y="672"/>
      <point x="413" y="670"/>
      <point x="418" y="668" type="qcurve"/>
      <point x="418" y="666" type="line"/>
      <point x="402" y="660"/>
      <point x="383" y="634"/>
      <point x="383" y="618" type="qcurve" smooth="yes"/>
      <point x="383" y="598"/>
      <point x="409" y="572"/>
      <point x="429" y="572" type="qcurve" smooth="yes"/>
      <point x="455" y="572"/>
      <point x="487" y="607"/>
      <point x="487" y="633" type="qcurve" smooth="yes"/>
      <point x="487" y="668"/>
      <point x="430" y="710"/>
      <point x="379" y="710" type="qcurve" smooth="yes"/>
      <point x="297" y="710"/>
      <point x="202" y="616"/>
      <point x="193" y="522" type="qcurve" smooth="yes"/>
      <point x="175" y="341" type="line"/>
      <point x="28" y="341" type="line"/>
      <point x="22" y="294" type="line"/>
      <point x="171" y="294" type="line"/>
      <point x="144" y="31" type="line" smooth="yes"/>
      <point x="140" y="-9"/>
      <point x="122" y="-63"/>
      <point x="95" y="-95"/>
      <point x="61" y="-108"/>
      <point x="42" y="-108" type="qcurve" smooth="yes"/>
      <point x="31" y="-108"/>
      <point x="9" y="-106"/>
      <point x="3" y="-104" type="qcurve"/>
      <point x="3" y="-102" type="line"/>
      <point x="19" y="-96"/>
      <point x="38" y="-70"/>
      <point x="38" y="-54" type="qcurve" smooth="yes"/>
      <point x="38" y="-34"/>
      <point x="12" y="-8"/>
      <point x="-8" y="-8" type="qcurve" smooth="yes"/>
      <point x="-34" y="-8"/>
      <point x="-66" y="-43"/>
      <point x="-66" y="-69" type="qcurve" smooth="yes"/>
      <point x="-66" y="-104"/>
      <point x="-9" y="-146"/>
      <point x="42" y="-146" type="qcurve" smooth="yes"/>
    </contour>
  </outline>
</glyph>
<glyph name="ohorn" format="2">
  <advance width="565"/>
  <unicode hex="01A1"/>
  <note>
ohorn
</note>
  <anchor x="282" y="0" name="bottom"/>
  <anchor x="282" y="540" name="top"/>
  <outline>
    <contour>
      <point x="335" y="-12"/>
      <point x="423" y="26"/>
      <point x="485" y="97"/>
      <point x="519" y="196"/>
      <point x="519" y="258" type="qcurve" smooth="yes"/>
      <point x="519" y="333"/>
      <point x="470" y="446"/>
      <point x="426" y="481" type="qcurve"/>
      <point x="447" y="481" type="line" smooth="yes"/>
      <point x="482" y="481"/>
      <point x="516" y="515"/>
      <point x="516" y="541" type="qcurve" smooth="yes"/>
      <point x="516" y="627" type="line"/>
      <point x="439" y="627" type="line"/>
      <point x="439" y="515" type="line"/>
      <point x="363" y="515" type="line"/>
      <point x="327" y="528"/>
      <point x="282" y="528" type="qcurve" smooth="yes"/>
      <point x="229" y="528"/>
      <point x="141" y="490"/>
      <point x="79" y="419"/>
      <point x="45" y="319"/>
      <point x="45" y="258" type="qcurve" smooth="yes"/>
      <point x="45" y="196"/>
      <point x="79" y="97"/>
      <point x="141" y="26"/>
      <point x="229" y="-12"/>
      <point x="282" y="-12" type="qcurve" smooth="yes"/>
    </contour>
    <contour>
      <point x="244" y="37"/>
      <point x="190" y="62"/>
      <point x="155" y="107"/>
      <point x="138" y="168"/>
      <point x="138" y="204" type="qcurve" smooth="yes"/>
      <point x="138" y="312" type="line" smooth="yes"/>
      <point x="138" y="348"/>
      <point x="155" y="409"/>
      <point x="190" y="454"/>
      <point x="244" y="479"/>
      <point x="282" y="479" type="qcurve" smooth="yes"/>
      <point x="319" y="479"/>
      <point x="374" y="454"/>
      <point x="409" y="409"/>
      <point x="426" y="348"/>
      <point x="426" y="312" type="qcurve" smooth="yes"/>
      <point x="426" y="204" type="line" smooth="yes"/>
      <point x="426" y="168"/>
      <point x="409" y="107"/>
      <point x="374" y="62"/>
      <point x="319" y="37"/>
      <point x="282" y="37" type="qcurve" smooth="yes"/>
    </contour>
  </outline>
</glyph>
<glyph name="Uhorn" format="2">
  <advance width="733"/>
  <unicode hex="01AF"/>
  <note>
Uhorn
</note>
  <anchor x="368" y="0" name="bottom"/>
  <anchor x="383" y="698" name="top"/>
  <outline>
    <contour>
      <point x="442" y="-12"/>
      <point x="534" y="23"/>
      <point x="591" y="95"/>
      <point x="615" y="206"/>
      <point x="615" y="282" type="qcurve" smooth="yes"/>
      <point x="615" y="663" type="line"/>
      <point x="642" y="663" type="line" smooth="yes"/>
      <point x="677" y="663"/>
      <point x="710" y="698"/>
      <point x="710" y="724" type="qcurve" smooth="yes"/>
      <point x="710" y="810" type="line"/>
      <point x="634" y="810" type="line"/>
      <point x="634" y="698" type="line"/>
      <point x="485" y="698" type="line"/>
      <point x="485" y="652" type="line"/>
      <point x="560" y="652" type="line"/>
      <point x="560" y="253" type="line" smooth="yes"/>
      <point x="560" y="148"/>
      <point x="478" y="45"/>
      <point x="380" y="45" type="qcurve" smooth="yes"/>
      <point x="331" y="45"/>
      <point x="265" y="71"/>
      <point x="224" y="122"/>
      <point x="206" y="200"/>
      <point x="206" y="253" type="qcurve" smooth="yes"/>
      <point x="206" y="652" type="line"/>
      <point x="281" y="652" type="line"/>
      <point x="281" y="698" type="line"/>
      <point x="45" y="698" type="line"/>
      <point x="45" y="652" type="line"/>
      <point x="120" y="652" type="line"/>
      <point x="120" y="269" type="line" smooth="yes"/>
      <point x="120" y="192"/>
      <point x="148" y="86"/>
      <point x="210" y="18"/>
      <point x="307" y="-12"/>
      <point x="375" y="-12" type="qcurve" smooth="yes"/>
    </contour>
  </outline>
</glyph>
<glyph name="circumflex" format="2">
  <advance width="600"/>
  <unicode hex="02C6"/>
  <note>
circumflex
</note>
  <outline>
    <contour>
      <point x="173" y="598" type="line"/>
      <point x="300" y="695" type="line"/>
      <point x="427" y="598" type="line"/>
      <point x="451" y="614" type="line"/>
      <point x="328" y="763" type="line"/>
      <point x="272" y="763" type="line"/>
      <point x="149" y="614" type="line"/>
    </contour>
  </outline>
</glyph>
<glyph name="ogonek" format="2">
  <advance width="600"/>
  <unicode hex="02DB"/>
  <note>
ogonek
</note>
  <outline>
    <contour>
      <point x="279" y="-206"/>
      <point x="322" y="-184"/>
      <point x="332" y="-168" type="qcurve"/>
      <point x="311" y="-148" type="line"/>
      <point x="303" y="-158"/>
      <point x="281" y="-170"/>
      <point x="267" y="-170" type="qcurve" smooth="yes"/>
      <point x="246" y="-170"/>
      <point x="221" y="-144"/>
      <point x="221" y="-124" type="qcurve" smooth="yes"/>
      <point x="221" y="-115"/>
      <point x="225" y="-92"/>
      <point x="240" y="-63"/>
      <point x="272" y="-25"/>
      <point x="300" y="0" type="qcurve"/>
      <point x="292" y="21" type="line"/>
      <point x="261" y="21" type="line"/>
      <point x="266" y="4" type="line"/>
      <point x="215" y="-32"/>
      <point x="152" y="-93"/>
      <point x="152" y="-132" type="qcurve" smooth="yes"/>
      <point x="152" y="-170"/>
      <point x="207" y="-206"/>
      <point x="245" y="-206" type="qcurve" smooth="yes"/>
    </contour>
  </outline>
</glyph>
<glyph name="hungarumlaut" format="2">
  <advance width="600"/>
  <unicode hex="02DD"/>
  <note>
hungarumlaut
</note>
  <outline>
    <contour>
      <point x="215" y="585" type="line"/>
      <point x="341" y="738" type="line"/>
      <point x="264" y="776" type="line"/>
      <point x="188" y="599" type="line"/>
    </contour>
    <contour>
      <point x="375" y="585" type="line"/>
      <point x="501" y="738" type="line"/>
      <point x="424" y="776" type="line"/>
      <point x="348" y="599" type="line"/>
    </contour>
  </outline>
</glyph>
<glyph name="uni0309" format="2">
  <advance width="0"/>
  <unicode hex="0309"/>
  <note>
uni0309
</note>
  <anchor x="0" y="540" name="_top"/>
  <outline>
    <contour>
      <point x="14" y="578" type="line"/>
      <point x="41" y="612" type="line" smooth="yes"/>
      <point x="64" y="642"/>
      <point x="88" y="691"/>
      <point x="88" y="711" type="qcurve" smooth="yes"/>
      <point x="88" y="732"/>
      <point x="58" y="762"/>
      <point x="23" y="762" type="qcurve" smooth="yes"/>
      <point x="-83" y="762" type="line"/>
      <point x="-83" y="700" type="line"/>
      <point x="40" y="700" type="line"/>
      <point x="-14" y="592" type="line"/>
    </contour>
  </outline>
</glyph>
<glyph name="uni031B" format="2">
  <advance width="0"/>
  <unicode hex="031B"/>
  <note>
uni031B
</note>
  <outline>
    <contour>
      <point x="-89" y="481" type="line"/>
      <point x="9" y="481" type="line" smooth="yes"/>
      <point x="44" y="481"/>
      <point x="77" y="514"/>
      <point x="77" y="540" type="qcurve" smooth="yes"/>
      <point x="77" y="627" type="line"/>
      <point x="1" y="627" type="line"/>
      <point x="1" y="515" type="line"/>
      <point x="-89" y="515" type="line"/>
    </contour>
  </outline>
</glyph>
<glyph name="uni0409" format="2">
  <advance width="935"/>
  <unicode hex="0409"/>
  <note>
uni0409
</note>
  <outline>
    <contour>
      <point x="136" y="-12"/>
      <point x="183" y="4"/>
      <point x="203" y="23" type="qcurve" smooth="yes"/>
      <point x="224" y="45"/>
      <point x="254" y="116"/>
      <point x="273" y="237"/>
      <point x="281" y="419"/>
      <point x="281" y="552" type="qcurve" smooth="yes"/>
      <point x="281" y="649" type="line"/>
      <point x="454" y="649" type="line"/>
      <point x="454" y="46" type="line"/>
      <point x="379" y="46" type="line"/>
      <point x="379" y="0" type="line"/>
      <point x="689" y="0" type="line" smooth="yes"/>
      <point x="786" y="0"/>
      <point x="891" y="103"/>
      <point x="891" y="204" type="qcurve" smooth="yes"/>
      <point x="891" y="304"/>
      <point x="786" y="407"/>
      <point x="689" y="407" type="qcurve" smooth="yes"/>
      <point x="540" y="407" type="line"/>
      <point x="540" y="652" type="line"/>
      <point x="615" y="652" type="line"/>
      <point x="615" y="698" type="line"/>
      <point x="145" y="698" type="line"/>
      <point x="145" y="652" type="line"/>
      <point x="220" y="652" type="line"/>
      <point x="220" y="547" type="line" smooth="yes"/>
      <point x="220" y="413"/>
      <point x="212" y="238"/>
      <point x="196" y="128"/>
      <point x="173" y="72"/>
      <point x="158" y="57" type="qcurve" smooth="yes"/>
      <point x="147" y="46"/>
      <point x="123" y="36"/>
      <point x="111" y="36" type="qcurve" smooth="yes"/>
      <point x="99" y="36"/>
      <point x="93" y="39" type="qcurve"/>
      <point x="93" y="43" type="line"/>
      <point x="104" y="47"/>
      <point x="124" y="74"/>
      <point x="124" y="93" type="qcurve" smooth="yes"/>
      <point x="124" y="118"/>
      <point x="95" y="150"/>
      <point x="69" y="150" type="qcurve" smooth="yes"/>
      <point x="41" y="150"/>
      <point x="10" y="112"/>
      <point x="10" y="80" type="qcurve" smooth="yes"/>
      <point x="10" y="42"/>
      <point x="63" y="-12"/>
      <point x="113" y="-12" type="qcurve" smooth="yes"/>
    </contour>
    <contour>
      <point x="540" y="49" type="line"/>
      <point x="540" y="358" type="line"/>
      <point x="685" y="358" type="line" smooth="yes"/>
      <point x="741" y="358"/>
      <point x="799" y="289"/>
      <point x="799" y="235" type="qcurve" smooth="yes"/>
      <point x="799" y="172" type="line" smooth="yes"/>
      <point x="799" y="118"/>
      <point x="741" y="49"/>
      <point x="685" y="49" type="qcurve" smooth="yes"/>
    </contour>
  </outline>
</glyph>
<glyph name="uni040B" format="2">
  <advance width="891"/>
  <unicode hex="040B"/>
  <note>
uni040B
</note>
  <outline>
    <contour>
      <point x="208" y="0" type="line"/>
      <point x="444" y="0" type="line"/>
      <point x="444" y="46" type="line"/>
      <point x="369" y="46" type="line"/>
      <point x="369" y="334" type="line"/>
      <point x="395" y="351"/>
      <point x="473" y="372"/>
      <point x="522" y="372" type="qcurve" smooth="yes"/>
      <point x="564" y="372"/>
      <point x="623" y="354"/>
      <point x="659" y="312"/>
      <point x="675" y="245"/>
      <point x="675" y="196" type="qcurve" smooth="yes"/>
      <point x="675" y="46" type="line"/>
      <point x="600" y="46" type="line"/>
      <point x="600" y="0" type="line"/>
      <point x="836" y="0" type="line"/>
      <point x="836" y="46" type="line"/>
      <point x="761" y="46" type="line"/>
      <point x="761" y="200" type="line" smooth="yes"/>
      <point x="761" y="258"/>
      <point x="738" y="341"/>
      <point x="685" y="395"/>
      <point x="600" y="421"/>
      <point x="539" y="421" type="qcurve" smooth="yes"/>
      <point x="484" y="421"/>
      <point x="408" y="402"/>
      <point x="373" y="384" type="qcurve"/>
      <point x="369" y="384" type="line"/>
      <point x="369" y="649" type="line"/>
      <point x="545" y="649" type="line"/>
      <point x="545" y="530" type="line"/>
      <point x="617" y="530" type="line"/>
      <point x="617" y="698" type="line"/>
      <point x="35" y="698" type="line"/>
      <point x="35" y="530" type="line"/>
      <point x="107" y="530" type="line"/>
      <point x="107" y="649" type="line"/>
      <point x="283" y="649" type="line"/>
      <point x="283" y="46" type="line"/>
      <point x="208" y="46" type="line"/>
    </contour>
  </outline>
</glyph>
<glyph name="uni0411" format="2">
  <advance width="620"/>
  <unicode hex="0411"/>
  <note>
uni0411
</note>
  <outline>
    <contour>
      <point x="55" y="0" type="line"/>
      <point x="364" y="0" type="line" smooth="yes"/>
      <point x="461" y="0"/>
      <point x="566" y="102"/>
      <point x="566" y="200" type="qcurve" smooth="yes"/>
      <point x="566" y="297"/>
      <point x="461" y="398"/>
      <point x="364" y="398" type="qcurve" smooth="yes"/>
      <point x="216" y="398" type="line"/>
      <point x="216" y="649" type="line"/>
      <point x="446" y="649" type="line"/>
      <point x="446" y="530" type="line"/>
      <point x="518" y="530" type="line"/>
      <point x="518" y="698" type="line"/>
      <point x="55" y="698" type="line"/>
      <point x="55" y="652" type="line"/>
      <point x="130" y="652" type="line"/>
      <point x="130" y="46" type="line"/>
      <point x="55" y="46" type="line"/>
    </contour>
    <contour>
      <point x="216" y="49" type="line"/>
      <point x="216" y="349" type="line"/>
      <point x="360" y="349" type="line" smooth="yes"/>
      <point x="416" y="349"/>
      <point x="474" y="281"/>
      <point x="474" y="226" type="qcurve" smooth="yes"/>
      <point x="474" y="172" type="line" smooth="yes"/>
      <point x="474" y="117"/>
      <point x="416" y="49"/>
      <point x="360" y="49" type="qcurve" smooth="yes"/>
    </contour>
  </outline>
</glyph>
<glyph name="uni0414" format="2">
  <advance width="690"/>
  <unicode hex="0414"/>
  <note>
uni0414
</note>
  <outline>
    <contour>
      <point x="5" y="-160" type="line"/>
      <point x="83" y="-160" type="line"/>
      <point x="83" y="0" type="line"/>
      <point x="572" y="0" type="line"/>
      <point x="572" y="-160" type="line"/>
      <point x="650" y="-160" type="line"/>
      <point x="650" y="49" type="line"/>
      <point x="547" y="49" type="line"/>
      <point x="547" y="652" type="line"/>
      <point x="622" y="652" type="line"/>
      <point x="622" y="698" type="line"/>
      <point x="142" y="698" type="line"/>
      <point x="142" y="652" type="line"/>
      <point x="217" y="652" type="line"/>
      <point x="217" y="603" type="line" smooth="yes"/>
      <point x="217" y="409"/>
      <point x="141" y="134"/>
      <point x="80" y="49" type="qcurve"/>
      <point x="5" y="49" type="line"/>
    </contour>
    <contour>
      <point x="150" y="49" type="line"/>
      <point x="181" y="94"/>
      <point x="229" y="213"/>
      <point x="261" y="355"/>
      <point x="278" y="516"/>
      <point x="278" y="603" type="qcurve" smooth="yes"/>
      <point x="278" y="649" type="line"/>
      <point x="461" y="649" type="line"/>
      <point x="461" y="49" type="line"/>
    </contour>
  </outline>
</glyph>
<glyph name="uni0418" format="2">
  <advance width="787"/>
  <unicode hex="0418"/>
  <note>
uni0418
</note>
  <anchor x="394" y="698" name="top"/>
  <outline>
    <contour>
      <point x="55" y="0" type="line"/>
      <point x="289" y="0" type="line"/>
      <point x="289" y="46" type="line"/>
      <point x="214" y="46" type="line"/>
      <point x="214" y="71" type="line"/>
      <point x="580" y="549" type="line"/>
      <point x="583" y="549" type="line"/>
      <point x="573" y="358" type="line"/>
      <point x="573" y="46" type="line"/>
      <point x="498" y="46" type="line"/>
      <point x="498" y="0" type="line"/>
      <point x="732" y="0" type="line"/>
      <point x="732" y="46" type="line"/>
      <point x="657" y="46" type="line"/>
      <point x="657" y="652" type="line"/>
      <point x="732" y="652" type="line"/>
      <point x="732" y="698" type="line"/>
      <point x="498" y="698" type="line"/>
      <point x="498" y="652" type="line"/>
      <point x="573" y="652" type="line"/>
      <point x="573" y="627" type="line"/>
      <point x="207" y="149" type="line"/>
      <point x="204" y="149" type="line"/>
      <point x="214" y="340" type="line"/>
      <point x="214" y="652" type="line"/>
      <point x="289" y="652" type="line"/>
      <point x="289" y="698" type="line"/>
      <point x="55" y="698" type="line"/>
      <point x="55" y="652" type="line"/>
      <point x="130" y="652" type="line"/>
      <point x="130" y="46" type="line"/>
      <point x="55" y="46" type="line"/>
    </contour>
  </outline>
</glyph>
<glyph name="uni041F" format="2">
  <advance width="787"/>
  <unicode hex="041F"/>
  <note>
uni041F
</note>
  <outline>
    <contour>
      <point x="55" y="0" type="line"/>
      <point x="291" y="0" type="line"/>
      <point x="291" y="46" type="line"/>
      <point x="216" y="46" type="line"/>
      <point x="216" y="649" type="line"/>
      <point x="571" y="649" type="line"/>
      <point x="571" y="46" type="line"/>
      <point x="496" y="46" type="line"/>
      <point x="496" y="0" type="line"/>
      <point x="732" y="0" type="line"/>
      <point x="732" y="46" type="line"/>
      <point x="657" y="46" type="line"/>
      <point x="657" y="652" type="line"/>
      <point x="732" y="652" type="line"/>
      <point x="732" y="698" type="line"/>
      <point x="55" y="698" type="line"/>
      <point x="55" y="652" type="line"/>
      <point x="130" y="652" type="line"/>
      <point x="130" y="46" type="line"/>
      <point x="55" y="46" type="line"/>
    </contour>
  </outline>
</glyph>
<glyph name="uni0424" format="2">
  <advance width="826"/>
  <unicode hex="0424"/>
  <note>
uni0424
</note>
  <outline>
    <contour>
      <point x="295" y="-12" type="line"/>
      <point x="531" y="-12" type="line"/>
      <point x="531" y="34" type="line"/>
      <point x="456" y="34" type="line"/>
      <point x="456" y="116" type="line"/>
      <point x="510" y="116" type="line" smooth="yes"/>
      <point x="637" y="116"/>
      <point x="781" y="237"/>
      <point x="781" y="353" type="qcurve" smooth="yes"/>
      <point x="781" y="469"/>
      <point x="637" y="590"/>
      <point x="510" y="590" type="qcurve" smooth="yes"/>
      <point x="456" y="590" type="line"/>
      <point x="456" y="664" type="line"/>
      <point x="531" y="664" type="line"/>
      <point x="531" y="710" type="line"/>
      <point x="295" y="710" type="line"/>
      <point x="295" y="664" type="line"/>
      <point x="370" y="664" type="line"/>
      <point x="370" y="590" type="line"/>
      <point x="316" y="590" type="line" smooth="yes"/>
      <point x="189" y="590"/>
      <point x="45" y="469"/>
      <point x="45" y="353" type="qcurve" smooth="yes"/>
      <point x="45" y="237"/>
      <point x="189" y="116"/>
      <point x="316" y="116" type="qcurve" smooth="yes"/>
      <point x="370" y="116" type="line"/>
      <point x="370" y="34" type="line"/>
      <point x="295" y="34" type="line"/>
    </contour>
    <contour>
      <point x="321" y="165" type="line" smooth="yes"/>
      <point x="239" y="165"/>
      <point x="136" y="241"/>
      <point x="136" y="318" type="qcurve" smooth="yes"/>
      <point x="136" y="388" type="line" smooth="yes"/>
      <point x="136" y="465"/>
      <point x="239" y="541"/>
      <point x="321" y="541" type="qcurve" smooth="yes"/>
      <point x="370" y="541" type="line"/>
      <point x="370" y="165" type="line"/>
    </contour>
    <contour>
      <point x="456" y="165" type="line"/>
      <point x="456" y="541" type="line"/>
      <point x="505" y="541" type="line" smooth="yes"/>
      <point x="587" y="541"/>
      <point x="690" y="465"/>
      <point x="690" y="388" type="qcurve" smooth="yes"/>
      <point x="690" y="318" type="line" smooth="yes"/>
      <point x="690" y="241"/>
      <point x="587" y="165"/>
      <point x="505" y="165" type="qcurve" smooth="yes"/>
    </contour>
  </outline>
</glyph>
<glyph name="uni0429" format="2">
  <advance width="1021"/>
  <unicode hex="0429"/>
  <note>
uni0429
</note>
  <outline>
    <contour>
      <point x="902" y="-160" type="line"/>
      <point x="981" y="-160" type="line"/>
      <point x="981" y="49" type="line"/>
      <point x="878" y="49" type="line"/>
      <point x="878" y="652" type="line"/>
      <point x="953" y="652" type="line"/>
      <point x="953" y="698" type="line"/>
      <point x="717" y="698" type="line"/>
      <point x="717" y="652" type="line"/>
      <point x="792" y="652" type="line"/>
      <point x="792" y="49" type="line"/>
      <point x="547" y="49" type="line"/>
      <point x="547" y="652" type="line"/>
      <point x="622" y="652" type="line"/>
      <point x="622" y="698" type="line"/>
      <point x="386" y="698" type="line"/>
      <point x="386" y="652" type="line"/>
      <point x="461" y="652" type="line"/>
      <point x="461" y="49" type="line"/>
      <point x="216" y="49" type="line"/>
      <point x="216" y="652" type="line"/>
      <point x="291" y="652" type="line"/>
      <point x="291" y="698" type="line"/>
      <point x="55" y="698" type="line"/>
      <point x="55" y="652" type="line"/>
      <point x="130" y="652" type="line"/>
      <point x="130" y="46" type="line"/>
      <point x="55" y="46" type="line"/>
      <point x="55" y="0" type="line"/>
      <point x="902" y="0" type="line"/>
    </contour>
  </outline>
</glyph>
<glyph name="uni042A" format="2">
  <advance width="746"/>
  <unicode hex="042A"/>
  <note>
uni042A
</note>
  <outline>
    <contour>
      <point x="180" y="0" type="line"/>
      <point x="500" y="0" type="line" smooth="yes"/>
      <point x="597" y="0"/>
      <point x="702" y="103"/>
      <point x="702" y="204" type="qcurve" smooth="yes"/>
      <point x="702" y="304"/>
      <point x="597" y="407"/>
      <point x="500" y="407" type="qcurve" smooth="yes"/>
      <point x="341" y="407" type="line"/>
      <point x="341" y="652" type="line"/>
      <point x="416" y="652" type="line"/>
      <point x="416" y="698" type="line"/>
      <point x="35" y="698" type="line"/>
      <point x="35" y="530" type="line"/>
      <point x="107" y="530" type="line"/>
      <point x="107" y="649" type="line"/>
      <point x="255" y="649" type="line"/>
      <point x="255" y="46" type="line"/>
      <point x="180" y="46" type="line"/>
    </contour>
    <contour>
      <point x="341" y="49" type="line"/>
      <point x="341" y="358" type="line"/>
      <point x="495" y="358" type="line" smooth="yes"/>
      <point x="552" y="358"/>
      <point x="610" y="289"/>
      <point x="610" y="235" type="qcurve" smooth="yes"/>
      <point x="610" y="173" type="line" smooth="yes"/>
      <point x="610" y="118"/>
      <point x="552" y="49"/>
      <point x="495" y="49" type="qcurve" smooth="yes"/>
    </contour>
  </outline>
</glyph>
<glyph name="uni042E" format="2">
  <advance width="987"/>
  <unicode hex="042E"/>
  <note>
uni042E
</note>
  <outline>
    <contour>
      <point x="711" y="-12"/>
      <point x="818" y="37"/>
      <point x="893" y="129"/>
      <point x="932" y="263"/>
      <point x="932" y="349" type="qcurve" smooth="yes"/>
      <point x="932" y="434"/>
      <point x="893" y="569"/>
      <point x="818" y="661"/>
      <point x="711" y="710"/>
      <point x="643" y="710" type="qcurve" smooth="yes"/>
      <point x="513" y="710"/>
      <point x="363" y="538"/>
      <point x="356" y="380" type="qcurve"/>
      <point x="216" y="380" type="line"/>
      <point x="216" y="652" type="line"/>
      <point x="291" y="652" type="line"/>
      <point x="291" y="698" type="line"/>
      <point x="55" y="698" type="line"/>
      <point x="55" y="652" type="line"/>
      <point x="130" y="652" type="line"/>
      <point x="130" y="46" type="line"/>
      <point x="55" y="46" type="line"/>
      <point x="55" y="0" type="line"/>
      <point x="291" y="0" type="line"/>
      <point x="291" y="46" type="line"/>
      <point x="216" y="46" type="line"/>
      <point x="216" y="332" type="line"/>
      <point x="355" y="332" type="line"/>
      <point x="357" y="250"/>
      <point x="398" y="122"/>
      <point x="472" y="34"/>
      <point x="577" y="-12"/>
      <point x="643" y="-12" type="qcurve" smooth="yes"/>
    </contour>
    <contour>
      <point x="593" y="41"/>
      <point x="521" y="77"/>
      <point x="474" y="142"/>
      <point x="451" y="233"/>
      <point x="451" y="287" type="qcurve" smooth="yes"/>
      <point x="451" y="411" type="line" smooth="yes"/>
      <point x="451" y="465"/>
      <point x="474" y="556"/>
      <point x="521" y="621"/>
      <point x="593" y="657"/>
      <point x="643" y="657" type="qcurve" smooth="yes"/>
      <point x="693" y="657"/>
      <point x="766" y="621"/>
      <point x="813" y="556"/>
      <point x="836" y="465"/>
      <point x="836" y="411" type="qcurve" smooth="yes"/>
      <point x="836" y="287" type="line" smooth="yes"/>
      <point x="836" y="233"/>
      <point x="813" y="142"/>
      <point x="766" y="77"/>
      <point x="693" y="41"/>
      <point x="643" y="41" type="qcurve" smooth="yes"/>
    </contour>
  </outline>
</glyph>
<glyph name="uni0431" format="2">
  <advance width="546"/>
  <unicode hex="0431"/>
  <note>
uni0431
</note>
  <outline>
    <contour>
      <point x="326" y="-12"/>
      <point x="410" y="25"/>
      <point x="469" y="94"/>
      <point x="501" y="192"/>
      <point x="501" y="252" type="qcurve" smooth="yes"/>
      <point x="501" y="376"/>
      <point x="383" y="506"/>
      <point x="283" y="506" type="qcurve" smooth="yes"/>
      <point x="213" y="506"/>
      <point x="127" y="445"/>
      <point x="102" y="387" type="qcurve"/>
      <point x="98" y="387" type="line"/>
      <point x="101" y="428"/>
      <point x="110" y="488"/>
      <point x="123" y="532"/>
      <point x="141" y="564"/>
      <point x="153" y="577" type="qcurve" smooth="yes"/>
      <point x="164" y="587"/>
      <point x="190" y="600"/>
      <point x="227" y="608"/>
      <point x="278" y="613"/>
      <point x="314" y="615" type="qcurve" smooth="yes"/>
      <point x="350" y="618"/>
      <point x="399" y="624"/>
      <point x="432" y="633"/>
      <point x="452" y="644"/>
      <point x="459" y="651" type="qcurve" smooth="yes"/>
      <point x="470" y="663"/>
      <point x="481" y="694"/>
      <point x="481" y="717" type="qcurve" smooth="yes"/>
      <point x="481" y="742"/>
      <point x="475" y="760" type="qcurve"/>
      <point x="435" y="760" type="line"/>
      <point x="430" y="721" type="line"/>
      <point x="413" y="718"/>
      <point x="363" y="712"/>
      <point x="325" y="707" type="qcurve" smooth="yes"/>
      <point x="284" y="702"/>
      <point x="223" y="694"/>
      <point x="178" y="681"/>
      <point x="144" y="662"/>
      <point x="130" y="647" type="qcurve" smooth="yes"/>
      <point x="108" y="624"/>
      <point x="76" y="564"/>
      <point x="55" y="481"/>
      <point x="45" y="370"/>
      <point x="45" y="297" type="qcurve" smooth="yes"/>
      <point x="45" y="210"/>
      <point x="86" y="88"/>
      <point x="122" y="50" type="qcurve" smooth="yes"/>
      <point x="182" y="-12"/>
      <point x="274" y="-12" type="qcurve" smooth="yes"/>
    </contour>
    <contour>
      <point x="238" y="37"/>
      <point x="187" y="61"/>
      <point x="154" y="105"/>
      <point x="138" y="165"/>
      <point x="138" y="200" type="qcurve" smooth="yes"/>
      <point x="138" y="294" type="line" smooth="yes"/>
      <point x="138" y="329"/>
      <point x="154" y="389"/>
      <point x="187" y="432"/>
      <point x="238" y="457"/>
      <point x="273" y="457" type="qcurve" smooth="yes"/>
      <point x="308" y="457"/>
      <point x="359" y="432"/>
      <point x="392" y="389"/>
      <point x="408" y="329"/>
      <point x="408" y="294" type="qcurve" smooth="yes"/>
      <point x="408" y="200" type="line" smooth="yes"/>
      <point x="408" y="165"/>
      <point x="392" y="105"/>
      <point x="359" y="61"/>
      <point x="308" y="37"/>
      <point x="273" y="37" type="qcurve" smooth="yes"/>
    </contour>
  </outline>
</glyph>
<glyph name="uni0437" format="2">
  <advance width="502"/>
  <unicode hex="0437"/>
  <note>
uni0437
</note>
  <anchor x="258" y="540" name="top"/>
  <outline>
    <contour>
      <point x="282" y="-12"/>
      <point x="357" y="10"/>
      <point x="412" y="50"/>
      <point x="443" y="107"/>
      <point x="443" y="142" type="qcurve" smooth="yes"/>
      <point x="443" y="195"/>
      <point x="381" y="257"/>
      <point x="328" y="268" type="qcurve"/>
      <point x="328" y="272" type="line"/>
      <point x="373" y="283"/>
      <point x="431" y="344"/>
      <point x="431" y="392" type="qcurve" smooth="yes"/>
      <point x="431" y="455"/>
      <point x="341" y="528"/>
      <point x="258" y="528" type="qcurve" smooth="yes"/>
      <point x="207" y="528"/>
      <point x="144" y="493"/>
      <point x="125" y="467" type="qcurve"/>
      <point x="122" y="467" type="line"/>
      <point x="122" y="516" type="line"/>
      <point x="62" y="516" type="line"/>
      <point x="62" y="359" type="line"/>
      <point x="122" y="359" type="line"/>
      <point x="122" y="388" type="line" smooth="yes"/>
      <point x="122" y="431"/>
      <point x="191" y="483"/>
      <point x="247" y="483" type="qcurve" smooth="yes"/>
      <point x="295" y="483"/>
      <point x="344" y="431"/>
      <point x="344" y="393" type="qcurve" smooth="yes"/>
      <point x="344" y="373" type="line" smooth="yes"/>
      <point x="344" y="335"/>
      <point x="293" y="288"/>
      <point x="249" y="288" type="qcurve" smooth="yes"/>
      <point x="181" y="288" type="line"/>
      <point x="181" y="239" type="line"/>
      <point x="254" y="239" type="line" smooth="yes"/>
      <point x="307" y="239"/>
      <point x="357" y="187"/>
      <point x="357" y="151" type="qcurve" smooth="yes"/>
      <point x="357" y="126" type="line" smooth="yes"/>
      <point x="357" y="88"/>
      <point x="294" y="34"/>
      <point x="231" y="34" type="qcurve" smooth="yes"/>
      <point x="189" y="34"/>
      <point x="140" y="46"/>
      <point x="123" y="57" type="qcurve"/>
      <point x="123" y="59" type="line"/>
      <point x="141" y="67"/>
      <point x="160" y="96"/>
      <point x="160" y="115" type="qcurve" smooth="yes"/>
      <point x="160" y="139"/>
      <point x="132" y="173"/>
      <point x="104" y="173" type="qcurve" smooth="yes"/>
      <point x="78" y="173"/>
      <point x="46" y="139"/>
      <point x="46" y="110" type="qcurve" smooth="yes"/>
      <point x="46" y="86"/>
      <point x="73" y="41"/>
      <point x="123" y="8"/>
      <point x="194" y="-12"/>
      <point x="239" y="-12" type="qcurve" smooth="yes"/>
    </contour>
  </outline>
</glyph>
<glyph name="uni0438" format="2">
  <advance width="660"/>
  <unicode hex="0438"/>
  <note>
uni0438
</note>
  <anchor x="330" y="540" name="top"/>
  <outline>
    <contour>
      <point x="50" y="0" type="line"/>
      <point x="278" y="0" type="line"/>
      <point x="278" y="46" type="line"/>
      <point x="204" y="46" type="line"/>
      <point x="204" y="75" type="line"/>
      <point x="461" y="373" type="line"/>
      <point x="465" y="373" type="line"/>
      <point x="456" y="233" type="line"/>
      <point x="456" y="46" type="line"/>
      <point x="382" y="46" type="line"/>
      <point x="382" y="0" type="line"/>
      <point x="610" y="0" type="line"/>
      <point x="610" y="46" type="line"/>
      <point x="536" y="46" type="line"/>
      <point x="536" y="471" type="line"/>
      <point x="610" y="471" type="line"/>
      <point x="610" y="516" type="line"/>
      <point x="382" y="516" type="line"/>
      <point x="382" y="471" type="line"/>
      <point x="456" y="471" type="line"/>
      <point x="456" y="441" type="line"/>
      <point x="198" y="143" type="line"/>
      <point x="195" y="143" type="line"/>
      <point x="204" y="282" type="line"/>
      <point x="204" y="471" type="line"/>
      <point x="278" y="471" type="line"/>
      <point x="278" y="516" type="line"/>
      <point x="50" y="516" type="line"/>
      <point x="50" y="471" type="line"/>
      <point x="124" y="471" type="line"/>
      <point x="124" y="46" type="line"/>
      <point x="50" y="46" type="line"/>
    </contour>
  </outline>
</glyph>
<glyph name="uni043A" format="2">
  <advance width="581"/>
  <unicode hex="043A"/>
  <note>
uni043A
</note>
  <anchor x="328" y="540" name="top"/>
  <outline>
    <contour>
      <point x="50" y="0" type="line"/>
      <point x="280" y="0" type="line"/>
      <point x="280" y="46" type="line"/>
      <point x="206" y="46" type="line"/>
      <point x="206" y="238" type="line"/>
      <point x="289" y="238" type="line"/>
      <point x="443" y="0" type="line"/>
      <point x="566" y="0" type="line"/>
      <point x="566" y="46" type="line"/>
      <point x="510" y="46" type="line"/>
      <point x="395" y="224" type="line" smooth="yes"/>
      <point x="382" y="244"/>
      <point x="354" y="264"/>
      <point x="334" y="267" type="qcurve"/>
      <point x="390" y="393" type="line" smooth="yes"/>
      <point x="400" y="415"/>
      <point x="420" y="448"/>
      <point x="428" y="458" type="qcurve"/>
      <point x="431" y="458" type="line"/>
      <point x="431" y="429"/>
      <point x="459" y="397"/>
      <point x="485" y="397" type="qcurve" smooth="yes"/>
      <point x="511" y="397"/>
      <point x="542" y="432"/>
      <point x="542" y="461" type="qcurve" smooth="yes"/>
      <point x="542" y="490"/>
      <point x="506" y="528"/>
      <point x="473" y="528" type="qcurve" smooth="yes"/>
      <point x="435" y="528"/>
      <point x="374" y="476"/>
      <point x="345" y="410" type="qcurve" smooth="yes"/>
      <point x="289" y="284" type="line"/>
      <point x="206" y="284" type="line"/>
      <point x="206" y="471" type="line"/>
      <point x="280" y="471" type="line"/>
      <point x="280" y="516" type="line"/>
      <point x="50" y="516" type="line"/>
      <point x="50" y="471" type="line"/>
      <point x="124" y="471" type="line"/>
      <point x="124" y="46" type="line"/>
      <point x="50" y="46" type="line"/>
    </contour>
  </outline>
</glyph>
<glyph name="uni043B" format="2">
  <advance width="604"/>
  <unicode hex="043B"/>
  <note>
uni043B
</note>
  <outline>
    <contour>
      <point x="118" y="-12"/>
      <point x="164" y="1"/>
      <point x="181" y="18" type="qcurve" smooth="yes"/>
      <point x="198" y="34"/>
      <point x="223" y="85"/>
      <point x="240" y="175"/>
      <point x="249" y="313"/>
      <point x="249" y="417" type="qcurve" smooth="yes"/>
      <point x="249" y="467" type="line"/>
      <point x="398" y="467" type="line"/>
      <point x="398" y="46" type="line"/>
      <point x="324" y="46" type="line"/>
      <point x="324" y="0" type="line"/>
      <point x="554" y="0" type="line"/>
      <point x="554" y="46" type="line"/>
      <point x="480" y="46" type="line"/>
      <point x="480" y="471" type="line"/>
      <point x="554" y="471" type="line"/>
      <point x="554" y="516" type="line"/>
      <point x="115" y="516" type="line"/>
      <point x="115" y="471" type="line"/>
      <point x="189" y="471" type="line"/>
      <point x="189" y="412" type="line" smooth="yes"/>
      <point x="189" y="308"/>
      <point x="180" y="175"/>
      <point x="165" y="95"/>
      <point x="145" y="56"/>
      <point x="135" y="46" type="qcurve" smooth="yes"/>
      <point x="119" y="30"/>
      <point x="96" y="30" type="qcurve" smooth="yes"/>
      <point x="92" y="30"/>
      <point x="83" y="30"/>
      <point x="80" y="32" type="qcurve"/>
      <point x="80" y="35" type="line"/>
      <point x="90" y="39"/>
      <point x="106" y="62"/>
      <point x="106" y="78" type="qcurve" smooth="yes"/>
      <point x="106" y="100"/>
      <point x="81" y="126"/>
      <point x="58" y="126" type="qcurve" smooth="yes"/>
      <point x="32" y="126"/>
      <point x="5" y="94"/>
      <point x="5" y="68" type="qcurve" smooth="yes"/>
      <point x="5" y="35"/>
      <point x="50" y="-12"/>
      <point x="95" y="-12" type="qcurve" smooth="yes"/>
    </contour>
  </outline>
</glyph>
<glyph name="uni043C" format="2">
  <advance width="753"/>
  <unicode hex="043C"/>
  <note>
uni043C
</note>
  <outline>
    <contour>
      <point x="50" y="0" type="line"/>
      <point x="258" y="0" type="line"/>
      <point x="258" y="46" type="line"/>
      <point x="184" y="46" type="line"/>
      <point x="184" y="440" type="line"/>
      <point x="187" y="440" type="line"/>
      <point x="223" y="364" type="line"/>
      <point x="366" y="80" type="line"/>
      <point x="507" y="364" type="line"/>
      <point x="544" y="440" type="line"/>
      <point x="547" y="440" type="line"/>
      <point x="547" y="46" type="line"/>
      <point x="472" y="46" type="line"/>
      <point x="472" y="0" type="line"/>
      <point x="703" y="0" type="line"/>
      <point x="703" y="46" type="line"/>
      <point x="629" y="46" type="line"/>
      <point x="629" y="471" type="line"/>
      <point x="703" y="471" type="line"/>
      <point x="703" y="516" type="line"/>
      <point x="531" y="516" type="line"/>
      <point x="384" y="220" type="line"/>
      <point x="380" y="220" type="line"/>
      <point x="232" y="516" type="line"/>
      <point x="50" y="516" type="line"/>
      <point x="50" y="471" type="line"/>
      <point x="125" y="471" type="line"/>
      <point x="125" y="46" type="line"/>
      <point x="50" y="46" type="line"/>
    </contour>
  </outline>
</glyph>
<glyph name="uni0446" format="2">
  <advance width="665"/>
  <unicode hex="0446"/>
  <note>
uni0446
</note>
  <outline>
    <contour>
      <point x="555" y="-150" type="line"/>
      <point x="629" y="-150" type="line"/>
      <point x="629" y="49" type="line"/>
      <point x="529" y="49" type="line"/>
      <point x="529" y="471" type="line"/>
      <point x="603" y="471" type="line"/>
      <point x="603" y="516" type="line"/>
      <point x="373" y="516" type="line"/>
      <point x="373" y="471" type="line"/>
      <point x="447" y="471" type="line"/>
      <point x="447" y="49" type="line"/>
      <point x="206" y="49" type="line"/>
      <point x="206" y="471" type="line"/>
      <point x="280" y="471" type="line"/>
      <point x="280" y="516" type="line"/>
      <point x="50" y="516" type="line"/>
      <point x="50" y="471" type="line"/>
      <point x="124" y="471" type="line"/>
      <point x="124" y="46" type="line"/>
      <point x="50" y="46" type="line"/>
      <point x="50" y="0" type="line"/>
      <point x="555" y="0" type="line"/>
    </contour>
  </outline>
</glyph>
<glyph name="uni0448" format="2">
  <advance width="872"/>
  <unicode hex="0448"/>
  <note>
uni0448
</note>
  <outline>
    <contour>
      <point x="50" y="0" type="line"/>
      <point x="822" y="0" type="line"/>
      <point x="822" y="46" type="line"/>
      <point x="748" y="46" type="line"/>
      <point x="748" y="471" type="line"/>
      <point x="822" y="471" type="line"/>
      <point x="822" y="516" type="line"/>
      <point x="601" y="516" type="line"/>
      <point x="601" y="471" type="line"/>
      <point x="666" y="471" type="line"/>
      <point x="666" y="49" type="line"/>
      <point x="477" y="49" type="line"/>
      <point x="477" y="471" type="line"/>
      <point x="542" y="471" type="line"/>
      <point x="542" y="516" type="line"/>
      <point x="330" y="516" type="line"/>
      <point x="330" y="471" type="line"/>
      <point x="395" y="471" type="line"/>
      <point x="395" y="49" type="line"/>
      <point x="206" y="49" type="line"/>
      <point x="206" y="471" type="line"/>
      <point x="271" y="471" type="line"/>
      <point x="271" y="516" type="line"/>
      <point x="50" y="516" type="line"/>
      <point x="50" y="471" type="line"/>
      <point x="124" y="471" type="line"/>
      <point x="124" y="46" type="line"/>
      <point x="50" y="46" type="line"/>
    </contour>
  </outline>
</glyph>
<glyph name="uni0449" format="2">
  <advance width="885"/>
  <unicode hex="0449"/>
  <note>
uni0449
</note>
  <outline>
    <contour>
      <point x="775" y="-150" type="line"/>
      <point x="849" y="-150" type="line"/>
      <point x="849" y="49" type="line"/>
      <point x="748" y="49" type="line"/>
      <point x="748" y="471" type="line"/>
      <point x="822" y="471" type="line"/>
      <point x="822" y="516" type="line"/>
      <point x="601" y="516" type="line"/>
      <point x="601" y="471" type="line"/>
      <point x="666" y="471" type="line"/>
      <point x="666" y="49" type="line"/>
      <point x="477" y="49" type="line"/>
      <point x="477" y="471" type="line"/>
      <point x="542" y="471" type="line"/>
      <point x="542" y="516" type="line"/>
      <point x="330" y="516" type="line"/>
      <point x="330" y="471" type="line"/>
      <point x="395" y="471" type="line"/>
      <point x="395" y="49" type="line"/>
      <point x="206" y="49" type="line"/>
      <point x="206" y="471" type="line"/>
      <point x="271" y="471" type="line"/>
      <point x="271" y="516" type="line"/>
      <point x="50" y="516" type="line"/>
      <point x="50" y="471" type="line"/>
      <point x="124" y="471" type="line"/>
      <point x="124" y="46" type="line"/>
      <point x="50" y="46" type="line"/>
      <point x="50" y="0" type="line"/>
      <point x="775" y="0" type="line"/>
    </contour>
  </outline>
</glyph>
<glyph name="uni044C" format="2">
  <advance width="542"/>
  <unicode hex="044C"/>
  <note>
uni044C
</note>
  <outline>
    <contour>
      <point x="50" y="0" type="line"/>
      <point x="337" y="0" type="line" smooth="yes"/>
      <point x="415" y="0"/>
      <point x="502" y="84"/>
      <point x="502" y="159" type="qcurve" smooth="yes"/>
      <point x="502" y="235"/>
      <point x="418" y="316"/>
      <point x="338" y="316" type="qcurve" smooth="yes"/>
      <point x="206" y="316" type="line"/>
      <point x="206" y="471" type="line"/>
      <point x="280" y="471" type="line"/>
      <point x="280" y="516" type="line"/>
      <point x="50" y="516" type="line"/>
      <point x="50" y="471" type="line"/>
      <point x="124" y="471" type="line"/>
      <point x="124" y="46" type="line"/>
      <point x="50" y="46" type="line"/>
    </contour>
    <contour>
      <point x="206" y="49" type="line"/>
      <point x="206" y="267" type="line"/>
      <point x="325" y="267" type="line" smooth="yes"/>
      <point x="370" y="267"/>
      <point x="412" y="217"/>
      <point x="412" y="177" type="qcurve" smooth="yes"/>
      <point x="412" y="139" type="line" smooth="yes"/>
      <point x="412" y="100"/>
      <point x="370" y="49"/>
      <point x="325" y="49" type="qcurve" smooth="yes"/>
    </contour>
  </outline>
</glyph>
<glyph name="uni044D" format="2">
  <advance width="527"/>
  <unicode hex="044D"/>
  <note>
uni044D
</note>
  <outline>
    <contour>
      <point x="292" y="-12"/>
      <point x="382" y="26"/>
      <point x="447" y="96"/>
      <point x="482" y="196"/>
      <point x="482" y="259" type="qcurve" smooth="yes"/>
      <point x="482" y="322"/>
      <point x="450" y="422"/>
      <point x="392" y="491"/>
      <point x="309" y="528"/>
      <point x="257" y="528" type="qcurve" smooth="yes"/>
      <point x="208" y="528"/>
      <point x="144" y="495"/>
      <point x="125" y="469" type="qcurve"/>
      <point x="122" y="469" type="line"/>
      <point x="122" y="516" type="line"/>
      <point x="62" y="516" type="line"/>
      <point x="62" y="361" type="line"/>
      <point x="122" y="361" type="line"/>
      <point x="122" y="390" type="line" smooth="yes"/>
      <point x="122" y="433"/>
      <point x="191" y="483"/>
      <point x="247" y="483" type="qcurve" smooth="yes"/>
      <point x="318" y="483"/>
      <point x="390" y="385"/>
      <point x="390" y="304" type="qcurve" smooth="yes"/>
      <point x="390" y="288" type="line"/>
      <point x="187" y="288" type="line"/>
      <point x="187" y="239" type="line"/>
      <point x="390" y="239" type="line"/>
      <point x="390" y="217" type="line" smooth="yes"/>
      <point x="390" y="132"/>
      <point x="300" y="34"/>
      <point x="223" y="34" type="qcurve" smooth="yes"/>
      <point x="194" y="34"/>
      <point x="142" y="45"/>
      <point x="123" y="57" type="qcurve"/>
      <point x="123" y="59" type="line"/>
      <point x="141" y="67"/>
      <point x="160" y="96"/>
      <point x="160" y="115" type="qcurve" smooth="yes"/>
      <point x="160" y="139"/>
      <point x="132" y="173"/>
      <point x="104" y="173" type="qcurve" smooth="yes"/>
      <point x="78" y="173"/>
      <point x="46" y="139"/>
      <point x="46" y="110" type="qcurve" smooth="yes"/>
      <point x="46" y="86"/>
      <point x="73" y="41"/>
      <point x="123" y="8"/>
      <point x="193" y="-12"/>
      <point x="237" y="-12" type="qcurve" smooth="yes"/>
    </contour>
  </outline>
</glyph>
<glyph name="uni044F" format="2">
  <advance width="576"/>
  <unicode hex="044F"/>
  <note>
uni044F
</note>
  <outline>
    <contour>
      <point x="24" y="0" type="line"/>
      <point x="145" y="0" type="line"/>
      <point x="286" y="222" type="line"/>
      <point x="370" y="222" type="line"/>
      <point x="370" y="46" type="line"/>
      <point x="296" y="46" type="line"/>
      <point x="296" y="0" type="line"/>
      <point x="526" y="0" type="line"/>
      <point x="526" y="46" type="line"/>
      <point x="452" y="46" type="line"/>
      <point x="452" y="471" type="line"/>
      <point x="526" y="471" type="line"/>
      <point x="526" y="516" type="line"/>
      <point x="237" y="516" type="line" smooth="yes"/>
      <point x="196" y="516"/>
      <point x="136" y="493"/>
      <point x="95" y="452"/>
      <point x="75" y="399"/>
      <point x="75" y="369" type="qcurve" smooth="yes"/>
      <point x="75" y="310"/>
      <point x="161" y="238"/>
      <point x="233" y="235" type="qcurve"/>
      <point x="233" y="233" type="line"/>
      <point x="212" y="230"/>
      <point x="181" y="206"/>
      <point x="165" y="180" type="qcurve" smooth="yes"/>
      <point x="80" y="46" type="line"/>
      <point x="24" y="46" type="line"/>
    </contour>
    <contour>
      <point x="249" y="268" type="line" smooth="yes"/>
      <point x="210" y="268"/>
      <point x="164" y="316"/>
      <point x="164" y="355" type="qcurve" smooth="yes"/>
      <point x="164" y="380" type="line" smooth="yes"/>
      <point x="164" y="395"/>
      <point x="173" y="426"/>
      <point x="193" y="451"/>
      <point x="226" y="467"/>
      <point x="249" y="467" type="qcurve" smooth="yes"/>
      <point x="370" y="467" type="line"/>
      <point x="370" y="268" type="line"/>
    </contour>
  </outline>
</glyph>
<glyph name="uni0454" format="2">
  <advance width="527"/>
  <unicode hex="0454"/>
  <note>
uni0454
</note>
  <outline>
    <contour>
      <point x="333" y="-12"/>
      <point x="404" y="8"/>
      <point x="454" y="41"/>
      <point x="481" y="86"/>
      <point x="481" y="110" type="qcurve" smooth="yes"/>
      <point x="481" y="139"/>
      <point x="449" y="173"/>
      <point x="423" y="173" type="qcurve" smooth="yes"/>
      <point x="395" y="173"/>
      <point x="367" y="139"/>
      <point x="367" y="115" type="qcurve" smooth="yes"/>
      <point x="367" y="96"/>
      <point x="386" y="67"/>
      <point x="404" y="59" type="qcurve"/>
      <point x="404" y="57" type="line"/>
      <point x="388" y="46"/>
      <point x="334" y="34"/>
      <point x="298" y="34" type="qcurve" smooth="yes"/>
      <point x="220" y="34"/>
      <point x="137" y="136"/>
      <point x="137" y="217" type="qcurve" smooth="yes"/>
      <point x="137" y="239" type="line"/>
      <point x="340" y="239" type="line"/>
      <point x="340" y="288" type="line"/>
      <point x="137" y="288" type="line"/>
      <point x="137" y="304" type="line" smooth="yes"/>
      <point x="137" y="343"/>
      <point x="159" y="409"/>
      <point x="198" y="457"/>
      <point x="254" y="483"/>
      <point x="289" y="483" type="qcurve" smooth="yes"/>
      <point x="339" y="483"/>
      <point x="405" y="433"/>
      <point x="405" y="390" type="qcurve" smooth="yes"/>
      <point x="405" y="361" type="line"/>
      <point x="465" y="361" type="line"/>
      <point x="465" y="516" type="line"/>
      <point x="405" y="516" type="line"/>
      <point x="405" y="469" type="line"/>
      <point x="402" y="469" type="line"/>
      <point x="386" y="495"/>
      <point x="326" y="528"/>
      <point x="279" y="528" type="qcurve" smooth="yes"/>
      <point x="227" y="528"/>
      <point x="141" y="490"/>
      <point x="79" y="419"/>
      <point x="45" y="319"/>
      <point x="45" y="257" type="qcurve" smooth="yes"/>
      <point x="45" y="195"/>
      <point x="78" y="96"/>
      <point x="141" y="26"/>
      <point x="232" y="-12"/>
      <point x="289" y="-12" type="qcurve" smooth="yes"/>
    </contour>
  </outline>
</glyph>
<glyph name="uni0473" format="2">
  <advance width="564"/>
  <unicode hex="0473"/>
  <note>
uni0473
</note>
  <outline>
    <contour>
      <point x="244" y="37"/>
      <point x="190" y="62"/>
      <point x="155" y="107"/>
      <point x="138" y="168"/>
      <point x="138" y="204" type="qcurve" smooth="yes"/>
      <point x="138" y="238" type="line"/>
      <point x="426" y="238" type="line"/>
      <point x="426" y="204" type="line" smooth="yes"/>
      <point x="426" y="168"/>
      <point x="409" y="107"/>
      <point x="374" y="62"/>
      <point x="319" y="37"/>
      <point x="282" y="37" type="qcurve" smooth="yes"/>
    </contour>
    <contour>
      <point x="138" y="284" type="line"/>
      <point x="138" y="312" type="line" smooth="yes"/>
      <point x="138" y="348"/>
      <point x="155" y="409"/>
      <point x="190" y="454"/>
      <point x="244" y="479"/>
      <point x="282" y="479" type="qcurve" smooth="yes"/>
      <point x="319" y="479"/>
      <point x="374" y="454"/>
      <point x="409" y="409"/>
      <point x="426" y="348"/>
      <point x="426" y="312" type="qcurve" smooth="yes"/>
      <point x="426" y="284" type="line"/>
    </contour>
    <contour>
      <point x="335" y="-12"/>
      <point x="423" y="26"/>
      <point x="485" y="97"/>
      <point x="519" y="196"/>
      <point x="519" y="258" type="qcurve" smooth="yes"/>
      <point x="519" y="319"/>
      <point x="485" y="419"/>
      <point x="423" y="490"/>
      <point x="335" y="528"/>
      <point x="282" y="528" type="qcurve" smooth="yes"/>
      <point x="229" y="528"/>
      <point x="141" y="490"/>
      <point x="79" y="419"/>
      <point x="45" y="319"/>
      <point x="45" y="258" type="qcurve" smooth="yes"/>
      <point x="45" y="196"/>
      <point x="79" y="97"/>
      <point x="141" y="26"/>
      <point x="229" y="-12"/>
      <point x="282" y="-12" type="qcurve" smooth="yes"/>
    </contour>
  </outline>
</glyph>
<glyph name="uni0491" format="2">
  <advance width="487"/>
  <unicode hex="0491"/>
  <note>
uni0491
</note>
  <outline>
    <contour>
      <point x="50" y="0" type="line"/>
      <point x="300" y="0" type="line"/>
      <point x="300" y="46" type="line"/>
      <point x="206" y="46" type="line"/>
      <point x="206" y="467" type="line"/>
      <point x="453" y="467" type="line"/>
      <point x="453" y="665" type="line"/>
      <point x="379" y="665" type="line"/>
      <point x="379" y="516" type="line"/>
      <point x="50" y="516" type="line"/>
      <point x="50" y="471" type="line"/>
      <point x="124" y="471" type="line"/>
      <point x="124" y="46" type="line"/>
      <point x="50" y="46" type="line"/>
    </contour>
  </outline>
</glyph>
<glyph name="uni0492" format="2">
  <advance width="560"/>
  <unicode hex="0492"/>
  <note>
uni0492
</note>
  <outline>
    <contour>
      <point x="55" y="0" type="line"/>
      <point x="311" y="0" type="line"/>
      <point x="311" y="46" type="line"/>
      <point x="216" y="46" type="line"/>
      <point x="216" y="334" type="line"/>
      <point x="391" y="334" type="line"/>
      <point x="391" y="382" type="line"/>
      <point x="216" y="382" type="line"/>
      <point x="216" y="649" type="line"/>
      <point x="453" y="649" type="line"/>
      <point x="453" y="530" type="line"/>
      <point x="525" y="530" type="line"/>
      <point x="525" y="698" type="line"/>
      <point x="55" y="698" type="line"/>
      <point x="55" y="652" type="line"/>
      <point x="130" y="652" type="line"/>
      <point x="130" y="382" type="line"/>
      <point x="40" y="382" type="line"/>
      <point x="40" y="334" type="line"/>
      <point x="130" y="334" type="line"/>
      <point x="130" y="46" type="line"/>
      <point x="55" y="46" type="line"/>
    </contour>
  </outline>
</glyph>
<glyph name="uni0494" format="2">
  <advance width="644"/>
  <unicode hex="0494"/>
  <note>
uni0494
</note>
  <outline>
    <contour>
      <point x="362" y="-164" type="line"/>
      <point x="453" y="-164" type="line" smooth="yes"/>
      <point x="479" y="-164"/>
      <point x="531" y="-146"/>
      <point x="573" y="-106"/>
      <point x="599" y="-42"/>
      <point x="599" y="3" type="qcurve" smooth="yes"/>
      <point x="599" y="163" type="line" smooth="yes"/>
      <point x="599" y="220"/>
      <point x="577" y="303"/>
      <point x="526" y="357"/>
      <point x="444" y="383"/>
      <point x="384" y="383" type="qcurve" smooth="yes"/>
      <point x="333" y="383"/>
      <point x="255" y="365"/>
      <point x="220" y="346" type="qcurve"/>
      <point x="216" y="346" type="line"/>
      <point x="216" y="649" type="line"/>
      <point x="453" y="649" type="line"/>
      <point x="453" y="530" type="line"/>
      <point x="525" y="530" type="line"/>
      <point x="525" y="698" type="line"/>
      <point x="55" y="698" type="line"/>
      <point x="55" y="652" type="line"/>
      <point x="130" y="652" type="line"/>
      <point x="130" y="46" type="line"/>
      <point x="55" y="46" type="line"/>
      <point x="55" y="0" type="line"/>
      <point x="291" y="0" type="line"/>
      <point x="291" y="46" type="line"/>
      <point x="216" y="46" type="line"/>
      <point x="216" y="297" type="line"/>
      <point x="246" y="315"/>
      <point x="316" y="334"/>
      <point x="362" y="334" type="qcurve" smooth="yes"/>
      <point x="405" y="334"/>
      <point x="463" y="316"/>
      <point x="498" y="274"/>
      <point x="513" y="207"/>
      <point x="513" y="159" type="qcurve" smooth="yes"/>
      <point x="513" y="8" type="line" smooth="yes"/>
      <point x="513" y="-18"/>
      <point x="506" y="-57"/>
      <point x="494" y="-85"/>
      <point x="477" y="-106"/>
      <point x="468" y="-115" type="qcurve"/>
      <point x="362" y="-115" type="line"/>
    </contour>
  </outline>
</glyph>
<glyph name="uni0497" format="2">
  <advance width="817"/>
  <unicode hex="0497"/>
  <note>
uni0497
</note>
  <outline>
    <contour>
      <point x="741" y="-150" type="line"/>
      <point x="815" y="-150" type="line"/>
      <point x="815" y="49" type="line"/>
      <point x="725" y="49" type="line"/>
      <point x="615" y="224" type="line" smooth="yes"/>
      <point x="602" y="244"/>
      <point x="574" y="264"/>
      <point x="556" y="267" type="qcurve"/>
      <point x="611" y="393" type="line" smooth="yes"/>
      <point x="620" y="414"/>
      <point x="642" y="450"/>
      <point x="650" y="458" type="qcurve"/>
      <point x="653" y="458" type="line"/>
      <point x="653" y="400"/>
      <point x="705" y="400" type="qcurve" smooth="yes"/>
      <point x="729" y="400"/>
      <point x="761" y="434"/>
      <point x="761" y="462" type="qcurve" smooth="yes"/>
      <point x="761" y="490"/>
      <point x="724" y="528"/>
      <point x="691" y="528" type="qcurve" smooth="yes"/>
      <point x="657" y="528"/>
      <point x="597" y="479"/>
      <point x="568" y="412" type="qcurve" smooth="yes"/>
      <point x="512" y="284" type="line"/>
      <point x="439" y="284" type="line"/>
      <point x="439" y="471" type="line"/>
      <point x="513" y="471" type="line"/>
      <point x="513" y="516" type="line"/>
      <point x="285" y="516" type="line"/>
      <point x="285" y="471" type="line"/>
      <point x="359" y="471" type="line"/>
      <point x="359" y="284" type="line"/>
      <point x="285" y="284" type="line"/>
      <point x="229" y="412" type="line" smooth="yes"/>
      <point x="200" y="479"/>
      <point x="141" y="528"/>
      <point x="107" y="528" type="qcurve" smooth="yes"/>
      <point x="73" y="528"/>
      <point x="37" y="490"/>
      <point x="37" y="462" type="qcurve" smooth="yes"/>
      <point x="37" y="434"/>
      <point x="68" y="400"/>
      <point x="93" y="400" type="qcurve" smooth="yes"/>
      <point x="145" y="400"/>
      <point x="145" y="458" type="qcurve"/>
      <point x="148" y="458" type="line"/>
      <point x="156" y="450"/>
      <point x="177" y="414"/>
      <point x="186" y="393" type="qcurve" smooth="yes"/>
      <point x="241" y="267" type="line"/>
      <point x="224" y="264"/>
      <point x="195" y="244"/>
      <point x="183" y="224" type="qcurve" smooth="yes"/>
      <point x="71" y="46" type="line"/>
      <point x="15" y="46" type="line"/>
      <point x="15" y="0" type="line"/>
      <point x="136" y="0" type="line"/>
      <point x="285" y="238" type="line"/>
      <point x="359" y="238" type="line"/>
      <point x="359" y="46" type="line"/>
      <point x="285" y="46" type="line"/>
      <point x="285" y="0" type="line"/>
      <point x="513" y="0" type="line"/>
      <point x="513" y="46" type="line"/>
      <point x="439" y="46" type="line"/>
      <point x="439" y="238" type="line"/>
      <point x="512" y="238" type="line"/>
      <point x="662" y="0" type="line"/>
      <point x="741" y="0" type="line"/>
    </contour>
  </outline>
</glyph>
<glyph name="uni0498" format="2">
  <advance width="604"/>
  <unicode hex="0498"/>
  <note>
uni0498
</note>
  <outline>
    <contour>
      <point x="249" y="-160" type="line"/>
      <point x="327" y="-160" type="line"/>
      <point x="327" y="-10" type="line"/>
      <point x="375" y="-4"/>
      <point x="453" y="29"/>
      <point x="507" y="81"/>
      <point x="537" y="150"/>
      <point x="537" y="191" type="qcurve" smooth="yes"/>
      <point x="537" y="232"/>
      <point x="511" y="291"/>
      <point x="469" y="331"/>
      <point x="414" y="353"/>
      <point x="385" y="358" type="qcurve"/>
      <point x="385" y="362" type="line"/>
      <point x="415" y="368"/>
      <point x="465" y="396"/>
      <point x="503" y="439"/>
      <point x="524" y="497"/>
      <point x="524" y="533" type="qcurve" smooth="yes"/>
      <point x="524" y="572"/>
      <point x="496" y="637"/>
      <point x="443" y="684"/>
      <point x="366" y="710"/>
      <point x="317" y="710" type="qcurve" smooth="yes"/>
      <point x="251" y="710"/>
      <point x="170" y="668"/>
      <point x="149" y="636" type="qcurve"/>
      <point x="145" y="636" type="line"/>
      <point x="145" y="698" type="line"/>
      <point x="73" y="698" type="line"/>
      <point x="73" y="485" type="line"/>
      <point x="145" y="485" type="line"/>
      <point x="145" y="547" type="line" smooth="yes"/>
      <point x="145" y="571"/>
      <point x="167" y="613"/>
      <point x="208" y="644"/>
      <point x="264" y="661"/>
      <point x="298" y="661" type="qcurve" smooth="yes"/>
      <point x="365" y="661"/>
      <point x="430" y="592"/>
      <point x="430" y="539" type="qcurve" smooth="yes"/>
      <point x="430" y="503" type="line" smooth="yes"/>
      <point x="430" y="447"/>
      <point x="362" y="380"/>
      <point x="308" y="380" type="qcurve" smooth="yes"/>
      <point x="201" y="380" type="line"/>
      <point x="201" y="331" type="line"/>
      <point x="315" y="331" type="line" smooth="yes"/>
      <point x="378" y="331"/>
      <point x="443" y="265"/>
      <point x="443" y="206" type="qcurve" smooth="yes"/>
      <point x="443" y="176" type="line" smooth="yes"/>
      <point x="443" y="113"/>
      <point x="355" y="37"/>
      <point x="270" y="37" type="qcurve" smooth="yes"/>
      <point x="225" y="37"/>
      <point x="160" y="53"/>
      <point x="143" y="64" type="qcurve"/>
      <point x="143" y="66" type="line"/>
      <point x="155" y="71"/>
      <point x="178" y="103"/>
      <point x="178" y="125" type="qcurve" smooth="yes"/>
      <point x="178" y="152"/>
      <point x="146" y="187"/>
      <point x="119" y="187" type="qcurve" smooth="yes"/>
      <point x="92" y="187"/>
      <point x="59" y="150"/>
      <point x="59" y="120" type="qcurve" smooth="yes"/>
      <point x="59" y="98"/>
      <point x="84" y="54"/>
      <point x="133" y="18"/>
      <point x="204" y="-7"/>
      <point x="249" y="-11" type="qcurve"/>
    </contour>
  </outline>
</glyph>
<glyph name="uni0499" format="2">
  <advance width="502"/>
  <unicode hex="0499"/>
  <note>
uni0499
</note>
  <outline>
    <contour>
      <point x="207" y="-150" type="line"/>
      <point x="281" y="-150" type="line"/>
      <point x="281" y="-9" type="line"/>
      <point x="317" y="-4"/>
      <point x="376" y="21"/>
      <point x="419" y="60"/>
      <point x="443" y="111"/>
      <point x="443" y="142" type="qcurve" smooth="yes"/>
      <point x="443" y="195"/>
      <point x="381" y="257"/>
      <point x="328" y="268" type="qcurve"/>
      <point x="328" y="272" type="line"/>
      <point x="373" y="283"/>
      <point x="431" y="344"/>
      <point x="431" y="392" type="qcurve" smooth="yes"/>
      <point x="431" y="455"/>
      <point x="341" y="528"/>
      <point x="258" y="528" type="qcurve" smooth="yes"/>
      <point x="207" y="528"/>
      <point x="144" y="493"/>
      <point x="125" y="467" type="qcurve"/>
      <point x="122" y="467" type="line"/>
      <point x="122" y="516" type="line"/>
      <point x="62" y="516" type="line"/>
      <point x="62" y="359" type="line"/>
      <point x="122" y="359" type="line"/>
      <point x="122" y="388" type="line" smooth="yes"/>
      <point x="122" y="431"/>
      <point x="191" y="483"/>
      <point x="247" y="483" type="qcurve" smooth="yes"/>
      <point x="295" y="483"/>
      <point x="344" y="431"/>
      <point x="344" y="393" type="qcurve" smooth="yes"/>
      <point x="344" y="373" type="line" smooth="yes"/>
      <point x="344" y="335"/>
      <point x="293" y="288"/>
      <point x="249" y="288" type="qcurve" smooth="yes"/>
      <point x="181" y="288" type="line"/>
      <point x="181" y="239" type="line"/>
      <point x="254" y="239" type="line" smooth="yes"/>
      <point x="307" y="239"/>
      <point x="357" y="187"/>
      <point x="357" y="151" type="qcurve" smooth="yes"/>
      <point x="357" y="126" type="line" smooth="yes"/>
      <point x="357" y="88"/>
      <point x="294" y="34"/>
      <point x="231" y="34" type="qcurve" smooth="yes"/>
      <point x="189" y="34"/>
      <point x="140" y="46"/>
      <point x="123" y="57" type="qcurve"/>
      <point x="123" y="59" type="line"/>
      <point x="141" y="67"/>
      <point x="160" y="96"/>
      <point x="160" y="115" type="qcurve" smooth="yes"/>
      <point x="160" y="139"/>
      <point x="132" y="173"/>
      <point x="104" y="173" type="qcurve" smooth="yes"/>
      <point x="78" y="173"/>
      <point x="46" y="139"/>
      <point x="46" y="110" type="qcurve" smooth="yes"/>
      <point x="46" y="65"/>
      <point x="132" y="-3"/>
      <point x="207" y="-11" type="qcurve"/>
    </contour>
  </outline>
</glyph>
<glyph name="uni049A" format="2">
  <advance width="699"/>
  <unicode hex="049A"/>
  <note>
uni049A
</note>
  <outline>
    <contour>
      <point x="617" y="-160" type="line"/>
      <point x="695" y="-160" type="line"/>
      <point x="695" y="49" type="line"/>
      <point x="604" y="49" type="line"/>
      <point x="431" y="315" type="line" smooth="yes"/>
      <point x="415" y="339"/>
      <point x="387" y="358"/>
      <point x="370" y="361" type="qcurve"/>
      <point x="465" y="549" type="line" smooth="yes"/>
      <point x="476" y="572"/>
      <point x="506" y="620"/>
      <point x="519" y="637" type="qcurve"/>
      <point x="522" y="637" type="line"/>
      <point x="522" y="608"/>
      <point x="554" y="574"/>
      <point x="580" y="574" type="qcurve" smooth="yes"/>
      <point x="609" y="574"/>
      <point x="639" y="612"/>
      <point x="639" y="639" type="qcurve" smooth="yes"/>
      <point x="639" y="669"/>
      <point x="600" y="710"/>
      <point x="564" y="710" type="qcurve" smooth="yes"/>
      <point x="543" y="710"/>
      <point x="505" y="697"/>
      <point x="470" y="666"/>
      <point x="434" y="614"/>
      <point x="414" y="574" type="qcurve" smooth="yes"/>
      <point x="315" y="379" type="line"/>
      <point x="216" y="379" type="line"/>
      <point x="216" y="652" type="line"/>
      <point x="291" y="652" type="line"/>
      <point x="291" y="698" type="line"/>
      <point x="55" y="698" type="line"/>
      <point x="55" y="652" type="line"/>
      <point x="130" y="652" type="line"/>
      <point x="130" y="46" type="line"/>
      <point x="55" y="46" type="line"/>
      <point x="55" y="0" type="line"/>
      <point x="291" y="0" type="line"/>
      <point x="291" y="46" type="line"/>
      <point x="216" y="46" type="line"/>
      <point x="216" y="331" type="line"/>
      <point x="316" y="331" type="line"/>
      <point x="531" y="0" type="line"/>
      <point x="617" y="0" type="line"/>
    </contour>
  </outline>
</glyph>
<glyph name="uni04A0" format="2">
  <advance width="813"/>
  <unicode hex="04A0"/>
  <note>
uni04A0
</note>
  <outline>
    <contour>
      <point x="181" y="0" type="line"/>
      <point x="417" y="0" type="line"/>
      <point x="417" y="46" type="line"/>
      <point x="342" y="46" type="line"/>
      <point x="342" y="331" type="line"/>
      <point x="442" y="331" type="line"/>
      <point x="657" y="0" type="line"/>
      <point x="801" y="0" type="line"/>
      <point x="801" y="46" type="line"/>
      <point x="732" y="46" type="line"/>
      <point x="557" y="315" type="line" smooth="yes"/>
      <point x="541" y="339"/>
      <point x="513" y="358"/>
      <point x="496" y="361" type="qcurve"/>
      <point x="591" y="549" type="line" smooth="yes"/>
      <point x="602" y="572"/>
      <point x="632" y="620"/>
      <point x="645" y="637" type="qcurve"/>
      <point x="648" y="637" type="line"/>
      <point x="648" y="608"/>
      <point x="680" y="574"/>
      <point x="706" y="574" type="qcurve" smooth="yes"/>
      <point x="735" y="574"/>
      <point x="765" y="612"/>
      <point x="765" y="639" type="qcurve" smooth="yes"/>
      <point x="765" y="669"/>
      <point x="726" y="710"/>
      <point x="690" y="710" type="qcurve" smooth="yes"/>
      <point x="669" y="710"/>
      <point x="631" y="697"/>
      <point x="596" y="666"/>
      <point x="560" y="614"/>
      <point x="540" y="574" type="qcurve" smooth="yes"/>
      <point x="441" y="379" type="line"/>
      <point x="342" y="379" type="line"/>
      <point x="342" y="652" type="line"/>
      <point x="417" y="652" type="line"/>
      <point x="417" y="698" type="line"/>
      <point x="35" y="698" type="line"/>
      <point x="35" y="530" type="line"/>
      <point x="107" y="530" type="line"/>
      <point x="107" y="649" type="line"/>
      <point x="256" y="649" type="line"/>
      <point x="256" y="46" type="line"/>
      <point x="181" y="46" type="line"/>
    </contour>
  </outline>
</glyph>
<glyph name="uni04A2" format="2">
  <advance width="800"/>
  <unicode hex="04A2"/>
  <note>
uni04A2
</note>
  <outline>
    <contour>
      <point x="682" y="-160" type="line"/>
      <point x="760" y="-160" type="line"/>
      <point x="760" y="49" type="line"/>
      <point x="657" y="49" type="line"/>
      <point x="657" y="652" type="line"/>
      <point x="732" y="652" type="line"/>
      <point x="732" y="698" type="line"/>
      <point x="496" y="698" type="line"/>
      <point x="496" y="652" type="line"/>
      <point x="571" y="652" type="line"/>
      <point x="571" y="381" type="line"/>
      <point x="216" y="381" type="line"/>
      <point x="216" y="652" type="line"/>
      <point x="291" y="652" type="line"/>
      <point x="291" y="698" type="line"/>
      <point x="55" y="698" type="line"/>
      <point x="55" y="652" type="line"/>
      <point x="130" y="652" type="line"/>
      <point x="130" y="46" type="line"/>
      <point x="55" y="46" type="line"/>
      <point x="55" y="0" type="line"/>
      <point x="291" y="0" type="line"/>
      <point x="291" y="46" type="line"/>
      <point x="216" y="46" type="line"/>
      <point x="216" y="331" type="line"/>
      <point x="571" y="331" type="line"/>
      <point x="571" y="46" type="line"/>
      <point x="496" y="46" type="line"/>
      <point x="496" y="0" type="line"/>
      <point x="682" y="0" type="line"/>
    </contour>
  </outline>
</glyph>
<glyph name="uni04A4" format="2">
  <advance width="974"/>
  <unicode hex="04A4"/>
  <note>
uni04A4
</note>
  <outline>
    <contour>
      <point x="55" y="0" type="line"/>
      <point x="291" y="0" type="line"/>
      <point x="291" y="46" type="line"/>
      <point x="216" y="46" type="line"/>
      <point x="216" y="331" type="line"/>
      <point x="544" y="331" type="line"/>
      <point x="544" y="46" type="line"/>
      <point x="469" y="46" type="line"/>
      <point x="469" y="0" type="line"/>
      <point x="725" y="0" type="line"/>
      <point x="725" y="46" type="line"/>
      <point x="630" y="46" type="line"/>
      <point x="630" y="649" type="line"/>
      <point x="867" y="649" type="line"/>
      <point x="867" y="530" type="line"/>
      <point x="939" y="530" type="line"/>
      <point x="939" y="698" type="line"/>
      <point x="469" y="698" type="line"/>
      <point x="469" y="652" type="line"/>
      <point x="544" y="652" type="line"/>
      <point x="544" y="380" type="line"/>
      <point x="216" y="380" type="line"/>
      <point x="216" y="652" type="line"/>
      <point x="291" y="652" type="line"/>
      <point x="291" y="698" type="line"/>
      <point x="55" y="698" type="line"/>
      <point x="55" y="652" type="line"/>
      <point x="130" y="652" type="line"/>
      <point x="130" y="46" type="line"/>
      <point x="55" y="46" type="line"/>
    </contour>
  </outline>
</glyph>
<glyph name="uni04A5" format="2">
  <advance width="797"/>
  <unicode hex="04A5"/>
  <note>
uni04A5
</note>
  <outline>
    <contour>
      <point x="50" y="0" type="line"/>
      <point x="280" y="0" type="line"/>
      <point x="280" y="46" type="line"/>
      <point x="206" y="46" type="line"/>
      <point x="206" y="237" type="line"/>
      <point x="444" y="237" type="line"/>
      <point x="444" y="46" type="line"/>
      <point x="370" y="46" type="line"/>
      <point x="370" y="0" type="line"/>
      <point x="620" y="0" type="line"/>
      <point x="620" y="46" type="line"/>
      <point x="526" y="46" type="line"/>
      <point x="526" y="467" type="line"/>
      <point x="703" y="467" type="line"/>
      <point x="703" y="363" type="line"/>
      <point x="763" y="363" type="line"/>
      <point x="763" y="516" type="line"/>
      <point x="370" y="516" type="line"/>
      <point x="370" y="471" type="line"/>
      <point x="444" y="471" type="line"/>
      <point x="444" y="286" type="line"/>
      <point x="206" y="286" type="line"/>
      <point x="206" y="471" type="line"/>
      <point x="280" y="471" type="line"/>
      <point x="280" y="516" type="line"/>
      <point x="50" y="516" type="line"/>
      <point x="50" y="471" type="line"/>
      <point x="124" y="471" type="line"/>
      <point x="124" y="46" type="line"/>
      <point x="50" y="46" type="line"/>
    </contour>
  </outline>
</glyph>
<glyph name="uni04AF" format="2">
  <advance width="534"/>
  <unicode hex="04AF"/>
  <note>
uni04AF
</note>
  <outline>
    <contour>
      <point x="153" y="-200" type="line"/>
      <point x="383" y="-200" type="line"/>
      <point x="383" y="-154" type="line"/>
      <point x="309" y="-154" type="line"/>
      <point x="309" y="0" type="line"/>
      <point x="480" y="471" type="line"/>
      <point x="532" y="471" type="line"/>
      <point x="532" y="516" type="line"/>
      <point x="350" y="516" type="line"/>
      <point x="350" y="471" type="line"/>
      <point x="422" y="471" type="line"/>
      <point x="287" y="81" type="line"/>
      <point x="283" y="81" type="line"/>
      <point x="144" y="471" type="line"/>
      <point x="216" y="471" type="line"/>
      <point x="216" y="516" type="line"/>
      <point x="2" y="516" type="line"/>
      <point x="2" y="471" type="line"/>
      <point x="54" y="471" type="line"/>
      <point x="227" y="0" type="line"/>
      <point x="227" y="-154" type="line"/>
      <point x="153" y="-154" type="line"/>
    </contour>
  </outline>
</glyph>
<glyph name="uni04B2" format="2">
  <advance width="678"/>
  <unicode hex="04B2"/>
  <note>
uni04B2
</note>
  <outline>
    <contour>
      <point x="595" y="-160" type="line"/>
      <point x="674" y="-160" type="line"/>
      <point x="674" y="49" type="line"/>
      <point x="587" y="49" type="line"/>
      <point x="378" y="363" type="line"/>
      <point x="584" y="652" type="line"/>
      <point x="644" y="652" type="line"/>
      <point x="644" y="698" type="line"/>
      <point x="450" y="698" type="line"/>
      <point x="450" y="652" type="line"/>
      <point x="516" y="652" type="line"/>
      <point x="350" y="405" type="line"/>
      <point x="346" y="405" type="line"/>
      <point x="187" y="652" type="line"/>
      <point x="261" y="652" type="line"/>
      <point x="261" y="698" type="line"/>
      <point x="23" y="698" type="line"/>
      <point x="23" y="652" type="line"/>
      <point x="83" y="652" type="line"/>
      <point x="289" y="340" type="line"/>
      <point x="78" y="46" type="line"/>
      <point x="18" y="46" type="line"/>
      <point x="18" y="0" type="line"/>
      <point x="214" y="0" type="line"/>
      <point x="214" y="46" type="line"/>
      <point x="148" y="46" type="line"/>
      <point x="318" y="297" type="line"/>
      <point x="322" y="297" type="line"/>
      <point x="484" y="46" type="line"/>
      <point x="410" y="46" type="line"/>
      <point x="410" y="0" type="line"/>
      <point x="595" y="0" type="line"/>
    </contour>
  </outline>
</glyph>
<glyph name="uni04B6" format="2">
  <advance width="732"/>
  <unicode hex="04B6"/>
  <note>
uni04B6
</note>
  <outline>
    <contour>
      <point x="613" y="-160" type="line"/>
      <point x="692" y="-160" type="line"/>
      <point x="692" y="49" type="line"/>
      <point x="588" y="49" type="line"/>
      <point x="588" y="652" type="line"/>
      <point x="663" y="652" type="line"/>
      <point x="663" y="698" type="line"/>
      <point x="427" y="698" type="line"/>
      <point x="427" y="652" type="line"/>
      <point x="502" y="652" type="line"/>
      <point x="502" y="353" type="line"/>
      <point x="476" y="336"/>
      <point x="398" y="315"/>
      <point x="349" y="315" type="qcurve" smooth="yes"/>
      <point x="307" y="315"/>
      <point x="248" y="333"/>
      <point x="212" y="374"/>
      <point x="196" y="441"/>
      <point x="196" y="490" type="qcurve" smooth="yes"/>
      <point x="196" y="652" type="line"/>
      <point x="271" y="652" type="line"/>
      <point x="271" y="698" type="line"/>
      <point x="35" y="698" type="line"/>
      <point x="35" y="652" type="line"/>
      <point x="110" y="652" type="line"/>
      <point x="110" y="487" type="line" smooth="yes"/>
      <point x="110" y="429"/>
      <point x="133" y="346"/>
      <point x="186" y="292"/>
      <point x="270" y="266"/>
      <point x="332" y="266" type="qcurve" smooth="yes"/>
      <point x="387" y="266"/>
      <point x="463" y="285"/>
      <point x="498" y="303" type="qcurve"/>
      <point x="502" y="303" type="line"/>
      <point x="502" y="46" type="line"/>
      <point x="407" y="46" type="line"/>
      <point x="407" y="0" type="line"/>
      <point x="613" y="0" type="line"/>
    </contour>
  </outline>
</glyph>
<glyph name="uni04B7" format="2">
  <advance width="638"/>
  <unicode hex="04B7"/>
  <note>
uni04B7
</note>
  <outline>
    <contour>
      <point x="528" y="-150" type="line"/>
      <point x="602" y="-150" type="line"/>
      <point x="602" y="49" type="line"/>
      <point x="501" y="49" type="line"/>
      <point x="501" y="471" type="line"/>
      <point x="575" y="471" type="line"/>
      <point x="575" y="516" type="line"/>
      <point x="350" y="516" type="line"/>
      <point x="350" y="471" type="line"/>
      <point x="419" y="471" type="line"/>
      <point x="419" y="322" type="line" smooth="yes"/>
      <point x="419" y="284"/>
      <point x="354" y="246"/>
      <point x="301" y="246" type="qcurve" smooth="yes"/>
      <point x="240" y="246"/>
      <point x="191" y="294"/>
      <point x="191" y="351" type="qcurve" smooth="yes"/>
      <point x="191" y="471" type="line"/>
      <point x="260" y="471" type="line"/>
      <point x="260" y="516" type="line"/>
      <point x="34" y="516" type="line"/>
      <point x="34" y="471" type="line"/>
      <point x="109" y="471" type="line"/>
      <point x="109" y="343" type="line" smooth="yes"/>
      <point x="109" y="261"/>
      <point x="187" y="189"/>
      <point x="265" y="189" type="qcurve" smooth="yes"/>
      <point x="319" y="189"/>
      <point x="392" y="225"/>
      <point x="416" y="254" type="qcurve"/>
      <point x="419" y="254" type="line"/>
      <point x="419" y="46" type="line"/>
      <point x="325" y="46" type="line"/>
      <point x="325" y="0" type="line"/>
      <point x="528" y="0" type="line"/>
    </contour>
  </outline>
</glyph>
<glyph name="uni04B8" format="2">
  <advance width="718"/>
  <unicode hex="04B8"/>
  <note>
uni04B8
</note>
  <outline>
    <contour>
      <point x="326" y="118" type="line"/>
      <point x="378" y="118" type="line"/>
      <point x="378" y="268" type="line"/>
      <point x="414" y="271"/>
      <point x="471" y="289"/>
      <point x="498" y="303" type="qcurve"/>
      <point x="502" y="303" type="line"/>
      <point x="502" y="46" type="line"/>
      <point x="407" y="46" type="line"/>
      <point x="407" y="0" type="line"/>
      <point x="663" y="0" type="line"/>
      <point x="663" y="46" type="line"/>
      <point x="588" y="46" type="line"/>
      <point x="588" y="652" type="line"/>
      <point x="663" y="652" type="line"/>
      <point x="663" y="698" type="line"/>
      <point x="427" y="698" type="line"/>
      <point x="427" y="652" type="line"/>
      <point x="502" y="652" type="line"/>
      <point x="502" y="353" type="line"/>
      <point x="479" y="339"/>
      <point x="417" y="319"/>
      <point x="378" y="316" type="qcurve"/>
      <point x="378" y="484" type="line"/>
      <point x="326" y="484" type="line"/>
      <point x="326" y="316" type="line"/>
      <point x="290" y="318"/>
      <point x="241" y="339"/>
      <point x="210" y="381"/>
      <point x="196" y="445"/>
      <point x="196" y="490" type="qcurve" smooth="yes"/>
      <point x="196" y="652" type="line"/>
      <point x="271" y="652" type="line"/>
      <point x="271" y="698" type="line"/>
      <point x="35" y="698" type="line"/>
      <point x="35" y="652" type="line"/>
      <point x="110" y="652" type="line"/>
      <point x="110" y="487" type="line" smooth="yes"/>
      <point x="110" y="430"/>
      <point x="133" y="347"/>
      <point x="184" y="293"/>
      <point x="266" y="267"/>
      <point x="326" y="266" type="qcurve"/>
    </contour>
  </outline>
</glyph>
<glyph name="uni04B9" format="2">
  <advance width="624"/>
  <unicode hex="04B9"/>
  <note>
uni04B9
</note>
  <outline>
    <contour>
      <point x="278" y="92" type="line"/>
      <point x="325" y="92" type="line"/>
      <point x="325" y="197" type="line"/>
      <point x="354" y="205"/>
      <point x="398" y="234"/>
      <point x="415" y="254" type="qcurve"/>
      <point x="418" y="254" type="line"/>
      <point x="418" y="46" type="line"/>
      <point x="324" y="46" type="line"/>
      <point x="324" y="0" type="line"/>
      <point x="574" y="0" type="line"/>
      <point x="574" y="46" type="line"/>
      <point x="500" y="46" type="line"/>
      <point x="500" y="471" type="line"/>
      <point x="574" y="471" type="line"/>
      <point x="574" y="516" type="line"/>
      <point x="349" y="516" type="line"/>
      <point x="349" y="471" type="line"/>
      <point x="418" y="471" type="line"/>
      <point x="418" y="322" type="line" smooth="yes"/>
      <point x="418" y="289"/>
      <point x="367" y="251"/>
      <point x="325" y="247" type="qcurve"/>
      <point x="325" y="354" type="line"/>
      <point x="278" y="354" type="line"/>
      <point x="278" y="246" type="line"/>
      <point x="229" y="250"/>
      <point x="190" y="299"/>
      <point x="190" y="351" type="qcurve" smooth="yes"/>
      <point x="190" y="471" type="line"/>
      <point x="259" y="471" type="line"/>
      <point x="259" y="516" type="line"/>
      <point x="34" y="516" type="line"/>
      <point x="34" y="471" type="line"/>
      <point x="108" y="471" type="line"/>
      <point x="108" y="343" type="line" smooth="yes"/>
      <point x="108" y="261"/>
      <point x="186" y="189"/>
      <point x="264" y="189" type="qcurve" smooth="yes"/>
      <point x="278" y="189" type="line"/>
    </contour>
  </outline>
</glyph>
<glyph name="uni0E3F" format="2">
  <advance width="631"/>
  <unicode hex="0E3F"/>
  <note>
uni0E3F
</note>
  <outline>
    <contour>
      <point x="306" y="-82" type="line"/>
      <point x="358" y="-82" type="line"/>
      <point x="358" y="21" type="line"/>
      <point x="405" y="21" type="line" smooth="yes"/>
      <point x="443" y="21"/>
      <point x="508" y="48"/>
      <point x="556" y="96"/>
      <point x="583" y="161"/>
      <point x="583" y="199" type="qcurve" smooth="yes"/>
      <point x="583" y="236"/>
      <point x="554" y="295"/>
      <point x="508" y="335"/>
      <point x="453" y="358"/>
      <point x="426" y="361" type="qcurve"/>
      <point x="426" y="364" type="line"/>
      <point x="450" y="369"/>
      <point x="499" y="393"/>
      <point x="538" y="432"/>
      <point x="563" y="485"/>
      <point x="563" y="519" type="qcurve" smooth="yes"/>
      <point x="563" y="552"/>
      <point x="537" y="610"/>
      <point x="490" y="652"/>
      <point x="423" y="677"/>
      <point x="382" y="677" type="qcurve" smooth="yes"/>
      <point x="358" y="677" type="line"/>
      <point x="358" y="780" type="line"/>
      <point x="306" y="780" type="line"/>
      <point x="306" y="677" type="line"/>
      <point x="52" y="677" type="line"/>
      <point x="52" y="631" type="line"/>
      <point x="127" y="631" type="line"/>
      <point x="127" y="67" type="line"/>
      <point x="52" y="67" type="line"/>
      <point x="52" y="21" type="line"/>
      <point x="306" y="21" type="line"/>
    </contour>
    <contour>
      <point x="356" y="336" type="line"/>
      <point x="374" y="336" type="line" smooth="yes"/>
      <point x="431" y="336"/>
      <point x="494" y="269"/>
      <point x="494" y="218" type="qcurve" smooth="yes"/>
      <point x="494" y="187" type="line" smooth="yes"/>
      <point x="494" y="136"/>
      <point x="431" y="69"/>
      <point x="374" y="69" type="qcurve" smooth="yes"/>
      <point x="356" y="69" type="line"/>
    </contour>
    <contour>
      <point x="356" y="629" type="line"/>
      <point x="365" y="629" type="line" smooth="yes"/>
      <point x="416" y="629"/>
      <point x="475" y="568"/>
      <point x="475" y="521" type="qcurve" smooth="yes"/>
      <point x="475" y="490" type="line" smooth="yes"/>
      <point x="475" y="443"/>
      <point x="416" y="383"/>
      <point x="365" y="383" type="qcurve" smooth="yes"/>
      <point x="356" y="383" type="line"/>
    </contour>
    <contour>
      <point x="211" y="336" type="line"/>
      <point x="308" y="336" type="line"/>
      <point x="308" y="69" type="line"/>
      <point x="211" y="69" type="line"/>
    </contour>
    <contour>
      <point x="211" y="629" type="line"/>
      <point x="308" y="629" type="line"/>
      <point x="308" y="383" type="line"/>
      <point x="211" y="383" type="line"/>
    </contour>
  </outline>
</glyph>
<glyph name="ddotbelow" format="2">
  <advance width="608"/>
  <unicode hex="1E0D"/>
  <outline>
    <contour>
      <point x="327" y="-162"/>
      <point x="354" y="-133"/>
      <point x="354" y="-113" type="qcurve" smooth="yes"/>
      <point x="354" y="-110" type="line" smooth="yes"/>
      <point x="354" y="-90"/>
      <point x="327" y="-61"/>
      <point x="304" y="-61" type="qcurve" smooth="yes"/>
      <point x="281" y="-61"/>
      <point x="254" y="-90"/>
      <point x="254" y="-110" type="qcurve" smooth="yes"/>
      <point x="254" y="-113" type="line" smooth="yes"/>
      <point x="254" y="-133"/>
      <point x="281" y="-162"/>
      <point x="304" y="-162" type="qcurve" smooth="yes"/>
    </contour>
    <contour>
      <point x="322" y="-12"/>
      <point x="396" y="41"/>
      <point x="413" y="78" type="qcurve"/>
      <point x="417" y="78" type="line"/>
      <point x="417" y="-12" type="line"/>
      <point x="573" y="18" type="line"/>
      <point x="573" y="52" type="line"/>
      <point x="499" y="65" type="line"/>
      <point x="499" y="760" type="line"/>
      <point x="342" y="731" type="line"/>
      <point x="342" y="696" type="line"/>
      <point x="417" y="683" type="line"/>
      <point x="417" y="439" type="line"/>
      <point x="413" y="439" type="line"/>
      <point x="396" y="476"/>
      <point x="321" y="528"/>
      <point x="261" y="528" type="qcurve" smooth="yes"/>
      <point x="165" y="528"/>
      <point x="50" y="389"/>
      <point x="50" y="258" type="qcurve" smooth="yes"/>
      <point x="50" y="127"/>
      <point x="165" y="-12"/>
      <point x="261" y="-12" type="qcurve" smooth="yes"/>
    </contour>
    <contour>
      <point x="216" y="45"/>
      <point x="139" y="138"/>
      <point x="139" y="216" type="qcurve" smooth="yes"/>
      <point x="139" y="300" type="line" smooth="yes"/>
      <point x="139" y="378"/>
      <point x="216" y="471"/>
      <point x="285" y="471" type="qcurve" smooth="yes"/>
      <point x="309" y="471"/>
      <point x="357" y="457"/>
      <point x="394" y="431"/>
      <point x="417" y="392"/>
      <point x="417" y="368" type="qcurve" smooth="yes"/>
      <point x="417" y="148" type="line" smooth="yes"/>
      <point x="417" y="124"/>
      <point x="394" y="85"/>
      <point x="357" y="59"/>
      <point x="309" y="45"/>
      <point x="285" y="45" type="qcurve" smooth="yes"/>
    </contour>
  </outline>
</glyph>
<glyph name="Hdotbelow" format="2">
  <advance width="787"/>
  <unicode hex="1E24"/>
  <outline>
    <contour>
      <point x="416" y="-162"/>
      <point x="443" y="-133"/>
      <point x="443" y="-113" type="qcurve" smooth="yes"/>
      <point x="443" y="-110" type="line" smooth="yes"/>
      <point x="443" y="-90"/>
      <point x="416" y="-61"/>
      <point x="393" y="-61" type="qcurve" smooth="yes"/>
      <point x="370" y="-61"/>
      <point x="343" y="-90"/>
      <point x="343" y="-110" type="qcurve" smooth="yes"/>
      <point x="343" y="-113" type="line" smooth="yes"/>
      <point x="343" y="-133"/>
      <point x="370" y="-162"/>
      <point x="393" y="-162" type="qcurve" smooth="yes"/>
    </contour>
    <contour>
      <point x="55" y="0" type="line"/>
      <point x="291" y="0" type="line"/>
      <point x="291" y="46" type="line"/>
      <point x="216" y="46" type="line"/>
      <point x="216" y="331" type="line"/>
      <point x="571" y="331" type="line"/>
      <point x="571" y="46" type="line"/>
      <point x="496" y="46" type="line"/>
      <point x="496" y="0" type="line"/>
      <point x="732" y="0" type="line"/>
      <point x="732" y="46" type="line"/>
      <point x="657" y="46" type="line"/>
      <point x="657" y="652" type="line"/>
      <point x="732" y="652" type="line"/>
      <point x="732" y="698" type="line"/>
      <point x="496" y="698" type="line"/>
      <point x="496" y="652" type="line"/>
      <point x="571" y="652" type="line"/>
      <point x="571" y="380" type="line"/>
      <point x="216" y="380" type="line"/>
      <point x="216" y="652" type="line"/>
      <point x="291" y="652" type="line"/>
      <point x="291" y="698" type="line"/>
      <point x="55" y="698" type="line"/>
      <point x="55" y="652" type="line"/>
      <point x="130" y="652" type="line"/>
      <point x="130" y="46" type="line"/>
      <point x="55" y="46" type="line"/>
    </contour>
  </outline>
</glyph>
